<?xml version="1.0" encoding="UTF-8"?>
<svg width="133px" height="28px" viewBox="0 0 133 28" version="1.1" xmlns="http://www.w3.org/2000/svg" xmlns:xlink="http://www.w3.org/1999/xlink">
    <!-- Generator: Sketch 42 (36781) - http://www.bohemiancoding.com/sketch -->
    <title>logo pasilobus</title>
    <desc>Created with Sketch.</desc>
    <defs></defs>
    <g id="Page-1" stroke="none" stroke-width="1" fill="none" fill-rule="evenodd">
        <g id="Pasilobus-Website---5---Story" transform="translate(-59.000000, -26.000000)" stroke="#9BE200" stroke-width="0.3" fill="#9BE200">
            <g id="Header" transform="translate(60.000000, 25.000000)">
                <g id="logo-pasilobus" transform="translate(0.000000, 1.000000)">
                    <path d="M73.9544766,8.36319457 L75.8873314,8.36319457 L75.8873314,6.14549811 L73.9544766,6.14549811 L73.9544766,8.36319457 Z M81.646607,20.8779904 C80.6805304,20.8779904 80.5107479,20.1251943 80.5107479,19.2882086 L80.5107479,6.14549811 L78.6620829,6.14549811 L78.6620829,19.622161 C78.6620829,21.4631086 79.5860646,22.5526634 81.4361328,22.5526634 C81.646607,22.5526634 81.855678,22.5526634 82.0675554,22.5105686 L82.1517451,22.5105686 L82.1517451,20.8372987 L82.0261621,20.8372987 C81.8998776,20.8779904 81.7735931,20.8779904 81.646607,20.8779904 L81.646607,20.8779904 Z M73.9951683,22.4705785 L75.8459381,22.4705785 L75.8459381,10.7071756 L73.9951683,10.7071756 L73.9951683,22.4705785 Z M65.7572082,13.7625593 C65.7572082,12.5481232 66.8488677,12.1299811 67.9005371,12.1299811 C68.782424,12.1299811 70.0445676,12.4632319 70.6745871,13.1346446 L70.8022747,13.2602276 L71.6427684,11.8353173 L71.5992704,11.7525307 C71.3474029,11.5013649 70.9685494,11.250199 70.6745871,11.0839244 C69.8340934,10.6222843 68.8687184,10.4553081 67.9433336,10.4553081 C65.9241844,10.4553081 63.8657468,11.5013649 63.8657468,13.7625593 C63.8657468,17.6135356 70.0445676,17.0277157 70.0445676,19.3716967 C70.0445676,20.5854312 68.9522065,21.0870614 67.9005371,21.0870614 C67.0172471,21.0870614 66.1767535,20.8372987 65.4204495,20.4191566 C65.1678805,20.2507773 64.7897285,19.9575165 64.5364579,19.7063507 L64.4529698,19.5807677 L63.4034051,20.9635832 L63.48549,21.0470713 C63.7801539,21.3389289 64.2424956,21.6728812 64.6213491,21.884057 C65.5881273,22.4705785 66.7232848,22.762436 67.8577407,22.762436 C69.8775914,22.762436 71.9367307,21.6321896 71.9367307,19.3716967 C71.9367307,15.5200189 65.7572082,16.1479336 65.7572082,13.7625593 L65.7572082,13.7625593 Z M124.778383,13.7625593 C124.778383,12.5481232 125.870042,12.1299811 126.923115,12.1299811 C127.847798,12.1299811 129.065742,12.4632319 129.738558,13.1346446 L129.865544,13.2602276 L130.706038,11.8353173 L130.66254,11.7525307 C130.409971,11.5013649 130.03252,11.250199 129.737856,11.0839244 C128.896661,10.6222843 127.930585,10.4553081 127.0052,10.4553081 C124.94606,10.4553081 122.88622,11.5013649 122.88622,13.7625593 C122.88622,17.6135356 129.107135,17.0277157 129.107135,19.3716967 C129.107135,20.5854312 127.971978,21.0870614 126.922413,21.0870614 C126.081218,21.0870614 125.241426,20.8372987 124.483719,20.4191566 C124.190458,20.2507773 123.853699,19.9575165 123.600429,19.7063507 L123.474846,19.5807677 L122.467376,20.9635832 L122.550864,21.0470713 C122.844125,21.3389289 123.307168,21.6728812 123.683917,21.884057 C124.651397,22.4705785 125.787957,22.762436 126.923115,22.762436 C128.940861,22.762436 131,21.6321896 131,19.3716967 C131,15.5200189 124.778383,16.1479336 124.778383,13.7625593 L124.778383,13.7625593 Z M106.534479,16.5674788 C106.534479,14.8942089 105.903758,13.0083601 104.222069,12.3397537 C103.801121,12.1706728 103.380874,12.0864831 102.959926,12.0864831 C100.564028,12.0864831 99.4716668,14.4739621 99.4716668,16.5674788 L99.4295719,19.4972796 L99.4295719,20.50054 C100.48054,20.9635832 101.908256,21.0470713 103.044115,21.0470713 C105.525606,21.0470713 106.534479,18.7430804 106.534479,16.5674788 L106.534479,16.5674788 Z M108.423836,16.5674788 C108.423836,19.7912419 106.785645,22.7196396 103.253888,22.7196396 C101.488711,22.7196396 99.3446807,22.5105686 97.7464799,21.7156777 L97.6636934,21.6728812 L97.6636934,6.14549811 L99.51306,6.14549811 L99.51306,11.7525307 C99.51306,11.9202085 99.51306,12.0864831 99.4716668,12.2548625 C99.6814394,12.0043982 99.891212,11.7525307 100.101686,11.5427581 C100.94218,10.7885589 101.993849,10.4553081 103.128305,10.4553081 C104.095083,10.4553081 105.020468,10.6636776 105.818165,11.168114 C107.668234,12.337649 108.423836,14.4739621 108.423836,16.5674788 L108.423836,16.5674788 Z M93.6267983,16.525384 C93.6267983,14.0965117 91.7360384,12.1299811 89.2552492,12.1299811 C86.817958,12.1299811 84.925795,14.0965117 84.925795,16.525384 C84.925795,18.9949479 86.7751616,21.0870614 89.2552492,21.0870614 C91.7781333,21.0870614 93.6267983,18.9949479 93.6267983,16.525384 L93.6267983,16.525384 Z M95.5196629,16.525384 C95.5196629,20.0417062 92.7877078,22.762436 89.2552492,22.762436 C85.7669902,22.762436 83.0343335,20.0417062 83.0343335,16.525384 C83.0343335,13.050455 85.8083834,10.4553081 89.2552492,10.4553081 C92.7014134,10.4553081 95.5196629,13.050455 95.5196629,16.525384 L95.5196629,16.525384 Z M118.640955,17.7391185 C118.640955,19.4972796 118.430481,21.0049765 116.28645,21.0049765 L114.562667,21.0049765 C112.461433,21.0049765 112.209565,19.4972796 112.209565,17.7377153 L112.209565,10.706474 L110.359497,10.706474 L110.359497,18.1572606 C110.359497,20.9635832 111.367668,22.762436 114.352894,22.762436 L116.496925,22.762436 C119.522842,22.762436 120.490322,20.9635832 120.490322,18.1572606 L120.490322,11.0839244 L118.640955,11.0839244 L118.640955,17.7391185 Z M47.7230774,16.6095736 C47.7230774,14.4318673 46.671408,12.1299811 44.1913203,12.1299811 C42.9305799,12.1299811 40.5760752,12.7578958 40.6181701,14.3483792 L40.6181701,16.6495637 C40.6181701,18.7016872 41.7533276,21.0870614 44.1492255,21.0870614 C44.5687707,21.0870614 44.9904207,21.0049765 45.3678711,20.8372987 C47.0916548,20.1665876 47.7230774,18.2821419 47.7230774,16.6095736 L47.7230774,16.6095736 Z M49.6138373,16.6095736 C49.6138373,18.7016872 48.8568317,20.8779904 46.9653703,22.0082368 C46.1669715,22.5105686 45.2415866,22.762436 44.3169033,22.762436 C43.1810442,22.762436 42.130778,22.3849856 41.2909859,21.6321896 C41.0805117,21.4238201 40.8279427,21.1712511 40.6595633,20.9207868 L40.6595633,21.4238201 L40.6595633,27.0322559 L38.8101967,27.0322559 L38.8101967,14.0551185 C38.8101967,13.7211661 38.8943864,13.4265022 38.9785761,13.1767395 C39.6934867,11.250199 42.5517263,10.4553081 44.4431878,10.4553081 C47.9321484,10.4553081 49.6138373,13.4265022 49.6138373,16.6095736 L49.6138373,16.6095736 Z M59.8281501,13.006957 C58.7778838,12.5481232 57.3915604,12.4218387 56.2564029,12.4218387 C53.7756137,12.4218387 52.7667407,14.7244264 52.7667407,16.9028344 C52.7667407,18.5768058 53.3974618,20.4591467 55.078449,21.1298578 C55.4580041,21.2982372 55.8775494,21.3803221 56.2984978,21.3803221 C58.6950973,21.3803221 59.8281501,18.9949479 59.8281501,16.9028344 L59.8281501,13.9709288 L59.8281501,13.006957 Z M61.5526353,11.8353173 L61.636825,11.8781137 L61.636825,22.5961614 L61.4691472,22.5961614 C60.9647107,22.5961614 60.4181794,22.6361515 59.9137429,22.5961614 L59.7453636,22.5961614 L59.8281501,21.1712511 L59.7867568,21.2147491 C59.5762826,21.4645118 59.3244152,21.7570709 59.0732493,21.9675451 C58.2320541,22.6803511 57.2645743,23.0563983 56.1722133,23.0563983 C55.2054351,23.0563983 54.2807518,22.8045309 53.4816514,22.3029007 C51.5894884,21.1712511 50.8759809,18.9949479 50.8759809,16.9028344 C50.8759809,13.7211661 52.5148733,10.7478672 56.0045355,10.7478672 C57.8532005,10.7478672 59.9137429,11.0404264 61.5526353,11.8353173 L61.5526353,11.8353173 Z M27.9644613,6.89618941 C27.292347,6.10200011 26.6188296,5.2643128 25.9881086,4.42802866 C25.9046205,4.34243582 25.8204308,4.25894772 25.7776344,4.17545962 C25.4429804,3.79941239 24.8957475,3.75872071 24.5161924,4.05057826 C24.138742,4.38453066 24.0552539,4.93036041 24.3906094,5.3078108 C24.4334058,5.38849258 24.4755007,5.47408542 24.5603919,5.51547868 C24.9792356,6.06060685 25.4008856,6.6029287 25.8204308,7.10736519 C23.635007,7.94364934 21.3225972,8.61506203 19.0529838,9.03250252 C18.1696937,9.19947872 18.085504,10.4125117 18.9274008,10.7478672 C19.5988135,11.0839244 20.355819,11.3350902 21.112123,11.5427581 C22.8780015,12.1299811 24.6431785,12.5895165 26.4511518,12.9662653 C26.0737014,28.9994881 2.27889179,28.9994881 1.9014414,12.9662653 C3.70941476,12.5895165 5.51458179,12.1299811 7.23976863,11.5427581 C7.99607258,11.3350902 8.75237653,11.0839244 9.4679888,10.7478672 C10.265686,10.4125117 10.1828995,9.19947872 9.29960945,9.03250252 C7.02929443,8.61506203 4.71758616,7.94364934 2.53075925,7.10736519 C2.99380248,6.6029287 3.4140493,6.06060685 3.83499769,5.51547868 C3.87639095,5.47408542 3.91848579,5.38849258 3.96128221,5.3078108 C4.29733935,4.93036041 4.25454293,4.38453066 3.83499769,4.05057826 C3.45614414,3.75872071 2.91031439,3.79941239 2.57355567,4.17545962 C2.53075925,4.25894772 2.44797273,4.34243582 2.40587789,4.42802866 C1.73236046,5.2643128 1.06094777,6.10200011 0.387430337,6.89618941 C-0.243290675,7.56830369 -0.0749113172,7.85945966 0.682094214,8.31969657 C2.32238979,9.03250252 4.21314967,9.61691921 5.93623177,10.119251 C4.25454293,10.6222843 2.53075925,10.9983315 0.807677152,11.3350902 C0.0506716207,11.5020664 0.0920648796,11.8781137 0.0920648796,12.5053268 C0.13556288,21.0049765 4.92735878,26.0296971 13.5869689,26.7382936 C14.0486089,26.7817916 14.3439744,26.7817916 14.7642212,26.7382936 C23.4245328,26.0296971 28.2170303,21.0049765 28.2584236,12.5053268 C28.2584236,11.8781137 28.3005184,11.5013649 27.5435129,11.3350902 C25.8197292,10.9983315 24.0980503,10.6222843 22.4156599,10.119251 C24.1808368,9.61691921 26.030905,9.03250252 27.6284042,8.31969657 C28.4261014,7.85945966 28.5951823,7.56619894 27.9644613,6.89618941 L27.9644613,6.89618941 Z M16.2789338,9.28156365 C17.1180243,9.28156365 17.7915417,8.57086245 17.7915417,7.73317514 C17.7915417,6.85549774 17.1180243,6.18689137 16.2789338,6.18689137 C15.3942406,6.18689137 14.7221264,6.85549774 14.7221264,7.73317514 C14.7221264,8.57086245 15.3942406,9.28156365 16.2789338,9.28156365 L16.2789338,9.28156365 Z M12.1164558,9.28156365 C12.9562478,9.28156365 13.6718601,8.57086245 13.6718601,7.73317514 C13.6718601,6.85549774 12.9562478,6.18689137 12.1164558,6.18689137 C11.2331657,6.18689137 10.5603499,6.85549774 10.5603499,7.73317514 C10.5603499,8.57086245 11.2331657,9.28156365 12.1164558,9.28156365 L12.1164558,9.28156365 Z M23.1719638,3.71452113 C24.013159,3.71452113 24.7273681,3.00311834 24.7273681,2.16543103 C24.7273681,1.32914689 24.013159,0.617744099 23.1719638,0.617744099 C22.2893753,0.617744099 21.6172611,1.32914689 21.6172611,2.16543103 C21.6172611,3.00311834 22.2893753,3.71452113 23.1719638,3.71452113 L23.1719638,3.71452113 Z M3.62522508,2.16543103 C3.62522508,1.32914689 4.34013577,0.617744099 5.1806294,0.617744099 C6.06251629,0.617744099 6.73533214,1.32914689 6.73533214,2.16543103 C6.73533214,3.00311834 6.06251629,3.71452113 5.1806294,3.71452113 C4.34013577,3.71452113 3.62522508,3.00311834 3.62522508,2.16543103 L3.62522508,2.16543103 Z" id="Fill-1"></path>
                </g>
            </g>
        </g>
    </g>
</svg>