<?xml version="1.0" encoding="UTF-8"?>
<svg width="128px" height="128px" viewBox="0 0 128 128" version="1.1" xmlns="http://www.w3.org/2000/svg" xmlns:xlink="http://www.w3.org/1999/xlink">
    <!-- Generator: Sketch 53.2 (72643) - https://sketchapp.com -->
    <title>today's offers logogram rounded 1</title>
    <desc>Created with Sketch.</desc>
    <g id="today's-offers-logogram-rounded-1" stroke="none" stroke-width="1" fill="none" fill-rule="evenodd">
        <path d="M25,128 C11.193,128 0,116.807 0,103 L0,25 C0,11.193 11.193,0 25,0 L103,0 C116.808,0 128,11.193 128,25 L128,103 C128,116.807 116.808,128 103,128 L25,128 Z" id="Fill-1" fill="#FC5249"></path>
        <path d="M91.9667487,91.9662468 C85.9806859,97.9523096 78.538011,101.612411 70.7700835,102.95157 L52.6332067,84.8146938 C50.5802974,82.7617843 49.4489386,80.0312642 49.4489386,77.1260713 L49.4489386,56.7043921 C49.4489386,56.0428432 49.5463137,55.4053873 49.7119519,54.7960396 L53.9743739,59.0584617 C53.3308947,61.46674 53.9452616,64.1450589 55.8305252,66.0303225 C58.6433625,68.8431594 63.2189909,68.8421556 66.0308244,66.0303225 C68.8426575,63.218489 68.8426575,58.6428606 66.0308244,55.8310271 C64.1455608,53.9447598 61.4682457,53.3303928 59.0589636,53.973872 L54.7965416,49.71145 C55.4058892,49.544808 56.0433453,49.4484367 56.7038902,49.4484367 L77.1265732,49.4484367 C80.0317661,49.4484367 82.7612824,50.5797955 84.8151956,52.6327048 L102.952072,70.7695816 C101.612913,78.5385133 97.9518077,85.9811878 91.9667487,91.9662468 L91.9667487,91.9662468 Z M33.608911,38.6929988 L44.272997,49.3570847 C42.9950735,51.5113847 42.2582346,54.0230615 42.2582346,56.7043921 L42.2582346,77.1260713 C42.2582346,81.9516633 44.136471,86.488141 47.5486171,89.9002872 L61.072722,103.423388 C51.9415419,102.751801 43.0000928,98.9330882 36.0342553,91.9662468 C21.4701435,77.4031389 20.6630339,54.2148002 33.608911,38.6929988 L33.608911,38.6929988 Z M91.9667487,36.0327495 C98.9335901,43.0005948 102.752302,51.94104 103.42389,61.0722201 L89.8997853,47.5481152 C86.4886429,44.136973 81.953169,42.2577327 77.127577,42.2577327 L56.7038902,42.2577327 C54.0235633,42.2577327 51.5118866,42.9945716 49.3575866,44.2724951 L38.6924968,33.6074053 C54.2153022,20.662532 77.4036408,21.4696416 91.9667487,36.0327495 L91.9667487,36.0327495 Z M97.0513383,30.9481599 C78.8271253,12.7239467 49.1728749,12.7239467 30.9486618,30.9481599 C12.7244486,49.1733769 12.7244486,78.8266234 30.9486618,97.0518402 C49.1728749,115.276053 78.8271253,115.276053 97.0513383,97.0518402 C115.275551,78.8266234 115.275551,49.1733769 97.0513383,30.9481599 L97.0513383,30.9481599 Z" id="Fill-67" fill="#FFFFFF" fill-rule="nonzero"></path>
    </g>
</svg>
