<?xml version="1.0" encoding="UTF-8"?>
<svg width="40px" height="40px" viewBox="0 0 24 25" version="1.1" xmlns="http://www.w3.org/2000/svg" xmlns:xlink="http://www.w3.org/1999/xlink">
    <!-- Generator: Sketch 53.2 (72643) - https://sketchapp.com -->
    <title>photolock logogram color</title>
    <desc>Created with Sketch.</desc>
    <g id="photolock-logogram-color" stroke="none" stroke-width="1" fill="none" fill-rule="evenodd">
        <path d="M15.60936,18.93992 C13.81776,18.93992 12.19464,18.20432 11.02608,17.01944 C11.32296,17.07968 11.62944,17.11136 11.94336,17.11136 C16.50744,17.11136 20.22072,13.39808 20.22072,8.834 C20.22072,7.874 20.05536,6.95192 19.75368,6.09392 C21.1872,7.83896 22.04928,10.07048 22.04928,12.5 C22.04928,16.05104 19.1604,18.93992 15.60936,18.93992 M11.94336,22.60592 C8.39232,22.60592 5.50344,19.71704 5.50344,16.166 C5.50344,14.37488 6.23928,12.75296 7.42368,11.5844 C7.36392,11.88032 7.332,12.18656 7.332,12.5 C7.332,17.06408 11.04504,20.77736 15.60936,20.77736 C16.56912,20.77736 17.4912,20.61224 18.3492,20.31032 C16.6044,21.74408 14.37264,22.60592 11.94336,22.60592 M1.8372,12.5 C1.8372,8.9492 4.72608,6.06008 8.27712,6.06008 C10.06872,6.06008 11.69112,6.79592 12.85968,7.98032 C12.56352,7.92032 12.25704,7.88864 11.94336,7.88864 C7.37928,7.88864 3.666,11.60192 3.666,16.166 C3.666,17.126 3.83112,18.04784 4.13304,18.90584 C2.69928,17.16104 1.8372,14.92928 1.8372,12.5 M14.71704,12.5 C14.71704,14.02952 13.47288,15.27392 11.94336,15.27392 C10.41408,15.27392 9.16944,14.02952 9.16944,12.5 C9.16944,10.97048 10.41408,9.72608 11.94336,9.72608 C13.47288,9.72608 14.71704,10.97048 14.71704,12.5 M11.94336,2.39408 C15.4944,2.39408 18.38328,5.28296 18.38328,8.834 C18.38328,10.6256 17.64744,12.24824 16.46304,13.41656 C16.52304,13.12016 16.55448,12.81392 16.55448,12.5 C16.55448,7.93592 12.84144,4.22264 8.27712,4.22264 C7.31736,4.22264 6.39552,4.38776 5.53752,4.68944 C7.28232,3.25592 9.51432,2.39408 11.94336,2.39408 M11.94336,0.55664 C5.35776,0.55664 2.11386464e-13,5.9144 2.11386464e-13,12.5 C2.11386464e-13,19.0856 5.35776,24.44336 11.94336,24.44336 C18.52896,24.44336 23.88672,19.0856 23.88672,12.5 C23.88672,5.9144 18.52896,0.55664 11.94336,0.55664" id="Fill-55" fill="#7A2DC7" fill-rule="nonzero"></path>
    </g>
</svg>
