<?xml version="1.0" encoding="UTF-8"?>
<svg width="40px" height="40px" viewBox="0 0 22 24" version="1.1" xmlns="http://www.w3.org/2000/svg" xmlns:xlink="http://www.w3.org/1999/xlink">
    <!-- Generator: Sketch 51.2 (57519) - http://www.bohemiancoding.com/sketch -->
    <title>Comity Logo - Logogram</title>
    <desc>Created with Sketch.</desc>
    <defs></defs>
    <g id="Comity-Logo---Logogram" stroke="none" stroke-width="1" fill="none" fill-rule="evenodd">
        <path d="M6.7945,9.99454632 C6.7945,10.7677463 7.4211,11.3945463 8.1945,11.3945463 C8.9677,11.3945463 9.5945,10.7677463 9.5945,9.99454632 C9.5945,9.22134632 8.9677,8.59454632 8.1945,8.59454632 C7.4211,8.59454632 6.7945,9.22134632 6.7945,9.99454632 Z M20.5521,17.7275463 C21.2717,18.5241463 21.1979,19.7695463 20.4347,20.5247463 C18.1011,22.8343463 15.0477,23.9889463 11.9945,23.9889463 C8.9215,23.9889463 5.8485,22.8195463 3.5091,20.4799463 C-1.1697,15.8011463 -1.1697,8.18814632 3.5091,3.50934632 C8.1607,-1.14225368 15.7117,-1.16965368 20.3971,3.42734632 C21.1779,4.19334632 21.2863,5.44554632 20.5547,6.25854632 C19.7819,7.11774632 18.4581,7.14414632 17.6513,6.33774632 C16.1997,4.88634632 14.3245,4.11014632 12.4199,4.00974632 C12.1893,3.99734632 11.9945,4.17914632 11.9945,4.41014632 L11.9945,9.99454632 C11.9945,11.8723463 10.4721,13.3945463 8.5945,13.3945463 L4.6167,13.3945463 C4.3575,13.3945463 4.1651,13.6373463 4.2261,13.8891463 C4.5597,15.2687463 5.2625,16.5765463 6.3375,17.6515463 C9.4567,20.7705463 14.5321,20.7705463 17.6513,17.6515463 C18.4571,16.8459463 19.7787,16.8713463 20.5521,17.7275463 Z M15.3945,8.49454632 C16.2229,8.49454632 16.8945,9.16614632 16.8945,9.99454632 C16.8945,10.8229463 16.2229,11.4945463 15.3945,11.4945463 C14.5659,11.4945463 13.8945,10.8229463 13.8945,9.99454632 C13.8945,9.16614632 14.5659,8.49454632 15.3945,8.49454632 Z" id="Fill-1" fill="#3309a5"></path>
    </g>
</svg>
