<?xml version="1.0" encoding="UTF-8"?>
<svg width="40px" height="40px" viewBox="0 0 32 24" version="1.1" xmlns="http://www.w3.org/2000/svg" xmlns:xlink="http://www.w3.org/1999/xlink">
    <!-- Generator: Sketch 53.2 (72643) - https://sketchapp.com -->
    <title>incubevr logogram color</title>
    <desc>Created with Sketch.</desc>
    <g id="incubevr-logogram-color" stroke="none" stroke-width="1" fill="none" fill-rule="evenodd">
        <g id="Group" transform="translate(0.500000, 0.000000)" fill-rule="nonzero">
            <polygon id="Fill-20" fill="#904FFF" points="30.5743922 4.2767534 16.6522951 23.7952777 17.079868 16.9888311 23.0672854 14.7866563 22.4759068 6.79279223"></polygon>
            <polygon id="Fill-22" fill="#6969F6" points="30.5743922 4.2767534 22.4759068 6.79279223 22.2939262 4.36786019 17.9853437 2.66619029 18.1535767 9.32038835e-05"></polygon>
            <polygon id="Fill-24" fill="#2D2DAA" points="18.1536466 -1.0658141e-14 17.9851806 2.66609709 16.4247146 2.04745631 7.00669515 4.54974757 7.85298641 10.127767 0.000326213592 4.64085437"></polygon>
            <polygon id="Fill-26" fill="#00FFF8" points="16.4247379 2.04747961 7.00671845 4.54977087 12.011534 7.37058641 22.2937864 4.36779029"></polygon>
            <polygon id="Fill-28" fill="#1ED2F8" points="22.2939029 4.36767379 12.0114175 7.3704699 12.3434563 9.94103301 22.4756505 6.79283883"></polygon>
            <polygon id="Fill-30" fill="#599CFF" points="22.4756971 6.79276893 12.3435029 9.94119612 13.4218718 18.3356039 23.0673087 14.786866"></polygon>
            <polygon id="Fill-32" fill="#6321FF" points="17.0798447 16.9887612 16.6522718 23.7952078 13.4220583 18.3355573"></polygon>
            <polygon id="Fill-34" fill="#904FFF" points="12.3436427 9.94124272 13.4220117 18.3354175 13.4173515 18.3309903 9.05424466 10.9648544"></polygon>
            <polygon id="Fill-36" fill="#6969F7" points="16.6522718 23.7951845 13.4218252 18.335534 13.4173981 18.3311068 13.4173981 18.3308738 9.05405825 10.9647379 12.3434563 9.94112621 12.0114175 7.37056311 7.00660194 4.54974757 7.85312621 10.127767 -3.55271368e-15 4.64062136"></polygon>
        </g>
    </g>
</svg>
