<?xml version="1.0" encoding="UTF-8"?>
<svg width="24px" height="24px" viewBox="0 0 24 24" version="1.1" xmlns="http://www.w3.org/2000/svg" xmlns:xlink="http://www.w3.org/1999/xlink">
    <!-- Generator: Sketch 53.2 (72643) - https://sketchapp.com -->
    <title>logogram photolock white small 24</title>
    <desc>Created with Sketch.</desc>
    <defs>
        <polygon id="path-1" points="9.6e-05 0 23.886576 0 23.886576 23.88672 9.6e-05 23.88672"></polygon>
    </defs>
    <g id="logogram-photolock-white-small-24" stroke="none" stroke-width="1" fill="none" fill-rule="evenodd">
        <g id="Group-3">
            <mask id="mask-2" fill="white">
                <use xlink:href="#path-1"></use>
            </mask>
            <g id="Clip-2"></g>
            <path d="M15.609456,18.383184 C13.817856,18.383184 12.194736,17.647824 11.026176,16.462704 C11.323056,16.522944 11.629536,16.554624 11.943456,16.554624 C16.507536,16.554624 20.220816,12.841584 20.220816,8.277504 C20.220816,7.317504 20.055456,6.395424 19.753776,5.537424 C21.187296,7.282224 22.049376,9.513984 22.049376,11.943264 C22.049376,15.494304 19.160496,18.383184 15.609456,18.383184 M11.943456,22.049184 C8.392416,22.049184 5.503536,19.160304 5.503536,15.609264 C5.503536,13.818144 6.239376,12.196464 7.423776,11.027904 C7.364016,11.323824 7.332096,11.629824 7.332096,11.943264 C7.332096,16.507584 11.045136,20.220624 15.609456,20.220624 C16.569216,20.220624 17.491296,20.055744 18.349296,19.753824 C16.604496,21.187584 14.372736,22.049184 11.943456,22.049184 M1.837296,11.943264 C1.837296,8.392464 4.726176,5.503584 8.277216,5.503584 C10.068816,5.503584 11.691216,6.239184 12.859776,7.423824 C12.563616,7.363824 12.257136,7.331904 11.943456,7.331904 C7.379136,7.331904 3.665856,11.045184 3.665856,15.609264 C3.665856,16.569264 3.831216,17.491104 4.133136,18.349104 C2.699376,16.604304 1.837296,14.372544 1.837296,11.943264 M14.717136,11.943264 C14.717136,13.472784 13.472976,14.717424 11.943456,14.717424 C10.413936,14.717424 9.169536,13.472784 9.169536,11.943264 C9.169536,10.413984 10.413936,9.169344 11.943456,9.169344 C13.472976,9.169344 14.717136,10.413984 14.717136,11.943264 M11.943456,1.837584 C15.494496,1.837584 18.383376,4.726464 18.383376,8.277504 C18.383376,10.068864 17.647536,11.691504 16.462896,12.859824 C16.523136,12.563664 16.554576,12.257184 16.554576,11.943264 C16.554576,7.379184 12.841536,3.666144 8.277216,3.666144 C7.317456,3.666144 6.395616,3.831024 5.537616,4.132704 C7.282416,2.699184 9.514176,1.837584 11.943456,1.837584 M11.943456,-9.6e-05 C5.357856,-9.6e-05 9.6e-05,5.357904 9.6e-05,11.943264 C9.6e-05,18.528864 5.357856,23.886864 11.943456,23.886864 C18.528816,23.886864 23.886576,18.528864 23.886576,11.943264 C23.886576,5.357904 18.528816,-9.6e-05 11.943456,-9.6e-05" id="Fill-1" fill="#7a2dc7"></path>
        </g>
    </g>
</svg>
