<?xml version="1.0" encoding="UTF-8"?>
<svg width="40px" height="40px" viewBox="0 0 25 24" version="1.1" xmlns="http://www.w3.org/2000/svg" xmlns:xlink="http://www.w3.org/1999/xlink">
    <!-- Generator: Sketch 53.2 (72643) - https://sketchapp.com -->
    <title>todays offer logogram color</title>
    <desc>Created with Sketch.</desc>
    <g id="todays-offer-logogram-color" stroke="none" stroke-width="1" fill="none" fill-rule="evenodd">
        <path d="M19.6129362,19.1128085 C18.0904681,20.6352766 16.1975319,21.5661702 14.2218724,21.9067659 L9.60902129,17.2939149 C9.08689363,16.7717872 8.79914895,16.0773191 8.79914895,15.3384255 L8.79914895,10.1444681 C8.79914895,9.97621279 8.82391491,9.81408513 8.86604257,9.6591064 L9.95012768,10.7431915 C9.78646808,11.3557021 9.94272338,12.0368936 10.4222128,12.516383 C11.1376171,13.2317872 12.3013617,13.2315319 13.0165107,12.516383 C13.7316596,11.801234 13.7316596,10.6374894 13.0165107,9.92234045 C12.5370213,9.44259577 11.8560851,9.28634045 11.2433192,9.45000002 L10.1592341,8.36591492 C10.3142128,8.32353194 10.4763405,8.2990213 10.6443405,8.2990213 L15.8385532,8.2990213 C16.5774468,8.2990213 17.2716596,8.58676598 17.7940426,9.10889364 L22.4068936,13.7217447 C22.0662979,15.6976596 21.135149,17.5905957 19.6129362,19.1128085 L19.6129362,19.1128085 Z M4.7704681,5.56353194 L7.48272342,8.27578726 C7.15770214,8.82370215 6.97029788,9.46251066 6.97029788,10.1444681 L6.97029788,15.3384255 C6.97029788,16.5657447 7.44800001,17.7195319 8.3158298,18.5873617 L11.7554894,22.0267659 C9.43310639,21.8559574 7.15897874,20.8847234 5.38731916,19.1128085 C1.68314895,15.4088936 1.47787235,9.51127662 4.7704681,5.56353194 L4.7704681,5.56353194 Z M19.6129362,4.88693619 C21.3848511,6.6591064 22.3560851,8.93297874 22.5268936,11.2553617 L19.0872341,7.81570215 C18.2196596,6.94812768 17.0661277,6.47017023 15.8388085,6.47017023 L10.6443405,6.47017023 C9.96263828,6.47017023 9.3238298,6.65757449 8.77591491,6.98259577 L6.06340427,4.27008513 C10.0114043,0.977744698 15.9090213,1.1830213 19.6129362,4.88693619 L19.6129362,4.88693619 Z M20.9061277,3.5937447 C16.2710639,-1.04131913 8.72893618,-1.04131913 4.09387235,3.5937447 C-0.541191482,8.22906385 -0.541191482,15.7709362 4.09387235,20.4062553 C8.72893618,25.0413191 16.2710639,25.0413191 20.9061277,20.4062553 C25.5411915,15.7709362 25.5411915,8.22906385 20.9061277,3.5937447 L20.9061277,3.5937447 Z" id="Fill-67" fill="#FC5249" fill-rule="nonzero"></path>
    </g>
</svg>
