<svg width="150px" xmlns="http://www.w3.org/2000/svg" xmlns:xlink="http://www.w3.org/1999/xlink" viewBox="0 0 81.45 23.18"><defs><style>.cls-1{fill:#fff;}.cls-1,.cls-3{fill-rule:evenodd;}.cls-2{mask:url(#mask);}.cls-3{fill:#3209a5;}</style><mask id="mask" x="0" y="0" width="81.45" height="23.18" maskUnits="userSpaceOnUse"><g id="mask-2"><polygon id="path-1" class="cls-1" points="0 0 81.45 0 81.45 23.18 0 23.18 0 0"/></g></mask></defs><title>comity</title><g id="Layer_2" data-name="Layer 2"><g id="Layer_1-2" data-name="Layer 1"><g id="comity-color"><g id="Group-3"><g class="cls-2"><path id="Fill-1" class="cls-3" d="M72.41,19.2a3.63,3.63,0,0,0,.56.19,2.71,2.71,0,0,0,.68.09A2.67,2.67,0,0,0,75.34,19a4.11,4.11,0,0,0,1.1-1.56q-1.23-2.36-2.31-5a44.07,44.07,0,0,1-1.77-5.35h2c.14.59.32,1.22.52,1.9s.43,1.38.68,2.1.51,1.44.8,2.16.59,1.42.91,2.09c.49-1.38.93-2.74,1.29-4.09s.72-2.73,1-4.16h1.89c-.47,1.92-1,3.77-1.57,5.55s-1.2,3.43-1.87,5a10.78,10.78,0,0,1-.81,1.53,5.09,5.09,0,0,1-.94,1.05,3.46,3.46,0,0,1-1.14.6,4.67,4.67,0,0,1-1.45.2l-.45,0a3.4,3.4,0,0,1-.46-.08,3.44,3.44,0,0,1-.41-.11,1.64,1.64,0,0,1-.27-.09ZM67.62,7.09h3.87V8.62H67.62v4.71a5.58,5.58,0,0,0,.12,1.27,1.89,1.89,0,0,0,.36.78,1.26,1.26,0,0,0,.58.41,2.61,2.61,0,0,0,.83.11,4,4,0,0,0,1.32-.18l.7-.27L71.88,17a7.15,7.15,0,0,1-1,.34,5.38,5.38,0,0,1-1.57.21,4.74,4.74,0,0,1-1.72-.27,2.53,2.53,0,0,1-1.09-.8,3.31,3.31,0,0,1-.58-1.3,8.79,8.79,0,0,1-.16-1.8V4.24l1.82-.31ZM61.93,17.3h1.83V7.09H61.93Zm.9-12.06A1.2,1.2,0,0,1,62,4.92,1.16,1.16,0,0,1,61.65,4,1.18,1.18,0,1,1,64,4a1.15,1.15,0,0,1-.34.88,1.2,1.2,0,0,1-.84.32ZM46,7.38c.42-.1,1-.21,1.66-.33a14.11,14.11,0,0,1,2.39-.18,4.45,4.45,0,0,1,1.65.27,2.85,2.85,0,0,1,1.12.77l.43-.27A5.59,5.59,0,0,1,54,7.29a6.84,6.84,0,0,1,1-.29A5.3,5.3,0,0,1,58,7.22a2.67,2.67,0,0,1,1.17,1,3.8,3.8,0,0,1,.57,1.49,11.06,11.06,0,0,1,.15,1.89V17.3H58.06V12A11.46,11.46,0,0,0,58,10.41a3,3,0,0,0-.33-1.08A1.53,1.53,0,0,0,57,8.69a2.43,2.43,0,0,0-1.09-.21,3.93,3.93,0,0,0-1.52.25,3.05,3.05,0,0,0-.82.44,6,6,0,0,1,.24,1.12,10.34,10.34,0,0,1,.08,1.28V17.3H52V12a9.9,9.9,0,0,0-.1-1.55,3,3,0,0,0-.34-1.08,1.53,1.53,0,0,0-.67-.64,2.4,2.4,0,0,0-1.07-.21l-.59,0-.6.05-.52.07-.31.06V17.3H46Zm-3.49,4.81a4.39,4.39,0,0,0-.78-2.74,2.71,2.71,0,0,0-4.22,0,4.39,4.39,0,0,0-.77,2.74,4.35,4.35,0,0,0,.77,2.74,2.71,2.71,0,0,0,4.22,0,4.35,4.35,0,0,0,.78-2.74Zm1.9,0a6.31,6.31,0,0,1-.35,2.2,5.13,5.13,0,0,1-1,1.69,4.34,4.34,0,0,1-1.52,1.09,5.07,5.07,0,0,1-3.85,0,4.25,4.25,0,0,1-1.52-1.09,5,5,0,0,1-1-1.69,6.55,6.55,0,0,1-.35-2.2A6.7,6.7,0,0,1,35.18,10a5,5,0,0,1,1-1.69A4.13,4.13,0,0,1,37.7,7.22a4.95,4.95,0,0,1,3.85,0,4.22,4.22,0,0,1,1.52,1.09,5.13,5.13,0,0,1,1,1.69,6.45,6.45,0,0,1,.35,2.19ZM31.94,17.53a5.64,5.64,0,0,1-2.17-.39A4.41,4.41,0,0,1,28.2,16a4.62,4.62,0,0,1-.95-1.68,6.89,6.89,0,0,1-.31-2.15,6.52,6.52,0,0,1,.34-2.16,5.17,5.17,0,0,1,1-1.7,4.41,4.41,0,0,1,1.54-1.11,5,5,0,0,1,2-.41A8,8,0,0,1,33.2,7a6.45,6.45,0,0,1,1.32.37L34.1,8.87a4.41,4.41,0,0,0-1-.31A5.27,5.27,0,0,0,32,8.44a2.87,2.87,0,0,0-2.34,1,4.18,4.18,0,0,0-.82,2.8A5.6,5.6,0,0,0,29,13.73a3,3,0,0,0,.59,1.17,2.64,2.64,0,0,0,1,.76,3.89,3.89,0,0,0,1.53.26,6,6,0,0,0,1.32-.13,4.3,4.3,0,0,0,.92-.3L34.67,17a1.63,1.63,0,0,1-.45.19,6.66,6.66,0,0,1-.67.16l-.79.12a7.63,7.63,0,0,1-.82,0ZM13.43,9.66a1.45,1.45,0,1,0,1.45-1.45,1.45,1.45,0,0,0-1.45,1.45ZM7.92,8.31A1.35,1.35,0,1,1,6.57,9.66,1.34,1.34,0,0,1,7.92,8.31Zm11.94,8.82a1.93,1.93,0,0,0-2.8-.07,7.73,7.73,0,0,1-13-3.64.4.4,0,0,1,.38-.48H8.31a3.28,3.28,0,0,0,3.28-3.28V4.26A.4.4,0,0,1,12,3.87a7.73,7.73,0,0,1,5.06,2.25,1.93,1.93,0,0,0,2.8-.07,2,2,0,0,0-.15-2.74,11.59,11.59,0,1,0,0,16.53,2,2,0,0,0,.11-2.71Z"/></g></g></g></g></g></svg>
