<?xml version="1.0" encoding="UTF-8"?>
<svg width="200px" viewBox="0 0 114 25" version="1.1" xmlns="http://www.w3.org/2000/svg" xmlns:xlink="http://www.w3.org/1999/xlink">
    <!-- Generator: Sketch 53.2 (72643) - https://sketchapp.com -->
    <title>incubevr color</title>
    <desc>Created with Sketch.</desc>
    <g id="incubevr-color" stroke="none" stroke-width="1" fill="none" fill-rule="evenodd">
        <g id="Group-21" transform="translate(0.757576, 0.500000)">
            <polygon id="Fill-1" fill="#904FFF" points="22.4701333 6.96012121 23.055103 14.8660606 17.1336485 17.0437576 16.7108606 23.7749091 30.4793455 4.47187879"></polygon>
            <polygon id="Fill-2" fill="#6969F6" points="18.1957091 0.242521212 18.0289212 2.87912727 22.2900121 4.56179394 22.4701333 6.96009697 30.4793455 4.47209697 18.1964364 0.242521212"></polygon>
            <polygon id="Fill-3" fill="#2D2DAA" points="18.1948848 0.242521212 0.242642424 4.83185455 8.00870303 10.2582788 7.17185455 4.74191515 16.4855515 2.26724848 18.0290667 2.87912727 18.1956121 0.242521212"></polygon>
            <polygon id="Fill-4" fill="#00FFF8" points="16.485697 2.2672 7.17151515 4.74210909 12.1210909 7.53168485 22.2900606 4.56198788"></polygon>
            <polygon id="Fill-5" fill="#1ED2F8" points="22.2901576 4.56196364 12.1211879 7.53166061 12.4494303 10.0737212 22.4700364 6.96026667"></polygon>
            <polygon id="Fill-6" fill="#599CFF" points="22.4700848 6.96014545 12.4494788 10.0738424 13.515903 18.3756606 23.0550545 14.8658424"></polygon>
            <polygon id="Fill-7" fill="#6321FF" points="13.5159515 18.3756121 16.7108606 23.7748848 17.1336485 17.0437333"></polygon>
            <polygon id="Fill-8" fill="#904FFF" points="12.4497212 10.0737939 13.515903 18.3756121 13.5115394 18.3712485 9.1966303 11.0864"></polygon>
            <polygon id="Fill-9" fill="#6969F7" points="8.00860606 10.2583758 0.24230303 4.83170909 16.7106667 23.7749818 13.516 18.3757091 13.5118788 18.371103 13.5118788 18.3708606 9.19648485 11.0862545 12.4495758 10.0738909 12.1210909 7.5318303 7.17151515 4.74201212"></polygon>
            <g id="Group-20" transform="translate(33.242424, 4.017382)" fill="#2D2DAA">
                <path d="M4.96984242,6.068 C5.40232727,5.96012121 5.97687273,5.8449697 6.69372121,5.7230303 C7.41032727,5.60157576 8.23529697,5.54072727 9.16814545,5.54072727 C10.0064485,5.54072727 10.7024485,5.6590303 11.2573576,5.89563636 C11.8115394,6.13248485 12.2542061,6.46363636 12.5858424,6.88957576 C12.9167515,7.31551515 13.1502061,7.82581818 13.2854788,8.42072727 C13.4205091,9.01587879 13.4883879,9.67163636 13.4883879,10.388 L13.4883879,16.3104242 L11.6018424,16.3104242 L11.6018424,10.7938182 C11.6018424,10.1446061 11.5579636,9.59042424 11.4702061,9.13054545 C11.3819636,8.67090909 11.2372364,8.2990303 11.0340848,8.01490909 C10.8314182,7.7310303 10.5606303,7.52521212 10.2229333,7.39648485 C9.88475152,7.268 9.46535758,7.204 8.96523636,7.204 C8.76281212,7.204 8.5526303,7.21078788 8.3366303,7.22412121 C8.12014545,7.23769697 7.91408485,7.25466667 7.71820606,7.2750303 C7.52184242,7.29515152 7.34608485,7.31890909 7.19069091,7.34581818 C7.03529697,7.37321212 6.92378182,7.39333333 6.85614545,7.40642424 L6.85614545,16.3104242 L4.96984242,16.3104242 L4.96984242,6.068 Z" id="Fill-10"></path>
                <path d="M0.852848485,16.3105455 L2.73890909,16.3105455 L2.73890909,5.76412121 L0.852848485,5.76412121 L0.852848485,16.3105455 Z M1.78569697,3.85745455 C1.44751515,3.85745455 1.16024242,3.74593939 0.923636364,3.52290909 C0.687030303,3.29987879 0.568727273,2.9990303 0.568727273,2.62036364 C0.568727273,2.24193939 0.687030303,1.94084848 0.923636364,1.71781818 C1.16024242,1.49454545 1.44751515,1.3830303 1.78569697,1.3830303 C2.12339394,1.3830303 2.41090909,1.49454545 2.64751515,1.71781818 C2.88412121,1.94084848 3.00242424,2.24193939 3.00242424,2.62036364 C3.00242424,2.9990303 2.88412121,3.29987879 2.64751515,3.52290909 C2.41090909,3.74593939 2.12339394,3.85745455 1.78569697,3.85745455 L1.78569697,3.85745455 Z" id="Fill-12"></path>
                <path d="M20.1812606,16.5537939 C19.3291394,16.5537939 18.5819879,16.4185212 17.9400485,16.1482182 C17.2976242,15.8779152 16.7565333,15.4990061 16.317503,15.0124606 C15.8777455,14.5256727 15.5499879,13.9474909 15.3337455,13.2781576 C15.1172606,12.6090667 15.0091394,11.868703 15.0091394,11.0573091 C15.0091394,10.2459152 15.1274424,9.50264242 15.3642909,8.82627879 C15.6004121,8.1504 15.9352,7.56591515 16.3681697,7.07209697 C16.800897,6.57876364 17.3315636,6.19330909 17.9604121,5.91573333 C18.5890182,5.63912727 19.2886545,5.49997576 20.0595636,5.49997576 C20.5325333,5.49997576 21.0057455,5.54070303 21.4792,5.62191515 C21.9524121,5.70288485 22.4052606,5.83161212 22.8382303,6.00712727 L22.4120485,7.60930909 C22.1281697,7.47452121 21.8001697,7.36615758 21.4285333,7.28494545 C21.0564121,7.20397576 20.6610182,7.16324848 20.2421091,7.16324848 C19.1873212,7.16324848 18.3790788,7.49488485 17.8183515,8.15694545 C17.256897,8.81973333 16.9764121,9.78652121 16.9764121,11.0573091 C16.9764121,11.6253091 17.0406545,12.1460364 17.1691394,12.6192485 C17.2976242,13.092703 17.5002909,13.4982788 17.7778667,13.8359758 C18.0547152,14.1744 18.4096242,14.4345212 18.8425939,14.6170667 C19.2753212,14.7996121 19.8025939,14.8907636 20.4244121,14.8907636 C20.9245333,14.8907636 21.3778667,14.8434909 21.7834424,14.748703 C22.1890182,14.6544 22.5065939,14.5528242 22.7366545,14.4444606 L23.0004121,16.0265212 C22.8920485,16.0941576 22.7366545,16.1584 22.5339879,16.2190061 C22.3308364,16.280097 22.1010182,16.3339152 21.8440485,16.3814303 C21.5873212,16.4284606 21.3133818,16.4691879 21.0229576,16.5031273 C20.7318061,16.5368242 20.4513212,16.5537939 20.1812606,16.5537939" id="Fill-14"></path>
                <path d="M32.4111273,16.0062303 C31.9781576,16.1145939 31.4070061,16.2292606 30.6974303,16.3509576 C29.9873697,16.4726545 29.1657939,16.5337455 28.2331879,16.5337455 C27.4217939,16.5337455 26.7388848,16.4152 26.1844606,16.1785939 C25.6297939,15.9422303 25.1839758,15.6074424 24.8460364,15.1747152 C24.5076121,14.7419879 24.2644606,14.2316848 24.1156121,13.6435636 C23.9667636,13.0552 23.8925818,12.4030788 23.8925818,11.6862303 L23.8925818,5.76380606 L25.7788848,5.76380606 L25.7788848,11.2806545 C25.7788848,12.5652606 25.9817939,13.4847758 26.3873697,14.0389576 C26.7929455,14.5933818 27.4756121,14.8702303 28.4358545,14.8702303 C28.6385212,14.8702303 28.8482182,14.8636848 29.0644606,14.8501091 C29.280703,14.8370182 29.4836121,14.8195636 29.6729455,14.7994424 C29.8620364,14.7790788 30.0346424,14.7589576 30.1902788,14.7385939 C30.3454303,14.7184727 30.4569455,14.6949576 30.5248242,14.6678061 L30.5248242,5.76380606 L32.4111273,5.76380606 L32.4111273,16.0062303 Z" id="Fill-15"></path>
                <path d="M36.5280727,14.6676848 C36.7171636,14.7217455 36.9845576,14.7726545 37.3292848,14.8196848 C37.6742545,14.8672 38.103103,14.8907152 38.6172848,14.8907152 C39.6313455,14.8907152 40.442497,14.5559273 41.0509818,13.8865939 C41.6594667,13.217503 41.9637091,12.2676848 41.9637091,11.036897 C41.9637091,10.4965333 41.9094061,9.98938182 41.8015273,9.51592727 C41.6931636,9.04295758 41.5174061,8.63350303 41.2740121,8.28901818 C41.0306182,7.94429091 40.7164364,7.67374545 40.3312242,7.47762424 C39.9457697,7.28174545 39.482497,7.18356364 38.9416485,7.18356364 C38.4277091,7.18356364 37.954497,7.27156364 37.5220121,7.44732121 C37.0890424,7.62307879 36.7578909,7.80562424 36.5280727,7.99495758 L36.5280727,14.6676848 Z M36.5280727,6.23035152 C36.7578909,6.08174545 37.1062545,5.92610909 37.5726788,5.76368485 C38.039103,5.60174545 38.5765576,5.52053333 39.1850424,5.52053333 C39.9421333,5.52053333 40.6148606,5.65580606 41.2032242,5.92610909 C41.7913455,6.19689697 42.2883152,6.57507879 42.6938909,7.06186667 C43.0994667,7.54865455 43.4068606,8.1302303 43.6165576,8.80610909 C43.8260121,9.4822303 43.9309818,10.2259879 43.9309818,11.036897 C43.9309818,11.8890182 43.8058909,12.6565333 43.5557091,13.3392 C43.3055273,14.0221091 42.9503758,14.6002909 42.4912242,15.0732606 C42.031103,15.5467152 41.4769212,15.9118061 40.8279515,16.1682909 C40.1789818,16.4252606 39.4488,16.5537455 38.6374061,16.5537455 C37.7583758,16.5537455 36.9809212,16.492897 36.3050424,16.3712 C35.6286788,16.249503 35.074497,16.1278061 34.6420121,16.0061091 L34.6420121,0.896048485 L36.5280727,0.571684848 L36.5280727,6.23035152 Z" id="Fill-16"></path>
                <path d="M52.2262303,10.0230303 C52.2395636,9.17115152 52.0267152,8.47151515 51.5872,7.92387879 C51.1476848,7.37624242 50.5428364,7.10230303 49.7721697,7.10230303 C49.3392,7.10230303 48.9573818,7.18715152 48.6259879,7.35587879 C48.2945939,7.52509091 48.0141091,7.7449697 47.7845333,8.0150303 C47.5544727,8.28581818 47.3753212,8.59660606 47.2468364,8.94787879 C47.1183515,9.29987879 47.0339879,9.65793939 46.993503,10.0230303 L52.2262303,10.0230303 Z M44.985503,11.0574545 C44.985503,10.1243636 45.1205333,9.31006061 45.3913212,8.61357576 C45.6613818,7.91709091 46.0199273,7.33939394 46.4659879,6.87927273 C46.9122909,6.41987879 47.4259879,6.07515152 48.0075636,5.84509091 C48.5886545,5.61527273 49.1838061,5.50012121 49.7922909,5.50012121 C51.2119273,5.50012121 52.3004121,5.9430303 53.0577455,6.82860606 C53.8148364,7.71442424 54.193503,9.06327273 54.193503,10.8749091 L54.193503,11.1893333 C54.193503,11.3180606 54.1864727,11.4361212 54.1731394,11.5442424 L46.9527758,11.5442424 C47.0339879,12.6395152 47.3515636,13.4710303 47.9062303,14.0387879 C48.4604121,14.6067879 49.3258667,14.8906667 50.5023515,14.8906667 C51.1646545,14.8906667 51.7224727,14.8334545 52.1755636,14.718303 C52.6284121,14.6038788 52.969503,14.4921212 53.1998061,14.3837576 L53.4635636,15.9658182 C53.2332606,16.0875152 52.8310788,16.216 52.2565333,16.3510303 C51.6817455,16.4860606 51.0293818,16.553697 50.2994424,16.553697 C49.3796848,16.553697 48.585503,16.4150303 47.9164121,16.1381818 C47.2468364,15.8610909 46.6960485,15.4790303 46.2630788,14.9922424 C45.8303515,14.5052121 45.5093818,13.9272727 45.2999273,13.2581818 C45.0899879,12.5886061 44.985503,11.8555152 44.985503,11.0574545 L44.985503,11.0574545 Z" id="Fill-17"></path>
                <path d="M67.3765576,2.2550303 C66.8626182,3.74278788 66.3726788,5.11830303 65.9062545,6.38230303 C65.4398303,7.64678788 64.9833455,8.84654545 64.5370424,9.98254545 C64.0909818,11.118303 63.6478303,12.2031515 63.2088,13.2378182 C62.7690424,14.272 62.3195879,15.2964848 61.8599515,16.3105455 L60.0143758,16.3105455 C59.5542545,15.2964848 59.1048,14.272 58.6655273,13.2378182 C58.2260121,12.2031515 57.7797091,11.118303 57.3268606,9.98254545 C56.8737697,8.84654545 56.4109818,7.64678788 55.9375273,6.38230303 C55.4640727,5.11830303 54.9775273,3.74278788 54.4771636,2.2550303 L56.6473455,2.2550303 C57.3775273,4.39151515 58.0941333,6.44678788 58.7971636,8.42084848 C59.5004364,10.3949091 60.2235879,12.2475152 60.9675879,13.9779394 C61.711103,12.2608485 62.434497,10.4118788 63.1377697,8.4310303 C63.8405576,6.45042424 64.5506182,4.39151515 65.2674667,2.2550303 L67.3765576,2.2550303 Z" id="Fill-18"></path>
                <path d="M72.2037333,3.83694545 C71.3651879,3.83694545 70.7232485,3.85730909 70.2769455,3.89779394 L70.2769455,9.19161212 L71.6762182,9.19161212 C72.352097,9.19161212 72.9605818,9.15791515 73.5016727,9.09003636 C74.0422788,9.02264242 74.4987636,8.89415758 74.8706424,8.70458182 C75.2425212,8.51549091 75.5300364,8.24833939 75.732703,7.90361212 C75.9356121,7.55888485 76.0369455,7.1024 76.0369455,6.53464242 C76.0369455,6.00712727 75.9356121,5.56809697 75.732703,5.21609697 C75.5300364,4.86482424 75.256097,4.58749091 74.9113697,4.38458182 C74.5664,4.18167273 74.1608242,4.03985455 73.6944,3.95864242 C73.2279758,3.87767273 72.7310061,3.83694545 72.2037333,3.83694545 M75.1850667,10.4284606 C75.4010667,10.6992485 75.6750061,11.0541576 76.0066424,11.4934303 C76.3377939,11.9329455 76.6788848,12.4197333 77.0306424,12.9535515 C77.3821576,13.4883394 77.7305212,14.0459152 78.0752485,14.6270061 C78.4202182,15.2085818 78.7140364,15.7700364 78.9574303,16.3104 L76.8076121,16.3104 C76.5370667,15.796703 76.2430061,15.2762182 75.9254303,14.748703 C75.6076121,14.2214303 75.2864,13.7179152 74.9620364,13.2376727 C74.6374303,12.7579152 74.3162182,12.3082182 73.9986424,11.8890667 C73.6808242,11.4699152 73.3933091,11.1048242 73.1368242,10.7937939 C72.9605818,10.8073697 72.7816727,10.8139152 72.5991273,10.8139152 L72.0413091,10.8139152 L70.2769455,10.8139152 L70.2769455,16.3104 L68.3096727,16.3104 L68.3096727,2.45779394 C68.8638545,2.32300606 69.4822788,2.23161212 70.1654303,2.18409697 C70.8478545,2.13682424 71.4733091,2.11306667 72.0413091,2.11306667 C74.0153697,2.11306667 75.5198545,2.48518788 76.5540364,3.22846061 C77.5884606,3.97246061 78.1057939,5.08130909 78.1057939,6.55476364 C78.1057939,7.48785455 77.8587636,8.28591515 77.3654303,8.94797576 C76.8716121,9.61052121 76.1450667,10.1043394 75.1850667,10.4284606" id="Fill-19"></path>
            </g>
        </g>
    </g>
</svg>
