<?xml version="1.0" encoding="UTF-8"?>
<svg width="200px" viewBox="0 0 112 25" version="1.1" xmlns="http://www.w3.org/2000/svg" xmlns:xlink="http://www.w3.org/1999/xlink">
    <!-- Generator: Sketch 53.2 (72643) - https://sketchapp.com -->
    <title>photolock color</title>
    <desc>Created with Sketch.</desc>
    <g id="photolock-color" stroke="none" stroke-width="1" fill="none" fill-rule="evenodd">
        <g id="Group" transform="translate(0.500000, 0.500000)" fill="#7A2DC7" fill-rule="nonzero">
            <path d="M110.63412,16.989216 L108.51996,16.989216 C108.24828,16.536576 107.9346,16.074096 107.57916,15.601776 C107.22324,15.129216 106.85148,14.676576 106.46364,14.242896 C106.0758,13.809456 105.68052,13.411776 105.28044,13.049616 C104.8794,12.687216 104.4978,12.383376 104.13612,12.137376 L104.13612,16.989216 L102.3318,16.989216 L102.3318,2.239296 L104.13612,1.928976 L104.13612,11.128176 C104.44596,10.817616 104.78868,10.474896 105.1638,10.099296 C105.53868,9.724416 105.90756,9.342336 106.26972,8.954256 C106.63116,8.566176 106.9746,8.194176 107.29764,7.838736 C107.62044,7.482816 107.89908,7.169136 108.13212,6.897216 L110.24628,6.897216 C109.94892,7.220736 109.62588,7.576416 109.27668,7.964736 C108.92772,8.352816 108.56532,8.744256 108.18972,9.138816 C107.81508,9.533376 107.43684,9.928176 107.05548,10.322496 C106.67364,10.717536 106.31484,11.089296 105.97908,11.438496 C106.36668,11.736336 106.77708,12.105216 107.21004,12.544656 C107.64372,12.984576 108.0702,13.460256 108.49068,13.971456 C108.91068,14.482656 109.30884,14.999856 109.68348,15.524016 C110.05908,16.047936 110.37516,16.536576 110.63412,16.989216 M101.10924,15.203616 L101.36148,16.717776 C101.25828,16.782576 101.10924,16.843776 100.91556,16.901856 C100.7214,16.960176 100.50132,17.011776 100.25652,17.057136 C100.01004,17.102256 99.74844,17.141136 99.47052,17.173776 C99.19212,17.205696 98.92404,17.222256 98.66508,17.222256 C97.85076,17.222256 97.1358,17.092896 96.52188,16.833936 C95.90748,16.575216 95.3898,16.213056 94.97004,15.747216 C94.54932,15.281376 94.23612,14.728416 94.029,14.087616 C93.82188,13.447296 93.71844,12.739056 93.71844,11.962656 C93.71844,11.186256 93.8322,10.474896 94.05828,9.827616 C94.28412,9.181056 94.60404,8.621376 95.01828,8.149056 C95.43228,7.676736 95.9394,7.307856 96.54084,7.042656 C97.14228,6.777696 97.8114,6.644976 98.54916,6.644976 C99.00108,6.644976 99.45396,6.683616 99.9066,6.761136 C100.35924,6.838896 100.7922,6.962016 101.20644,7.130016 L100.7994,8.663376 C100.52772,8.534016 100.21428,8.430576 99.8586,8.352816 C99.50268,8.275296 99.12444,8.236176 98.7234,8.236176 C97.71468,8.236176 96.94188,8.553456 96.40548,9.187056 C95.86908,9.821376 95.60052,10.746336 95.60052,11.962656 C95.60052,12.506016 95.66172,13.004256 95.78508,13.457136 C95.90748,13.910016 96.1014,14.298336 96.36684,14.621616 C96.63132,14.944896 96.97092,15.194256 97.38516,15.368736 C97.79916,15.543456 98.30292,15.630816 98.8986,15.630816 C99.37668,15.630816 99.80964,15.585696 100.1982,15.494736 C100.58604,15.404496 100.88988,15.307536 101.10924,15.203616 M90.0618,14.650656 C89.55084,15.317136 88.85628,15.650016 87.97716,15.650016 C87.09732,15.650016 86.40252,15.317136 85.89156,14.650656 C85.38036,13.984416 85.12548,13.082016 85.12548,11.943456 C85.12548,10.804656 85.38036,9.902256 85.89156,9.235536 C86.40252,8.569776 87.09732,8.236176 87.97716,8.236176 C88.85628,8.236176 89.55084,8.569776 90.0618,9.235536 C90.573,9.902256 90.82884,10.804656 90.82884,11.943456 C90.82884,13.082016 90.573,13.984416 90.0618,14.650656 M91.38132,8.100336 C90.9606,7.634496 90.45996,7.275456 89.87844,7.023216 C89.29572,6.770976 88.66236,6.644976 87.97716,6.644976 C87.291,6.644976 86.65764,6.770976 86.07588,7.023216 C85.4934,7.275456 84.99276,7.634496 84.57204,8.100336 C84.15228,8.566176 83.82564,9.125856 83.59236,9.779136 C83.3598,10.432656 83.24316,11.154336 83.24316,11.943456 C83.24316,12.745536 83.3598,13.470096 83.59236,14.116896 C83.82564,14.764176 84.15228,15.320256 84.57204,15.786096 C84.99276,16.251936 85.4934,16.610976 86.07588,16.863216 C86.65764,17.115456 87.291,17.241456 87.97716,17.241456 C88.66236,17.241456 89.29572,17.115456 89.87844,16.863216 C90.45996,16.610976 90.9606,16.251936 91.38132,15.786096 C91.80108,15.320256 92.12796,14.764176 92.361,14.116896 C92.59356,13.470096 92.7102,12.745536 92.7102,11.943456 C92.7102,11.154336 92.59356,10.432656 92.361,9.779136 C92.12796,9.125856 91.80108,8.566176 91.38132,8.100336 M82.04028,15.524016 C82.23516,15.582336 82.4742,15.630816 82.7586,15.669456 L82.50636,17.183136 C81.39372,17.157216 80.60508,16.918176 80.13924,16.465056 C79.67412,16.012416 79.44084,15.307536 79.44084,14.349696 L79.44084,2.239296 L81.24516,1.928976 L81.24516,14.058816 C81.24516,14.356656 81.27132,14.601936 81.32316,14.796096 C81.37404,14.990016 81.45876,15.145296 81.5754,15.261936 C81.69108,15.378336 81.8466,15.465696 82.04028,15.524016 M75.261,14.650656 C74.75004,15.317136 74.05524,15.650016 73.17636,15.650016 C72.29628,15.650016 71.60148,15.317136 71.09052,14.650656 C70.57956,13.984416 70.32444,13.082016 70.32444,11.943456 C70.32444,10.804656 70.57956,9.902256 71.09052,9.235536 C71.60148,8.569776 72.29628,8.236176 73.17636,8.236176 C74.05524,8.236176 74.75004,8.569776 75.261,9.235536 C75.77196,9.902256 76.02804,10.804656 76.02804,11.943456 C76.02804,13.082016 75.77196,13.984416 75.261,14.650656 M76.58028,8.100336 C76.1598,7.634496 75.65916,7.275456 75.0774,7.023216 C74.49492,6.770976 73.86132,6.644976 73.17636,6.644976 C72.4902,6.644976 71.85684,6.770976 71.27508,7.023216 C70.6926,7.275456 70.19172,7.634496 69.77124,8.100336 C69.35052,8.566176 69.02436,9.125856 68.79132,9.779136 C68.559,10.432656 68.44236,11.154336 68.44236,11.943456 C68.44236,12.745536 68.559,13.470096 68.79132,14.116896 C69.02436,14.764176 69.35052,15.320256 69.77124,15.786096 C70.19172,16.251936 70.6926,16.610976 71.27508,16.863216 C71.85684,17.115456 72.4902,17.241456 73.17636,17.241456 C73.86132,17.241456 74.49492,17.115456 75.0774,16.863216 C75.65916,16.610976 76.1598,16.251936 76.58028,15.786096 C77.00028,15.320256 77.32692,14.764176 77.5602,14.116896 C77.79276,13.470096 77.90916,12.745536 77.90916,11.943456 C77.90916,11.154336 77.79276,10.432656 77.5602,9.779136 C77.32692,9.125856 77.00028,8.566176 76.58028,8.100336 M67.9962,15.164976 L68.3454,16.659456 C68.1642,16.750176 67.84764,16.863216 67.39476,16.999056 C66.94212,17.134656 66.42492,17.202816 65.84268,17.202816 C65.15772,17.202816 64.5918,17.115456 64.14588,16.940736 C63.69924,16.766256 63.3402,16.504176 63.06924,16.154496 C62.79732,15.805296 62.60628,15.375216 62.49684,14.864016 C62.38692,14.353056 62.33172,13.760976 62.33172,13.088256 L62.33172,4.082976 L64.13556,3.772416 L64.13556,6.897216 L67.95756,6.897216 L67.95756,8.410896 L64.13556,8.410896 L64.13556,13.069056 C64.13556,13.573296 64.17468,13.990656 64.2522,14.320416 C64.32972,14.650656 64.44612,14.909376 64.6014,15.096816 C64.75668,15.284496 64.9506,15.417216 65.1834,15.494736 C65.41644,15.572496 65.68764,15.611136 65.9982,15.611136 C66.54108,15.611136 66.97788,15.549936 67.3074,15.427056 C67.63764,15.304176 67.86684,15.216816 67.9962,15.164976 M58.22892,14.650656 C57.71796,15.317136 57.02316,15.650016 56.14356,15.650016 C55.2642,15.650016 54.56868,15.317136 54.05844,14.650656 C53.547,13.984416 53.29188,13.082016 53.29188,11.943456 C53.29188,10.804656 53.547,9.902256 54.05844,9.235536 C54.56868,8.569776 55.2642,8.236176 56.14356,8.236176 C57.02316,8.236176 57.71796,8.569776 58.22892,9.235536 C58.73964,9.902256 58.995,10.804656 58.995,11.943456 C58.995,13.082016 58.73964,13.984416 58.22892,14.650656 M59.5482,8.100336 C59.12772,7.634496 58.62684,7.275456 58.04436,7.023216 C57.4626,6.770976 56.829,6.644976 56.14356,6.644976 C55.45812,6.644976 54.82452,6.770976 54.24252,7.023216 C53.66028,7.275456 53.15916,7.634496 52.73916,8.100336 C52.31844,8.566176 51.99204,9.125856 51.75924,9.779136 C51.52668,10.432656 51.41004,11.154336 51.41004,11.943456 C51.41004,12.745536 51.52668,13.470096 51.75924,14.116896 C51.99204,14.764176 52.31844,15.320256 52.73916,15.786096 C53.15916,16.251936 53.66028,16.610976 54.24252,16.863216 C54.82452,17.115456 55.45812,17.241456 56.14356,17.241456 C56.829,17.241456 57.4626,17.115456 58.04436,16.863216 C58.62684,16.610976 59.12772,16.251936 59.5482,15.786096 C59.9682,15.320256 60.2946,14.764176 60.52764,14.116896 C60.76044,13.470096 60.87684,12.745536 60.87684,11.943456 C60.87684,11.154336 60.76044,10.432656 60.52764,9.779136 C60.2946,9.125856 59.9682,8.566176 59.5482,8.100336 M49.81932,9.439776 C49.94868,10.009056 50.01324,10.636416 50.01324,11.322336 L50.01324,16.989216 L48.2094,16.989216 L48.2094,11.710416 C48.2094,11.089296 48.1674,10.558656 48.0834,10.118736 C47.99916,9.679296 47.85996,9.323136 47.66604,9.051456 C47.47212,8.779536 47.2134,8.582496 46.89036,8.459616 C46.56684,8.336736 46.16604,8.275296 45.68772,8.275296 C45.4938,8.275296 45.29292,8.288016 45.08628,8.313936 C44.87916,8.340096 44.68164,8.369136 44.49444,8.401296 C44.307,8.433936 44.13876,8.469216 43.9902,8.508096 C43.84116,8.546736 43.73484,8.579136 43.6698,8.605056 L43.6698,16.989216 L41.8662,16.989216 L41.8662,2.239296 L43.6698,1.928976 L43.6698,7.091376 C44.00628,6.962016 44.36532,6.861696 44.74668,6.790176 C45.12804,6.719136 45.50628,6.683616 45.88164,6.683616 C46.68348,6.683616 47.349,6.796896 47.87964,7.023216 C48.40956,7.250016 48.83316,7.566576 49.1502,7.974096 C49.467,8.382096 49.68996,8.870496 49.81932,9.439776 M38.25828,13.408656 C38.1546,13.854576 37.9866,14.242896 37.75356,14.573136 C37.521,14.902896 37.22004,15.161856 36.85188,15.349296 C36.483,15.537216 36.03972,15.630816 35.523,15.630816 C35.03076,15.630816 34.57884,15.546576 34.16508,15.378336 C33.75084,15.210096 33.43428,15.035616 33.21444,14.854416 L33.21444,8.488416 C33.39516,8.437056 33.63804,8.391456 33.94188,8.352816 C34.24548,8.313936 34.66932,8.294496 35.21244,8.294496 C36.18228,8.294496 36.95844,8.611536 37.54044,9.245376 C38.12244,9.879696 38.41332,10.785456 38.41332,11.962656 C38.41332,12.480336 38.36148,12.962016 38.25828,13.408656 M38.9178,8.100336 C38.47788,7.647696 37.94772,7.298496 37.32732,7.052496 C36.7062,6.806736 36.0078,6.683616 35.23212,6.683616 C34.39092,6.683616 33.651,6.745056 33.01044,6.867936 C32.3706,6.991056 31.83708,7.104096 31.41012,7.207776 L31.41012,20.579616 L33.21444,20.579616 L33.21444,16.542816 C33.43428,16.685136 33.7674,16.833936 34.21332,16.989216 C34.65948,17.144496 35.1738,17.222256 35.75556,17.222256 C36.47964,17.222256 37.12308,17.092896 37.68588,16.833936 C38.24868,16.575216 38.72388,16.213056 39.11172,15.747216 C39.49932,15.281376 39.79356,14.725056 39.99444,14.078256 C40.1946,13.431216 40.29492,12.726336 40.29492,11.962656 C40.29492,11.147376 40.1754,10.413216 39.93612,9.759696 C39.69684,9.106656 39.35748,8.553456 38.9178,8.100336" id="Fill-54"></path>
            <path d="M15.60936,18.38328 C13.81776,18.38328 12.19464,17.64768 11.02608,16.4628 C11.32296,16.52304 11.62944,16.55472 11.94336,16.55472 C16.50744,16.55472 20.22072,12.84144 20.22072,8.27736 C20.22072,7.31736 20.05536,6.39528 19.75368,5.53728 C21.1872,7.28232 22.04928,9.51384 22.04928,11.94336 C22.04928,15.4944 19.1604,18.38328 15.60936,18.38328 M11.94336,22.04928 C8.39232,22.04928 5.50344,19.1604 5.50344,15.60936 C5.50344,13.81824 6.23928,12.19632 7.42368,11.02776 C7.36392,11.32368 7.332,11.62992 7.332,11.94336 C7.332,16.50744 11.04504,20.22072 15.60936,20.22072 C16.56912,20.22072 17.4912,20.0556 18.3492,19.75368 C16.6044,21.18744 14.37264,22.04928 11.94336,22.04928 M1.8372,11.94336 C1.8372,8.39256 4.72608,5.50344 8.27712,5.50344 C10.06872,5.50344 11.69112,6.23928 12.85968,7.42368 C12.56352,7.36368 12.25704,7.332 11.94336,7.332 C7.37928,7.332 3.666,11.04528 3.666,15.60936 C3.666,16.56936 3.83112,17.4912 4.13304,18.3492 C2.69928,16.6044 1.8372,14.37264 1.8372,11.94336 M14.71704,11.94336 C14.71704,13.47288 13.47288,14.71728 11.94336,14.71728 C10.41408,14.71728 9.16944,13.47288 9.16944,11.94336 C9.16944,10.41384 10.41408,9.16944 11.94336,9.16944 C13.47288,9.16944 14.71704,10.41384 14.71704,11.94336 M11.94336,1.83744 C15.4944,1.83744 18.38328,4.72632 18.38328,8.27736 C18.38328,10.06896 17.64744,11.6916 16.46304,12.85992 C16.52304,12.56352 16.55448,12.25728 16.55448,11.94336 C16.55448,7.37928 12.84144,3.666 8.27712,3.666 C7.31736,3.666 6.39552,3.83112 5.53752,4.1328 C7.28232,2.69928 9.51432,1.83744 11.94336,1.83744 M11.94336,1.77635684e-15 C5.35776,1.77635684e-15 -1.24344979e-14,5.35776 -1.24344979e-14,11.94336 C-1.24344979e-14,18.52896 5.35776,23.88672 11.94336,23.88672 C18.52896,23.88672 23.88672,18.52896 23.88672,11.94336 C23.88672,5.35776 18.52896,1.77635684e-15 11.94336,1.77635684e-15" id="Fill-55"></path>
        </g>
    </g>
</svg>
