<svg width="40px" height="40px" xmlns="http://www.w3.org/2000/svg" xmlns:xlink="http://www.w3.org/1999/xlink" viewBox="0 0 32.97 38.07"><defs><style>.cls-1{fill:none;}.cls-2{clip-path:url(#clip-path);}.cls-3{clip-path:url(#clip-path-3);}.cls-4{fill:#00bae2;}</style><clipPath id="clip-path" transform="translate(-0.04 -0.04)"><rect class="cls-1" width="33.06" height="38.16"/></clipPath><clipPath id="clip-path-3" transform="translate(-0.04 -0.04)"><rect class="cls-1" x="0.04" y="0.04" width="32.97" height="38.07"/></clipPath></defs><title>service-center-icon</title><g id="Layer_2" data-name="Layer 2"><g id="Layer_1-2" data-name="Layer 1"><g id="Artwork_42" data-name="Artwork 42"><g class="cls-2"><g class="cls-2"><g class="cls-3"><g class="cls-3"><polygon class="cls-4" points="32.97 24.75 32.97 28.56 29.68 30.46 29.68 26.65 32.97 24.75"/><polygon class="cls-4" points="32.97 20.94 32.97 24.75 29.68 26.65 29.68 22.84 32.97 20.94"/><polygon class="cls-4" points="32.97 17.13 32.97 20.94 29.68 22.84 29.68 19.04 32.97 17.13"/><polygon class="cls-4" points="32.97 13.33 32.97 17.13 29.68 19.04 29.68 15.23 32.97 13.33"/><polygon class="cls-4" points="32.97 9.52 32.97 13.33 29.68 15.23 29.68 11.42 32.97 9.52"/><polygon class="cls-4" points="29.68 26.65 29.68 30.46 26.38 32.36 26.38 28.56 29.68 26.65"/><polygon class="cls-4" points="29.68 11.42 29.68 15.23 26.38 17.13 26.38 13.33 29.68 11.42"/><polygon class="cls-4" points="29.68 7.62 26.38 9.52 23.08 7.62 26.38 5.71 29.68 7.62"/><polygon class="cls-4" points="26.38 28.56 26.38 32.36 23.08 34.27 23.08 30.46 26.38 28.56"/><polygon class="cls-4" points="26.38 20.94 26.38 24.75 23.08 26.65 23.08 22.84 26.38 20.94"/><polygon class="cls-4" points="26.38 17.13 26.38 20.94 23.08 22.84 23.08 19.04 26.38 17.13"/><polygon class="cls-4" points="26.38 13.33 26.38 17.13 23.08 19.04 23.08 15.23 26.38 13.33"/><polygon class="cls-4" points="26.38 5.71 23.08 7.62 19.78 5.71 23.08 3.81 26.38 5.71"/><polygon class="cls-4" points="26.38 13.33 23.08 15.23 19.78 13.33 23.08 11.42 26.38 13.33"/><polygon class="cls-4" points="23.08 30.46 23.08 34.27 19.79 36.17 19.79 32.36 23.08 30.46"/><polygon class="cls-4" points="23.08 22.84 23.08 26.65 19.79 28.56 19.79 24.75 23.08 22.84"/><polygon class="cls-4" points="19.79 9.52 23.08 11.42 19.78 13.33 16.49 11.42 19.79 9.52"/><polygon class="cls-4" points="23.08 3.81 19.78 5.71 16.49 3.81 19.79 1.9 23.08 3.81"/><polygon class="cls-4" points="19.79 24.75 19.79 28.56 16.49 30.46 16.49 26.65 19.79 24.75"/><polygon class="cls-4" points="19.79 17.13 19.79 20.94 16.49 22.84 16.49 19.04 19.79 17.13"/><polygon class="cls-4" points="19.79 1.9 16.49 3.81 13.19 1.9 16.49 0 19.79 1.9"/><polygon class="cls-4" points="19.79 9.52 16.49 11.42 13.19 9.52 16.49 7.62 19.79 9.52"/><polygon class="cls-4" points="19.79 17.13 16.49 19.04 13.19 17.13 16.49 15.23 19.79 17.13"/><polygon class="cls-4" points="16.49 34.27 16.49 38.08 13.19 36.17 13.19 32.36 16.49 34.27"/><polygon class="cls-4" points="16.49 30.46 16.49 34.27 13.19 32.36 13.19 28.56 16.49 30.46"/><polygon class="cls-4" points="16.49 26.65 16.49 30.46 13.19 28.56 13.19 24.75 16.49 26.65"/><polygon class="cls-4" points="16.49 19.04 16.49 22.84 13.19 20.94 13.19 17.13 16.49 19.04"/><polygon class="cls-4" points="16.49 3.81 13.19 5.71 9.89 3.81 13.19 1.9 16.49 3.81"/><polygon class="cls-4" points="16.49 11.42 13.19 13.33 9.89 11.42 13.19 9.52 16.49 11.42"/><polygon class="cls-4" points="13.19 5.71 9.89 7.62 6.59 5.71 9.89 3.81 13.19 5.71"/><polygon class="cls-4" points="13.19 13.33 9.89 15.23 6.59 13.33 9.89 11.42 13.19 13.33"/><polygon class="cls-4" points="13.19 32.36 13.19 36.17 9.89 34.27 9.89 30.46 13.19 32.36"/><polygon class="cls-4" points="13.19 24.75 13.19 28.56 9.89 26.65 9.89 22.84 13.19 24.75"/><polygon class="cls-4" points="9.89 30.46 9.89 34.27 6.59 32.36 6.59 28.56 9.89 30.46"/><polygon class="cls-4" points="9.89 22.84 9.89 26.65 6.59 24.75 6.59 20.94 9.89 22.84"/><polygon class="cls-4" points="9.89 19.04 9.89 22.84 6.59 20.94 6.59 17.13 9.89 19.04"/><polygon class="cls-4" points="9.89 15.23 9.89 19.04 6.59 17.13 6.59 13.33 9.89 15.23"/><polygon class="cls-4" points="9.89 7.62 6.6 9.52 3.3 7.62 6.59 5.71 9.89 7.62"/><polygon class="cls-4" points="9.89 11.42 6.59 13.33 3.3 11.42 6.6 9.52 9.89 11.42"/><polygon class="cls-4" points="6.6 9.52 3.3 11.42 0 9.52 3.3 7.62 6.6 9.52"/><polygon class="cls-4" points="6.59 28.56 6.59 32.36 3.3 30.46 3.3 26.65 6.59 28.56"/><polygon class="cls-4" points="3.3 26.65 3.3 30.46 0 28.56 0 24.75 3.3 26.65"/><polygon class="cls-4" points="3.3 22.84 3.3 26.65 0 24.75 0 20.94 3.3 22.84"/><polygon class="cls-4" points="3.3 19.04 3.3 22.84 0 20.94 0 17.13 3.3 19.04"/><polygon class="cls-4" points="3.3 15.23 3.3 19.04 0 17.13 0 13.33 3.3 15.23"/><polygon class="cls-4" points="3.3 11.42 3.3 15.23 0 13.33 0 9.52 3.3 11.42"/></g></g></g></g></g></g></g></svg>
