<?xml version="1.0" encoding="UTF-8"?>
<svg width="250px" viewBox="0 0 142 25" version="1.1" xmlns="http://www.w3.org/2000/svg" xmlns:xlink="http://www.w3.org/1999/xlink">
    <!-- Generator: Sketch 53.2 (72643) - https://sketchapp.com -->
    <title>todays offer color</title>
    <desc>Created with Sketch.</desc>
    <g id="todays-offer-color" stroke="none" stroke-width="1" fill="none" fill-rule="evenodd">
        <path d="M23.1085471,11.7479564 C22.935943,9.40260858 21.9551746,7.10620686 20.1657803,5.31672016 C16.4251002,1.57604004 10.4692873,1.36889659 6.48230683,4.69371984 L9.22153194,7.4330373 C9.77489956,7.10482159 10.4198794,6.9155019 11.1086337,6.9155019 L16.3541745,6.9155019 C17.5935259,6.91559425 18.758627,7.39812859 19.6349463,8.27435555 L23.1085471,11.7479564 Z M22.9873825,14.2389418 L18.3288251,9.58038439 C17.8014082,9.05296743 17.1000941,8.76252331 16.3540822,8.76252331 L11.1086337,8.76252331 C10.9388001,8.76252331 10.7750617,8.7872734 10.6186189,8.83003194 L11.7133485,9.92485389 C12.3320084,9.75954547 13.0197468,9.91737345 13.5041281,10.4018472 C14.2264059,11.1240325 14.2264059,12.2993846 13.5041281,13.0216623 C12.7818504,13.7439401 11.6065907,13.7439401 10.884313,13.0216623 C10.3999316,12.537281 10.2420113,11.8495425 10.4073197,11.2307904 L9.31249775,10.1361531 C9.26983155,10.2925035 9.24508146,10.4563343 9.24508146,10.6261679 L9.24508146,15.8716164 C9.24498911,16.6176283 9.53543323,17.3189424 10.0628502,17.8463593 L14.7214076,22.5048244 C16.7166525,22.160909 18.6283196,21.2205904 20.1657803,19.6832221 C21.7030562,18.1457615 22.6433748,16.2341867 22.9873825,14.2389418 L22.9873825,14.2389418 Z M12.2305145,22.625989 L8.7569137,19.1523882 C7.88050204,18.2760689 7.39806005,17.1108754 7.39806005,15.8716164 L7.39806005,10.6261679 C7.39806005,9.93750598 7.58728739,9.2923414 7.9155031,8.73906614 L5.17627799,5.99984103 C1.85136239,9.98682145 2.0585982,15.942542 5.79927832,19.6833145 C7.58867266,21.4727088 9.88516673,22.4534772 12.2305145,22.625989 L12.2305145,22.625989 Z M21.4717168,4.01078367 C26.1528078,8.69169004 26.1528078,16.3082522 21.4717168,20.989251 C16.790718,25.6702497 9.17424819,25.6702497 4.49324947,20.989251 C-0.187749245,16.3083446 -0.187749245,8.69178239 4.49324947,4.01078367 C9.17424819,-0.670307399 16.7908104,-0.670215048 21.4717168,4.01078367 L21.4717168,4.01078367 Z M140.799089,14.3698956 C140.653267,14.0321678 140.444738,13.7443095 140.173411,13.5059514 C139.901991,13.2675932 139.574237,13.0590645 139.190426,12.8803652 C138.806246,12.7015735 138.36924,12.5197343 137.879687,12.334201 C137.508805,12.2020466 137.191025,12.0760797 136.926347,11.9568545 C136.6613,11.8377216 136.439749,11.7086148 136.26105,11.5695341 C136.082351,11.4305457 135.949735,11.2751189 135.863756,11.1029765 C135.777592,10.9309264 135.734741,10.7323716 135.734741,10.507035 C135.734741,10.0701221 135.926462,9.74920215 136.310643,9.54381337 C136.694546,9.33870164 137.14485,9.2360996 137.661185,9.2360996 C138.256941,9.2360996 138.766535,9.2925261 139.190426,9.40482501 C139.61404,9.51749331 139.925263,9.62674463 140.123818,9.73248661 L140.461454,8.14377114 C140.355342,8.10406018 140.20638,8.05769994 140.014659,8.00469042 C139.822569,7.95195796 139.600649,7.90227309 139.349362,7.85572815 C139.097613,7.80955261 138.826101,7.76984165 138.53501,7.73659527 C138.243643,7.70362593 137.952275,7.68691039 137.661185,7.68691039 C136.495899,7.68691039 135.575805,7.9550979 134.900626,8.49128822 C134.225355,9.02747853 133.88772,9.75243444 133.88772,10.6658789 C133.88772,11.129666 133.967142,11.5199416 134.126078,11.8377216 C134.284922,12.1554093 134.49659,12.4271061 134.761638,12.651981 C135.026316,12.8773176 135.340587,13.0724554 135.705004,13.2378562 C136.06896,13.4036264 136.449723,13.5656101 136.846925,13.724454 C137.667742,14.0555326 138.256941,14.3534571 138.614525,14.6181353 C138.972016,14.8831829 139.150623,15.2405815 139.150623,15.6905159 C139.150623,16.1275212 138.968599,16.4452089 138.604551,16.643856 C138.240226,16.8424108 137.68104,16.9417806 136.926347,16.9417806 C136.158356,16.9417806 135.542651,16.8623587 135.079326,16.7034225 C134.615723,16.5445786 134.278088,16.4253534 134.066419,16.3460238 L133.728784,17.9347393 C133.914132,18.0142536 134.265066,18.1302465 134.781494,18.2823487 C135.297828,18.4343586 136.01281,18.5107329 136.926347,18.5107329 C138.237178,18.5107329 139.246575,18.2659102 139.955,17.7758031 C140.663149,17.2862501 141.0175,16.5644341 141.0175,15.6111864 C141.0175,15.1214486 140.944635,14.7075311 140.799089,14.3698956 L140.799089,14.3698956 Z M132.418322,7.83587267 C132.219675,7.80299569 132.017703,7.77630623 131.812591,7.75645075 C131.607203,7.73659527 131.425271,7.7267137 131.266427,7.7267137 C130.458632,7.7267137 129.730352,7.79616171 129.08177,7.93524242 C128.433004,8.07423078 127.890257,8.22310071 127.453251,8.3820369 L127.453251,18.2723748 L129.300273,18.2723748 L129.300273,9.5935906 C129.406107,9.56717819 129.627934,9.51749331 129.96557,9.44462832 C130.303113,9.37185567 130.643888,9.33528465 130.988358,9.33528465 C131.517807,9.33528465 131.95158,9.37185567 132.289215,9.44462832 C132.626851,9.51749331 132.868256,9.58038439 133.014079,9.63330156 L133.331859,8.0245459 C133.252437,7.9981335 133.129887,7.96839645 132.964486,7.93524242 C132.798716,7.90227309 132.616877,7.8690267 132.418322,7.83587267 L132.418322,7.83587267 Z M123.858763,12.1156983 C123.871784,11.2816758 123.663256,10.5964309 123.233177,10.0602406 C122.802728,9.52395789 122.210389,9.25595508 121.455696,9.25595508 C121.031804,9.25595508 120.657875,9.33870164 120.333538,9.50410241 C120.009016,9.66987258 119.734364,9.88486587 119.509397,10.149544 C119.28406,10.4145916 119.108778,10.7189807 118.982996,11.0631732 C118.857121,11.4075503 118.774559,11.7582073 118.734849,12.1156983 L123.858763,12.1156983 Z M124.673022,8.98776757 C125.414324,9.85512883 125.785206,11.1758415 125.785206,12.9499056 L125.785206,13.2577117 C125.785206,13.3837709 125.77828,13.4994868 125.765351,13.6052288 L118.695045,13.6052288 C118.774559,14.6777941 119.085506,15.4919611 119.62853,16.0480993 C120.171277,16.6041451 121.018691,16.8822141 122.170678,16.8822141 C122.819167,16.8822141 123.365331,16.8259723 123.809078,16.7134887 C124.252548,16.6010975 124.586766,16.4917538 124.812103,16.3857348 L125.070224,17.9347393 C124.84498,18.0539645 124.451103,18.179839 123.888592,18.3120858 C123.32562,18.4443325 122.687013,18.5107329 121.972031,18.5107329 C121.071515,18.5107329 120.293827,18.3748845 119.638411,18.1035571 C118.982996,17.8324143 118.443481,17.4582078 118.019867,16.9814915 C117.595975,16.5048677 117.281612,15.938848 117.0765,15.2834324 C116.871019,14.6281092 116.768694,13.9099873 116.768694,13.1286049 C116.768694,12.2151604 116.900849,11.4175242 117.165896,10.7355116 C117.430574,10.0536836 117.781601,9.48766392 118.218421,9.03745245 C118.655334,8.58742568 119.158463,8.24979017 119.727807,8.0245459 C120.296967,7.7995787 120.879702,7.68691039 121.475551,7.68691039 C122.865712,7.68691039 123.931351,8.12077572 124.673022,8.98776757 L124.673022,8.98776757 Z M113.035218,5.15473638 C113.37941,4.68494649 113.981631,4.44972831 114.842436,4.44972831 C115.26605,4.44972831 115.623541,4.48629933 115.915001,4.55897963 C116.205999,4.63184462 116.431243,4.7079419 116.59018,4.78736382 L116.927815,3.198556 C116.768971,3.13243264 116.49395,3.05956764 116.103674,2.98005337 C115.712937,2.90063145 115.246194,2.86101284 114.703447,2.86101284 C113.313287,2.86101284 112.293546,3.22182847 111.644964,3.94327504 C110.996106,4.66509101 110.671861,5.68787911 110.671861,7.01173171 L110.671861,18.2723748 L112.51879,18.2723748 L112.51879,9.49422084 L116.490902,9.49422084 L116.490902,7.94512398 L112.51879,7.94512398 L112.51879,7.05144267 C112.51879,6.25703876 112.69084,5.62480333 113.035218,5.15473638 L113.035218,5.15473638 Z M106.957963,2.86101284 C105.567802,2.86101284 104.548154,3.22182847 103.89948,3.94327504 C103.250714,4.66509101 102.926377,5.68787911 102.926377,7.01173171 L102.926377,18.2723748 L104.773398,18.2723748 L104.773398,9.49422084 L108.745418,9.49422084 L108.745418,7.94512398 L104.773398,7.94512398 L104.773398,7.05144267 C104.773398,6.25703876 104.945264,5.62480333 105.289733,5.15473638 C105.633833,4.68494649 106.236239,4.44972831 107.097044,4.44972831 C107.520566,4.44972831 107.878057,4.48629933 108.169517,4.55897963 C108.460515,4.63184462 108.685851,4.7079419 108.844695,4.78736382 L109.182331,3.198556 C109.023487,3.13243264 108.748558,3.05956764 108.35819,2.98005337 C107.967453,2.90063145 107.50071,2.86101284 106.957963,2.86101284 L106.957963,2.86101284 Z M99.391455,13.1087494 C99.391455,11.943833 99.1298244,11.0203223 98.6069327,10.3382173 C98.0837639,9.65657403 97.3721989,9.31542917 96.4719606,9.31542917 C95.5714453,9.31542917 94.8598803,9.65657403 94.3369886,10.3382173 C93.8138198,11.0203223 93.5524662,11.943833 93.5524662,13.1087494 C93.5524662,14.2740352 93.8138198,15.1975459 94.3369886,15.8791892 C94.8598803,16.5613865 95.5714453,16.902162 96.4719606,16.902162 C97.3721989,16.902162 98.0837639,16.5613865 98.6069327,15.8791892 C99.1298244,15.1975459 99.391455,14.2740352 99.391455,13.1087494 L99.391455,13.1087494 Z M100.960407,10.8943554 C101.198673,11.5630695 101.317806,12.301324 101.317806,13.1087494 C101.317806,13.9298428 101.198673,14.6712372 100.960407,15.3330249 C100.722049,15.9953668 100.387554,16.5644341 99.9574747,17.041058 C99.5270264,17.5177742 99.0141085,17.8851468 98.4182594,18.143268 C97.8225027,18.401574 97.1735517,18.5305884 96.4719606,18.5305884 C95.7700001,18.5305884 95.1214186,18.401574 94.5256618,18.143268 C93.9298127,17.8851468 93.4165255,17.5177742 92.9864465,17.041058 C92.5560905,16.5644341 92.221872,15.9953668 91.9836062,15.3330249 C91.7452481,14.6712372 91.6261152,13.9298428 91.6261152,13.1087494 C91.6261152,12.301324 91.7452481,11.5630695 91.9836062,10.8943554 C92.221872,10.2260107 92.5560905,9.65306468 92.9864465,9.17644081 C93.4165255,8.69981693 93.9298127,8.33244437 94.5256618,8.07423078 C95.1214186,7.81601719 95.7700001,7.68691039 96.4719606,7.68691039 C97.1735517,7.68691039 97.8225027,7.81601719 98.4182594,8.07423078 C99.0141085,8.33244437 99.5270264,8.69981693 99.9574747,9.17644081 C100.387554,9.65306468 100.722049,10.2260107 100.960407,10.8943554 L100.960407,10.8943554 Z M86.3931342,13.5059514 C86.121622,13.2675932 85.7938681,13.0590645 85.410057,12.8803652 C85.0258766,12.7015735 84.5889637,12.5197343 84.0993183,12.334201 C83.7284364,12.2020466 83.4107487,12.0760797 83.1460705,11.9568545 C82.8809306,11.8377216 82.6593804,11.7086148 82.4806811,11.5695341 C82.3019817,11.4305457 82.1693656,11.2751189 82.0834791,11.1029765 C81.9972232,10.9309264 81.9543723,10.7323716 81.9543723,10.507035 C81.9543723,10.0701221 82.1460931,9.74920215 82.5303659,9.54381337 C82.914177,9.33870164 83.3644808,9.2360996 83.880908,9.2360996 C84.4766648,9.2360996 84.9861656,9.2925261 85.410057,9.40482501 C85.8336714,9.51749331 86.1448945,9.62674463 86.3435417,9.73248661 L86.6810848,8.14377114 C86.5749734,8.10406018 86.4260112,8.05769994 86.2342903,8.00469042 C86.0422001,7.95195796 85.8203728,7.90227309 85.5689932,7.85572815 C85.3172442,7.80955261 85.0457321,7.76984165 84.7547338,7.73659527 C84.4632739,7.70362593 84.1719062,7.68691039 83.880908,7.68691039 C82.7155298,7.68691039 81.7955285,7.9550979 81.1202574,8.49128822 C80.4450788,9.02747853 80.1073509,9.75243444 80.1073509,10.6658789 C80.1073509,11.129666 80.1868652,11.5199416 80.345709,11.8377216 C80.5045529,12.1554093 80.7162215,12.4271061 80.9812691,12.651981 C81.2459473,12.8773176 81.5603103,13.0724554 81.9246353,13.2378562 C82.2885908,13.4036264 82.6693543,13.5656101 83.0665563,13.724454 C83.8873726,14.0555326 84.4766648,14.3534571 84.8341558,14.6181353 C85.1916467,14.8831829 85.3703461,15.2405815 85.3703461,15.6905159 C85.3703461,16.1275212 85.1882298,16.4452089 84.8241818,16.643856 C84.4598569,16.8424108 83.9006711,16.9417806 83.1460705,16.9417806 C82.3779867,16.9417806 81.7622821,16.8623587 81.2990491,16.7034225 C80.8353544,16.5445786 80.4978112,16.4253534 80.2861426,16.3460238 L79.9485071,17.9347393 C80.1337633,18.0142536 80.4846974,18.1302465 81.0011246,18.2823487 C81.5174594,18.4343586 82.2324414,18.5107329 83.1460705,18.5107329 C84.4568093,18.5107329 85.4662988,18.2659102 86.1747239,17.7758031 C86.8827796,17.2862501 87.2371306,16.5644341 87.2371306,15.6111864 C87.2371306,15.1214486 87.1642656,14.7075311 87.0187203,14.3698956 C86.872898,14.0321678 86.6643693,13.7443095 86.3931342,13.5059514 L86.3931342,13.5059514 Z M80.9219797,4.21146255 C80.9349088,4.07921581 80.9417428,3.94327504 80.9417428,3.80428668 L80.9417428,3.37725533 L78.9160221,3.37725533 C78.9290436,3.52307767 78.9390175,3.67213229 78.9458515,3.82414216 C78.9523161,3.97652142 78.9558254,4.11892677 78.9558254,4.25108116 C78.9558254,4.76750834 78.886285,5.3204142 78.7472967,5.90942933 C78.608216,6.49872151 78.3996873,7.09106128 78.1216182,7.68691039 L79.5515822,8.14377114 C79.9090732,7.54792203 80.2135546,6.91577895 80.465119,6.2471572 C80.7164986,5.5786278 80.8688778,4.90003213 80.9219797,4.21146255 L80.9219797,4.21146255 Z M73.9511362,12.1554093 C73.5803466,13.5193423 73.1434337,14.8962044 72.6403974,16.2864574 C72.3226174,15.6111864 72.0179512,14.9095029 71.7267683,14.1812224 C71.4354007,13.4532189 71.1638885,12.724846 70.9126013,11.9965655 C70.6608522,11.2686543 70.4325604,10.5602293 70.2273563,9.87156732 C70.0218752,9.18327479 69.8465928,8.54088074 69.7011399,7.94512398 L67.7150378,7.94512398 C68.1916617,9.77219757 68.7905584,11.5764604 69.5124667,13.3570814 C70.2338209,15.1378871 71.0118787,16.8225554 71.8459935,18.4114555 C71.5148226,19.139459 71.144033,19.6657678 70.7338096,19.9902894 C70.3232167,20.3146264 69.7538724,20.4769796 69.0257765,20.4769796 C68.8005323,20.4769796 68.5721481,20.4470578 68.3406239,20.3874914 C68.1088227,20.3279249 67.9201495,20.2650339 67.7746042,20.1988181 L67.4369687,21.6883486 C67.4897012,21.714761 67.579097,21.747915 67.7050639,21.7877183 C67.830846,21.8274293 67.9698344,21.8636309 68.1222137,21.8968773 C68.2742235,21.9298466 68.4300198,21.9565361 68.588956,21.9763916 C68.7477075,21.996247 68.8998097,22.0061286 69.0457244,22.0061286 C69.5884716,22.0061286 70.074977,21.9397282 70.5054254,21.8075738 C70.9355043,21.6749577 71.3227324,21.4698459 71.6672942,21.1918692 C72.0113019,20.9138001 72.3257573,20.5594491 72.6106604,20.1293701 C72.895194,19.6990142 73.1697538,19.186004 73.4348013,18.5902472 C74.1100724,17.0280365 74.7387061,15.3498328 75.3215337,13.5556362 C75.9039919,11.7616243 76.4337177,9.89133045 76.9103415,7.94512398 L75.0037537,7.94512398 C74.6726751,9.38838652 74.3216487,10.7919381 73.9511362,12.1554093 L73.9511362,12.1554093 Z M65.411525,13.724454 C65.2790936,13.6583306 65.0640079,13.6021812 64.7660834,13.5556362 C64.4682512,13.5093683 64.1072509,13.4860959 63.6836365,13.4860959 C63.4056598,13.4860959 63.1108752,13.5059514 62.7999291,13.5457547 C62.488706,13.5853733 62.20408,13.6682122 61.9459588,13.793902 C61.6877452,13.9199612 61.4723825,14.0919189 61.3005171,14.3103292 C61.1282824,14.5287395 61.0423035,14.8166901 61.0423035,15.1742734 C61.0423035,15.8364306 61.2539722,16.296339 61.6778636,16.5545525 C62.101478,16.8126738 62.6773792,16.9417806 63.4056598,16.9417806 C63.8425727,16.9417806 64.2298007,16.931899 64.5675286,16.9120435 C64.9050718,16.8921881 65.1862808,16.8558017 65.411525,16.8026999 L65.411525,13.724454 Z M67.0201883,10.0403851 C67.1524351,10.5238429 67.2188355,11.0566163 67.2188355,11.6390745 L67.2188355,18.0936755 C67.0598993,18.120365 66.838072,18.1566589 66.5535384,18.2029268 C66.2686353,18.2494717 65.9477153,18.2922303 65.5903167,18.3319413 C65.2328257,18.3717446 64.8455053,18.4080385 64.4284479,18.4412849 C64.0113904,18.4740696 63.5974729,18.4908774 63.1871571,18.4908774 C62.6044219,18.4908774 62.0681392,18.431311 61.5784938,18.3120858 C61.0885714,18.1929529 60.664957,18.0042797 60.3074661,17.7460661 C59.9499751,17.4879448 59.671906,17.1472617 59.4733512,16.7233703 C59.274704,16.2996636 59.1754266,15.789978 59.1754266,15.1940366 C59.1754266,14.6248769 59.2912349,14.1350468 59.5230361,13.724454 C59.7545602,13.3141382 60.0692003,12.9831519 60.4664022,12.7314029 C60.8635119,12.4801157 61.3268372,12.29449 61.8565629,12.1753571 C62.3860116,12.0562242 62.9420574,11.9965655 63.524885,11.9965655 C63.7101413,11.9965655 63.9022315,12.0065394 64.1007863,12.0264872 C64.2993411,12.0462503 64.4880143,12.0730321 64.666806,12.1058168 C64.8455053,12.1389708 65.0010245,12.1688002 65.1335483,12.1952126 C65.2657027,12.2219021 65.3584232,12.2417575 65.411525,12.254779 L65.411525,11.7383519 C65.411525,11.4339627 65.378371,11.1327135 65.3122476,10.8346966 C65.2457549,10.5369568 65.126622,10.2721863 64.9547566,10.0403851 C64.7825219,9.80886094 64.5476731,9.62332764 64.2496562,9.48424693 C63.951824,9.34516622 63.5645036,9.27571821 63.0878797,9.27571821 C62.4788244,9.27571821 61.9459588,9.31884616 61.4891904,9.40482501 C61.0323296,9.49117326 60.6913695,9.58038439 60.4664022,9.67292016 L60.2478996,8.14377114 C60.4861654,8.03784446 60.8833673,7.93524242 61.4395055,7.83587267 C61.9955513,7.73659527 62.5979573,7.68691039 63.2468159,7.68691039 C63.988118,7.68691039 64.6137041,7.78314021 65.1235744,7.97495338 C65.6331676,8.16704361 66.0436681,8.4384634 66.3548912,8.78912042 C66.6658373,9.14014684 66.8877569,9.55711192 67.0201883,10.0403851 L67.0201883,10.0403851 Z M55.8788628,10.1297809 C55.6535262,9.94452466 55.3293739,9.76573299 54.9057596,9.5935906 C54.4818682,9.4216329 54.0185428,9.33528465 53.5155066,9.33528465 C52.9858732,9.33528465 52.5324294,9.43151447 52.1549906,9.62332764 C51.7777365,9.81541787 51.4699303,10.0800037 51.2315722,10.4177315 C50.9932141,10.7553671 50.8209794,11.155986 50.7152374,11.619219 C50.6090337,12.0829137 50.5563012,12.5793931 50.5563012,13.1087494 C50.5563012,14.3137462 50.8542258,15.2438138 51.4500749,15.8990446 C52.0458316,16.5545525 52.8402355,16.8822141 53.8331942,16.8822141 C54.3363229,16.8822141 54.756705,16.8592187 55.0944328,16.8126738 C55.4320683,16.7664983 55.6933295,16.7168134 55.8788628,16.6637115 L55.8788628,10.1297809 Z M55.8788628,3.17860817 L57.7258842,2.86101284 L57.7258842,17.9745426 C57.3019928,18.0936755 56.7592456,18.2129007 56.0973654,18.3319413 C55.4351159,18.4511665 54.6739584,18.5107329 53.8133388,18.5107329 C53.0190272,18.5107329 52.3040452,18.3847661 51.6684851,18.1333865 C51.0329251,17.8820992 50.4899008,17.5246082 50.0399664,17.0609135 C49.5896625,16.5976805 49.2421455,16.0316608 48.9973228,15.3629467 C48.752223,14.6945096 48.6299502,13.9429566 48.6299502,13.1087494 C48.6299502,12.3143455 48.7322752,11.586342 48.9377563,10.9241848 C49.1427757,10.2622123 49.4442096,9.69277565 49.8414116,9.21615177 C50.2386135,8.73952789 50.725119,8.3690154 51.3010202,8.10406018 C51.8771062,7.83928966 52.5355694,7.70676587 53.2771484,7.70676587 C53.8729976,7.70676587 54.399214,7.78628014 54.8560747,7.94512398 C55.3128431,8.10406018 55.6535262,8.25634709 55.8788628,8.40189238 L55.8788628,3.17860817 Z M45.6708372,13.1087494 C45.6708372,11.943833 45.4092066,11.0203223 44.8862225,10.3382173 C44.3630537,9.65657403 43.6514887,9.31542917 42.7513428,9.31542917 C41.8507352,9.31542917 41.1392625,9.65657403 40.6163708,10.3382173 C40.093202,11.0203223 39.8318484,11.943833 39.8318484,13.1087494 C39.8318484,14.2740352 40.093202,15.1975459 40.6163708,15.8791892 C41.1392625,16.5613865 41.8507352,16.902162 42.7513428,16.902162 C43.6514887,16.902162 44.3630537,16.5613865 44.8862225,15.8791892 C45.4092066,15.1975459 45.6708372,14.2740352 45.6708372,13.1087494 L45.6708372,13.1087494 Z M47.2397896,10.8943554 C47.4780553,11.5630695 47.5971882,12.301324 47.5971882,13.1087494 C47.5971882,13.9298428 47.4780553,14.6712372 47.2397896,15.3330249 C47.0014314,15.9953668 46.6669359,16.5644341 46.2367646,17.041058 C45.8063162,17.5177742 45.2934907,17.8851468 44.6975493,18.143268 C44.1017925,18.401574 43.4529339,18.5305884 42.7513428,18.5305884 C42.0493823,18.5305884 41.4008008,18.401574 40.805044,18.143268 C40.2091949,17.8851468 39.6959076,17.5177742 39.2658287,17.041058 C38.8354727,16.5644341 38.5012542,15.9953668 38.2629884,15.3330249 C38.0246303,14.6712372 37.9054974,13.9298428 37.9054974,13.1087494 C37.9054974,12.301324 38.0246303,11.5630695 38.2629884,10.8943554 C38.5012542,10.2260107 38.8354727,9.65306468 39.2658287,9.17644081 C39.6959076,8.69981693 40.2091949,8.33244437 40.805044,8.07423078 C41.4008008,7.81601719 42.0493823,7.68691039 42.7513428,7.68691039 C43.4529339,7.68691039 44.1017925,7.81601719 44.6975493,8.07423078 C45.2934907,8.33244437 45.8063162,8.69981693 46.2367646,9.17644081 C46.6669359,9.65306468 47.0014314,10.2260107 47.2397896,10.8943554 L47.2397896,10.8943554 Z M37.4486367,16.4055903 L37.8060353,17.9347393 C37.6205944,18.0275521 37.2962574,18.143268 36.8329321,18.2823487 C36.3694221,18.4214294 35.839881,18.4908774 35.2441243,18.4908774 C34.5422561,18.4908774 33.9631226,18.401574 33.5064465,18.2227823 C33.0496781,18.044083 32.6822132,17.7758031 32.4041442,17.4184045 C32.1261674,17.0609135 31.9305679,16.620953 31.8183613,16.0977842 C31.7056007,15.5748 31.6494512,14.9690694 31.6494512,14.2805921 L31.6494512,5.0654329 L33.4963803,4.74765286 L33.4963803,7.94512398 L37.4089257,7.94512398 L37.4089257,9.49422084 L33.4963803,9.49422084 L33.4963803,14.2606443 C33.4963803,14.7769791 33.5361836,15.2040105 33.6156055,15.541646 C33.6951198,15.8791892 33.8142527,16.1442367 33.9731888,16.3361423 C34.1319403,16.5281401 34.3305875,16.6637115 34.5689456,16.7432258 C34.8072114,16.8225554 35.0852804,16.8623587 35.4030605,16.8623587 C35.9591063,16.8623587 36.4059931,16.7996523 36.7436286,16.6736854 C37.0812641,16.548088 37.3161129,16.4585998 37.4486367,16.4055903 L37.4486367,16.4055903 Z" id="Fill-1" fill="#FC5249"></path>
    </g>
</svg>
