<svg xmlns="http://www.w3.org/2000/svg" viewBox="0 0 916.65 839.94"><defs><style>.cls-1{fill:#9be202;}.cls-2{fill:#51495b;}.cls-3{fill:#ffcaa6;}.cls-4{fill:#f15f46;}.cls-5{fill:#443d4f;}.cls-6{fill:#efe6e8;}.cls-7{fill:#f2b186;}.cls-8{fill:#e0d5d8;}.cls-9{fill:#a4e1ff;}</style></defs><title>error</title><g id="Layer_2" data-name="Layer 2"><g id="_ÎÓÈ_3" data-name="—ÎÓÈ_3"><path class="cls-1" d="M444.38,757.88H518.2s40.62-4.5,40.22-31.51-51.85-53.23-127-53-104.34,40.47-103,57.34,14.6,27.15,44.46,27.15Z"/><path class="cls-2" d="M688.15,670.82H744s30.75-3.4,30.44-23.85-39.24-40.29-96.1-40.1-79,30.64-78,43.4,11.05,20.55,33.64,20.55Z"/><path class="cls-2" d="M117.35,620.62h55.87s30.75-3.4,30.44-23.85-39.24-40.29-96.11-40.1-79,30.64-77.95,43.4,11,20.55,33.64,20.55Z"/><path class="cls-2" d="M87.79,776h55.87s30.74-3.41,30.44-23.85S134.86,711.85,78,712s-79,30.64-78,43.4S11.08,776,33.68,776Z"/><path class="cls-2" d="M830.34,839.94h55.87s30.74-3.41,30.44-23.85S877.41,775.8,820.54,776s-79,30.63-78,43.4,11,20.55,33.65,20.55Z"/><path class="cls-3" d="M294.2,208.61s-7,10.18-15.65,40.58-11.73,38.88-23.67,71.3-40.67,86.15-40.67,86.15l10.91,6.82s39.79-55.16,62.74-94.75S328,242.29,328,242.29,324.92,230.51,294.2,208.61Z"/><path class="cls-3" d="M214.21,406.64s-15.88,6.84-21.16,12.05-11.88,21.59-10.58,21.95,0,3.85,1.25,3.35S194.9,433.13,202,429.32s20.16-11.65,23.16-15.86S214.21,406.64,214.21,406.64Z"/><path class="cls-4" d="M245.2,52.46S222.11,36.38,194,48.17s-38.6,37.52-47.61,58.53S114.63,134.52,105,119.09,73.17,94.58,55.21,106.85,38.62,148,52.43,164.77s33.16,7.85,52.35,17,27.88,39.7,76.7,42.84,53.13-31.08,79.48-36.47,49.92-23.64,54-57.2-24-49.23-33.58-53.68S277.47,49.77,245.2,52.46Z"/><path class="cls-5" d="M740.26,362a9.64,9.64,0,0,1,5.89-2.51c3.41-.08,15,12.84,19.58,20.16s6.91,14.56,5.87,17.69-6.51.34-13.25-8.3A193.37,193.37,0,0,0,744.7,373.5Z"/><path class="cls-5" d="M447.26,688.48s.43,7.15-.66,10.46-14.83,22.23-23.07,30.69-13.72,7.09-13.06,1S423,709.73,423,709.73Z"/><path class="cls-6" d="M299.48,200.89s21.67,23.62,39.19,1.08-6.31-50.46-6.31-50.46l11.49-17.15s54.85,34.92,84.63,59.71,70.21,62.26,70.21,62.26-1.38,17.51-34.73,36-45.77,15.4-45.77,15.4-3.67-23.08-13-32.41-30.69-16.09-33.06-14.7-18.81,7.72-30.51-1.36-21.12-23.58-29.43-32.61a190.88,190.88,0,0,0-18.63-17.25Z"/><path class="cls-3" d="M432.08,347.82s-12.42,113.68-11.28,160,12.64,183.11,12.64,183.11l13.82-2.45s15.09-63.09,19.11-96.44-2.12-73.11-.52-81.27,26.2-145.53,26.2-145.53Z"/><path class="cls-3" d="M545.37,427.77s48.71,59.88,64.27,57.82c24-3.16,132.91-111.83,132.91-111.83L737,363.71s-59.76,27.58-87.83,45.51-26.9,20.62-33.38,22.75-8.71-22-47.14-65.22C572.12,401.76,545.37,427.77,545.37,427.77Z"/><path class="cls-3" d="M433.44,690.93a187.77,187.77,0,0,1-14.3,24.67c-9.12,13.37.15,13.66,11.35,0,12.29-14.95,16.77-27.16,16.77-27.16Z"/><path class="cls-3" d="M742.55,373.76a21.31,21.31,0,0,1,7.81,5.34c3.8,4,9.64,10.95,11.1,9.78s.12-7.36-7.69-17.5-9.33-12.09-16.8-7.67C738.12,374.58,742.55,373.76,742.55,373.76Z"/><path class="cls-7" d="M580.58,466.4a107,107,0,0,1,10.72-19.83c7.22-10.61,23-14.6,23-14.6l-6-6.29-49.82,17.63Z"/><path class="cls-7" d="M465.6,516.76s-5.87-10.83-23.45-10.31-20.89,14.24-20.89,14.24l-.73-32.42,10.63-11.67,35.91-16,7.28,3.22-8.61,47.62Z"/><path class="cls-6" d="M477,236.49s28.66,20.21,59.89,55.28,67.64,95.5,80.39,106.36,4,31.08-34,40.58-126.82,21.67-161.12,49.07S375,546.65,341.39,555.3s-57.08-24.89-49.62-65.45S347.92,430.12,361,406.3s26.31-78.92,64.37-110.75S477,236.49,477,236.49Z"/><path class="cls-3" d="M299.48,200.89s3.4-7.75,3.56-12.3-22.24-15.87-22.24-15.87,14.27-21.75,14.6-21.2S317,165.15,319.23,165s13.56-14.12,13.56-14.12S365,178.65,341.37,206,299.48,200.89,299.48,200.89Z"/><path class="cls-7" d="M283.6,174.19a34.51,34.51,0,0,0,11.14-7.39c4.68-4.91,5.54-12.09,5.54-12.09l5.64,3.41a39.63,39.63,0,0,1-1.27,13.57,32.33,32.33,0,0,1-5.93,11.78Z"/><path class="cls-8" d="M336.84,255.2s12,18.53,40.46-12.95-5.78-84.65-5.78-84.65l7-.32s60.95,38.63,98.5,79.21c-33-20.66-64.66-9.26-73.53,3.47S409,280.37,409,280.37s-11.91-11.21-22.2-14.49-14.52-3.71-18.82-2S351.58,274.94,336.84,255.2Z"/><path class="cls-8" d="M417.26,303s-26.76,40.66-31.95,71.54-7.68,46.08-22.16,68.31-20.4,44.65-2.62,61.66,37.26,6.29,37.26,6.29-14,22.48-38.47,38-48.63,12.73-62.68-13-10.57-52.5,5.59-72.86,45.91-38.74,54.79-52.8,19.08-47,33.22-71.43S417.26,303,417.26,303Z"/><path class="cls-3" d="M220,144.25c22.12,27.29,56.7,42,73,27.57s8.11-52.45-14-79.73S229.19,58.61,212.91,73,197.9,117,220,144.25Z"/><path class="cls-4" d="M249.19,79.19s2.21,10-7.29,22.21-20.54,25.44-20,36.58,19.38,26.15,19.38,26.15-48.65-18.66-50.5-47.64S208.24,60,231.31,59.78,279.59,80.65,288,95.43s7,23.62,7,23.62a28.79,28.79,0,0,0-14.17-17.74C269,94.77,257.4,93.52,249.19,79.19Z"/><path class="cls-3" d="M343.85,134.36s9.79-7.57,39.68-17.82,65.58-24,97.31-37.61,83.83-45.26,83.83-45.26l7.4,10.53S519.14,86.9,480.84,112s-92.45,52.18-92.45,52.18S367.38,163.85,343.85,134.36Z"/><path class="cls-3" d="M564.67,33.67s6-16.23,10.89-21.78,20.93-13,21.35-11.74,3.85-.22,3.42,1.06-10.25,11.75-13.67,19S576.11,41,572.07,44.2,564.67,33.67,564.67,33.67Z"/><path class="cls-2" d="M263.77,105.53S250.55,120.66,240.4,130s-19.91,11.11-18,16.29,16.77,21.72,26,20.93c9-.77,31.74-24.72,36.81-33.57s2.28-17.59-3.65-26.18S268.06,100.72,263.77,105.53Z"/><path class="cls-9" d="M230.12,156.49s8.27-3.47,23-17.75,22.35-26.13,23-25.75a9.09,9.09,0,0,1,2.72,6.23c-.1,2.94-7.39,12.7-21.46,25.84s-21.81,16.41-21.81,16.41A27.47,27.47,0,0,1,230.12,156.49Z"/></g></g></svg>