<svg width="100px"  xmlns="http://www.w3.org/2000/svg" viewBox="0 0 1989.99 2026.49"><defs><style>.cls-1{fill:#fff;}.cls-2{fill:#414042;}.cls-3{fill:#ed1c24;}.cls-4{fill:#6d6e71;}.cls-5{fill:#e6e7e8;}.cls-6{fill:#b3b3b3;}.cls-7{fill:#a7a9ac;}.cls-8{fill:#bcbec0;}</style></defs><title>heritageVR</title><g id="Layer_2" data-name="Layer 2"><g id="Layer_1-2" data-name="Layer 1"><path class="cls-1" d="M1711.51,73.43c14.09,15.79,22.39,37.7,23.32,62.62,1.52,40.83-19.28,79.59-42,115.4q-3.18,5-6.51,10.13a593.36,593.36,0,0,0,22.72-84.25C1714.86,147.12,1722.47,107.55,1711.51,73.43Z"/><path class="cls-2" d="M1711.51,73.43c11,34.12,3.35,73.69-2.46,103.9a593.36,593.36,0,0,1-22.72,84.25q3.33-5.11,6.51-10.13c22.71-35.81,43.51-74.57,42-115.4C1733.9,111.13,1725.6,89.22,1711.51,73.43ZM1535.74,13.76c11,23.63,18.27,51.14,22.1,83.82a735.26,735.26,0,0,1,4,116c-3.34,79.89-16.57,158.12-30.07,231.6l.4,0,.92-2.73c24.27-71.62,49.37-145.68,62.59-221.16,10.57-60.34,28.26-161.32-39.17-203.34a6.19,6.19,0,0,1-1-.77,59.5,59.5,0,0,0-19.62-3.35Zm45.67,5.46c20.49,19.47,32.89,47.22,36.92,82.73,4.1,36-.71,74.56-6,107.52C1600,287.06,1576.5,361,1549.07,441.9c14.09-33.5,27.57-61.91,40.62-89.4,18.73-39.47,36.43-76.75,50.61-119.25,18.75-56.15,32.11-136.42-10.12-201-.74-.22-1.73-.54-3.12-1C1618.66,28.62,1599.53,22.57,1581.41,19.22ZM1341.61,156c12.66,84.19,40.72,131.82,64.75,166-7.22-19.77-13.47-38.41-18.89-56.37-9.47-31.41-19.16-68.6-19.17-106.33,0-54,18.19-101.14,50.39-131.73-6.44,1.6-12.69,3.47-18.7,5.61a72.63,72.63,0,0,1-6.45,5.9C1352.05,74.22,1335.06,112.46,1341.61,156Zm146.64,63.16c3.39,93.09,22,174.86,31.24,210.53,11.59-66.23,23.52-134.68,27.44-202.87,2.55-44.27,1.91-83.11-1.94-118.73-2.83-26.18-8-59.76-23-90.64C1486.16,73.2,1485.64,147.61,1488.25,219.2ZM1315,174.61c6.22,22,18.86,44.23,33.94,66.76q-3.54-10.68-6.58-21.18l-1.12-3.85c-7.17-24.66-14.58-50.17-14.94-76-.43-30.61,9.89-58.5,31.38-84.55a117.4,117.4,0,0,0-23.94,24.57C1311.51,111.33,1305.55,141.26,1315,174.61Zm175.18,266.27q.72.35,1.47.66c-39.6-74.78-79.15-152.2-84-237.17-4.34-75.32,16.05-141.18,57.56-186.78a68.57,68.57,0,0,0-17.24,2.82c-1.78,2-5.27,4.91-11.89,10.14l-.52.41c-39.1,31.1-58.61,86.7-52.18,148.74,8.1,78.24,54.47,183.71,57.69,191C1456.81,393.08,1473.6,416.94,1490.16,440.88ZM1748,125.8c2.86,36.88-8.3,75.69-34.1,118.66-38,63.3-100.66,143.88-146.64,200.48-.63,1.13-2,3.17-6,8.68-4.65,6.55-12.06,17-15.24,22.77a66.1,66.1,0,0,1,7.53,15.91,21.57,21.57,0,0,1,7.26,2.71c1.66.32,4,1.52,5.13,5.58a27.36,27.36,0,0,1,.71,6.85,65.18,65.18,0,0,1-1.14,11.72c-.63,3.2-1.79,9.16-6.65,9.16l-.38,0c-6.77,1.78-18.49,2.65-35.75,2.65-11.93,0-23.67-.43-30-.66l-3.14-.12a9.07,9.07,0,0,1-7.32-3.89c-5-7.1-.63-22,.82-26.38l.7-2.12,2.1-.73a81.71,81.71,0,0,1,9.7-2.76c.26-.67.54-1.41.8-2.12,2.9-7.73,4.88-12.5,6.59-15.44-4.26-4.64-10.64-10.39-15.12-14.43-4.68-4.22-6.26-5.68-7-6.78-22.64-31.89-103.32-146.77-110.28-157.84h0l-8.34-11.9c-38.69-55.23-53.16-75.9-60.79-101.9-12.21-41.58-1.88-85.59,28.33-120.74,24.84-28.9,64.35-48.56,108.5-54,10.83-5.61,28.8-6.49,41.5-6.66l1.67,0c5.34-1.93,17-2.45,17.09-2.45h.27c2.37.05,7.83.55,12.71,1.16a56,56,0,0,1,9.67,1.74c16.2-2.31,29.39-2.17,38.09.53h.65c5.18,0,26.88,2.16,37.88,4.48a280.4,280.4,0,0,1,31.3,8.47c1.93.3,6,1.13,8.7,2.91,19.9,2.71,44.24,8,59.16,24.34a6.37,6.37,0,0,1,1,1.45C1726.21,60.75,1745.31,91.5,1748,125.8Zm-54,53.89c8.91-39.7,10.11-73.09,3.56-99.25-3.18-12.71-8.24-23.37-14.24-30a1.45,1.45,0,0,1-.16-.18c-8.37-6.68-19.45-11.43-34.42-14.67,37.45,67.49,23.3,144.67,11.09,185.67s-30.4,79.83-48,117.53c-9.89,21.16-20,42.9-29.1,64.9,18.89-24.4,48.7-63.75,67.95-90.32.15-.43.32-.83.47-1.2.39-.94,1-2.3,1.75-4.06,7.15-16.44,28.92-66.48,41.09-128.29Zm-152.49,280.7c.11-.2.21-.41.32-.63-3.64,1.11-9.37,2.21-20,2.87-2.32.14-4.55.22-6.65.22a71.24,71.24,0,0,1-9.17-.55c4.34,4.88,7,7,9.11,7.31.27,0,1.4.1,3.79.1,8.17,0,16-.62,18.24-1.21A69,69,0,0,0,1541.43,460.39Zm-27.91,33.49,24.56-1c-1.62-3.45-3.5-7.35-4.86-10-2-.16-4-.24-6.06-.24a81.58,81.58,0,0,0-10,.61Zm-39.46-282.16c-1.12-57.89-2.63-136.56,33.58-196.82a51.86,51.86,0,0,0-14.78-.63,35.29,35.29,0,0,0-4.81,1c-.66.18-1.33.35-2,.52-50.26,46.77-73.55,122.81-62.33,203.69,10.85,78.19,47.48,150.67,81.76,215.32A947.28,947.28,0,0,1,1474.06,211.72Z"/><path class="cls-3" d="M1697.48,80.44c6.55,26.16,5.35,59.55-3.56,99.25l0,.12c-12.17,61.81-33.94,111.85-41.09,128.29-.77,1.76-1.36,3.12-1.75,4.06-.15.37-.32.77-.47,1.2-19.25,26.57-49.06,65.92-67.95,90.32,9-22,19.21-43.74,29.1-64.9,17.62-37.7,35.84-76.68,48-117.53s26.36-118.18-11.09-185.67c15,3.24,26,8,34.42,14.67a1.45,1.45,0,0,0,.16.18C1689.24,57.07,1694.3,67.73,1697.48,80.44Z"/><path class="cls-1" d="M1627.06,31.28c1.39.43,2.38.75,3.12,1,42.23,64.58,28.87,144.85,10.12,201-14.18,42.5-31.88,79.78-50.61,119.25-13,27.49-26.53,55.9-40.62,89.4,27.43-80.95,51-154.84,63.3-232.43,5.25-33,10.06-71.51,6-107.52-4-35.51-16.43-63.26-36.92-82.73C1599.53,22.57,1618.66,28.62,1627.06,31.28Z"/><path class="cls-3" d="M1556.53,17.88c67.43,42,49.74,143,39.17,203.34-13.22,75.48-38.32,149.54-62.59,221.16l-.92,2.73-.4,0c13.5-73.48,26.73-151.71,30.07-231.6a735.26,735.26,0,0,0-4-115.95c-3.83-32.68-11.08-60.19-22.1-83.82h.17a59.5,59.5,0,0,1,19.62,3.35A6.19,6.19,0,0,0,1556.53,17.88Z"/><path class="cls-1" d="M1522,17.49c15,30.88,20.13,64.46,23,90.64,3.85,35.62,4.49,74.46,1.94,118.73-3.92,68.19-15.85,136.64-27.44,202.87-9.27-35.67-27.85-117.44-31.24-210.53C1485.64,147.61,1486.16,73.2,1522,17.49Z"/><path class="cls-3" d="M1492.86,14.27a51.86,51.86,0,0,1,14.78.63c-36.21,60.26-34.7,138.93-33.58,196.82a947.28,947.28,0,0,0,31.4,223.1c-34.28-64.65-70.91-137.13-81.76-215.32-11.22-80.88,12.07-156.92,62.33-203.69.69-.17,1.36-.34,2-.52A35.29,35.29,0,0,1,1492.86,14.27Z"/><path class="cls-1" d="M1447.91,20.41a68.57,68.57,0,0,1,17.24-2.82c-41.51,45.6-61.9,111.46-57.56,186.78,4.89,85,44.44,162.39,84,237.17q-.75-.32-1.47-.66c-16.56-23.94-33.35-47.8-49.15-70.23-3.22-7.24-49.59-112.71-57.69-190.95-6.43-62,13.08-117.64,52.18-148.74l.52-.41C1442.64,25.32,1446.13,22.4,1447.91,20.41Z"/><path class="cls-3" d="M1406.36,322.07c-24-34.21-52.09-81.84-64.75-166-6.55-43.58,10.44-81.82,51.93-116.89a72.63,72.63,0,0,0,6.45-5.9c6-2.14,12.26-4,18.7-5.61-32.2,30.59-50.41,77.76-50.39,131.73,0,37.73,9.7,74.92,19.17,106.33C1392.89,283.66,1399.14,302.3,1406.36,322.07Z"/><path class="cls-1" d="M1348.92,241.37c-15.08-22.53-27.72-44.74-33.94-66.76-9.43-33.35-3.47-63.28,18.74-94.22a117.4,117.4,0,0,1,23.94-24.57c-21.49,26.05-31.81,53.94-31.38,84.55.36,25.8,7.77,51.31,14.94,76l1.12,3.85Q1345.37,230.68,1348.92,241.37Z"/><path d="M0,1689.8c0-6.07,3-9.48,9.1-9.48h7.2c6.07,0,9.48,3.41,9.48,9.48V1785a79.83,79.83,0,0,1-1.51,15.54H25c7.21-17.82,33-48.91,76.22-48.91,47.39,0,64.07,26.92,64.07,73.94v111.85c0,6.07-3,9.48-9.1,9.48H149c-6.07,0-9.48-3.41-9.48-9.48v-105c0-29.95-4.55-56.49-41.71-56.49-40.19,0-72,33-72,78.86v82.66c0,6.07-3.41,9.48-9.48,9.48H9.1c-6.07,0-9.1-3.41-9.1-9.48Z"/><path d="M325.69,1751.6c50.81,0,79.63,36.78,79.63,91a9.48,9.48,0,0,1-9.86,9.48H258.2c1.14,48.53,34.5,76.21,73.94,76.21a81.81,81.81,0,0,0,50.05-17.44q7.95-5.11,12.51,2.27l3,4.55c2.66,4.55,1.9,9.1-2.65,12.51-10.24,7.59-33,21.24-63.7,21.24-56.88,0-99.72-41-99.72-99.72C231.66,1789.14,274.13,1751.6,325.69,1751.6Zm53.46,81.14c-1.51-40.19-25.78-59.91-54.22-59.91-31.85,0-59.53,21.24-65.59,59.91Z"/><path d="M473.18,1765.63c0-6.07,3.41-9.48,9.48-9.48h6.82c5.69,0,9.1,3.41,9.1,9.48v25.78a77.87,77.87,0,0,1-1.52,15.17h.76c9.1-27.68,31.09-51.57,61.43-51.57,6.82,0,9.85,3,9.85,9.1v6.83c0,6.06-4.17,9.48-10.61,9.48-40.19,0-59.53,45.87-59.53,85.69v71.28c0,6.07-3,9.48-9.1,9.48h-7.2c-6.07,0-9.48-3.41-9.48-9.48Z"/><path d="M623.32,1703.45V1689.8c0-6.07,3-9.48,9.1-9.48h9.48c6.07,0,9.1,3.41,9.1,9.48v13.65q0,9.09-9.1,9.1h-9.48Q623.32,1712.55,623.32,1703.45Zm.76,62.18c0-6.07,3.41-9.48,9.48-9.48h7.2c6.07,0,9.1,3.41,9.1,9.48v171.76c0,6.07-3,9.48-9.1,9.48h-7.2c-6.07,0-9.48-3.41-9.48-9.48Z"/><path d="M739,1779.28H723q-9.09,0-9.09-9.1v-3c0-6.07,3-9.48,9.09-9.48h16.31v-44.74c0-6.07,3.41-9.48,9.48-9.48h6.82c6.07,0,9.1,3.41,9.1,9.48v44.74h38.68c6.06,0,9.48,3.41,9.48,9.48v3c0,6.06-3.42,9.1-9.48,9.1H764.74v95.55c0,44,26.92,49.29,41.71,50.05,7.58.75,10.24,3,10.24,9.48v4.92c0,6.07-3,9.1-10.62,9.1-41.71,0-67.11-25.4-67.11-70.14Z"/><path d="M975.55,1830.09h11V1824c0-36.78-20.1-49.29-47-49.29A89.5,89.5,0,0,0,893.27,1788c-5.31,2.65-9.48,1.9-12.89-3l-2.27-3.8c-3-4.93-2.28-9.85,2.65-12.89a116.33,116.33,0,0,1,60.67-16.68c45.5,0,70.9,25.4,70.9,73.18v112.61c0,6.07-3,9.48-9.1,9.48h-6.07c-6.06,0-9.48-3-9.48-9.48v-15.17a80.87,80.87,0,0,1,1.14-14.41h-.76c.38,0-17.06,43.61-64.45,43.61-32.23,0-64.46-19-64.46-55.74C859.15,1833.5,938.77,1830.09,975.55,1830.09Zm-47.39,99.71c36.77,0,58.39-37.91,58.39-71.28v-9.1H975.93c-29.95,0-90.24,1.14-90.24,44C885.69,1911.23,899.72,1929.8,928.16,1929.8Z"/><path d="M1114.32,1993.5a103.13,103.13,0,0,0,44.36,9.86c35.26,0,65.59-17.44,65.59-59.9v-19.72a88.25,88.25,0,0,1,1.14-13.65h-.76c-11.37,21.61-30.71,35.64-60.66,35.64-51.19,0-84.93-40.19-84.93-99,0-56.12,31.09-95.17,84.17-95.17,49.29,0,62.18,34.88,62.18,34.88h.76a25.7,25.7,0,0,1-.76-6.44v-15.55c0-4.93,3-8.34,9.1-8.34h6.07c6.06,0,9.48,3.41,9.48,9.48v176.69c0,60.66-45.12,84.17-90.62,84.17-19.72,0-39.06-4.17-55-11.37-5.69-2.66-7.2-6.45-4.55-12.14l2.27-5.3C1104.84,1992.75,1108.25,1991.23,1114.32,1993.5Zm110.33-144.83c0-56.5-27.3-73.94-59.15-73.94-38.67,0-59.9,27.3-59.9,71.28,0,47.77,24.64,76.59,62.18,76.59C1198.11,1922.6,1224.65,1904,1224.65,1848.67Z"/><path d="M1412.71,1751.6c50.81,0,79.62,36.78,79.62,91a9.48,9.48,0,0,1-9.86,9.48H1345.22c1.14,48.53,34.5,76.21,73.94,76.21a81.78,81.78,0,0,0,50-17.44q8-5.11,12.52,2.27l3,4.55c2.65,4.55,1.9,9.1-2.65,12.51-10.24,7.59-33,21.24-63.7,21.24-56.88,0-99.72-41-99.72-99.72C1318.68,1789.14,1361.14,1751.6,1412.71,1751.6Zm53.46,81.14c-1.52-40.19-25.78-59.91-54.22-59.91-31.85,0-59.53,21.24-65.59,59.91Z"/><path d="M1525.69,1691.31c-2.27-6.82.38-11,7.59-11H1542c5.3,0,9.1,2.27,10.61,7.58l70.91,194.89c4.92,13.65,10.23,34.5,10.23,34.5h.76s5.69-20.85,10.24-34.5l71.66-194.89c1.52-5.31,5.31-7.58,10.24-7.58h9.1c6.82,0,9.48,4.17,7.58,11l-92.14,248c-1.89,5.31-5.3,7.59-10.61,7.59h-12.51c-4.93,0-8.72-2.28-10.24-7.59Z"/><path d="M1810.05,1689.8c0-6.07,3-9.48,9.1-9.48h72c25,0,37.92,2.65,48.54,7.58,23.88,11.38,39.43,34.5,39.43,66.73,0,36-20.48,65.22-50.43,73.56v.76a105,105,0,0,1,6.83,10.61l51.94,96.31c3.41,6.45.76,11-6.45,11h-9.85c-5.31,0-8.72-2.28-11-6.45l-56.87-105.78h-67.11v102.75c0,6.07-3.42,9.48-9.1,9.48h-8c-6.06,0-9.1-3.41-9.1-9.48Zm89.49,121.33c32.22,0,52.7-22.37,52.7-55.74,0-21.23-10.24-38.67-28.06-46.64-7.58-3.41-15.55-4.92-34.88-4.92h-53.08v107.3Z"/><path class="cls-2" d="M1990,1477.05c0,2.39,0,4.79-.08,7.18l-1.86-.08-6.89-5.45c0-.4,0-.79-.07-1.19,0-.19,0-.37,0-.56,3.47-.74,6.74-3.5,6.92-7.57q.16-3.86,0-8.36A81.05,81.05,0,0,1,1990,1477.05Z"/><path class="cls-2" d="M1988,1484.15l1.86.08a83.64,83.64,0,0,1-3.53,21.34c-2.92,9.41-8.9,12.17-18.14,13.47-7.89,1.1-17.49,1.39-25.52-1.19a8.57,8.57,0,0,0,1.39-1.67,7.86,7.86,0,0,0,.54-7.65c6.73,3,15.56,2.62,22.63,1.55,2.44-.37,7.9-.29,9.35-2.76,1.72-2.94,2.41-6.63,3-9.94a92.21,92.21,0,0,0,1.47-11.69C1983.72,1486.39,1986,1484.15,1988,1484.15Z"/><path class="cls-2" d="M1981.13,1478.7l6.89,5.45c-2,0-4.3,2.24-6.93,1.54A67.91,67.91,0,0,0,1981.13,1478.7Z"/><path class="cls-2" d="M1987.92,1461q.18,4.5,0,8.36c-.18,4.07-3.45,6.83-6.92,7.57a78.65,78.65,0,0,0-4-20.77c-2-5.57-4.38-11-5.68-16.78-1.57-7.1-1.15-14.47-2.77-21.55a83.16,83.16,0,0,0-3.29-10.7c-.59-1.58-1.19-3.17-1.8-4.74a3.72,3.72,0,0,1-2.2-1.35c-4.64-5.78,3.8-12.5,8.82-6.94,2.78,3.06,4.08,9.67,5.28,13.56a70.5,70.5,0,0,1,3,13.23c.55,5.53.46,11.36,2,16.73,1.27,4.26,3,8.33,4.43,12.51A101,101,0,0,1,1987.92,1461Z"/><path class="cls-2" d="M1987.92,1461a101,101,0,0,0-3.15-10.87c-1.47-4.18-3.16-8.25-4.43-12.51-1.58-5.37-1.49-11.2-2-16.73a70.5,70.5,0,0,0-3-13.23c-1.2-3.89-2.5-10.5-5.28-13.56-5-5.56-13.46,1.16-8.82,6.94a3.72,3.72,0,0,0,2.2,1.35c.61,1.57,1.21,3.16,1.8,4.74a83.16,83.16,0,0,1,3.29,10.7c1.62,7.08,1.2,14.45,2.77,21.55,1.3,5.77,3.72,11.21,5.68,16.78a78.65,78.65,0,0,1,4,20.77,8.35,8.35,0,0,1-1.86.21l2,1.54a67.91,67.91,0,0,1,0,7c-2.57-.69-5.49-4.2-8.88-15.38-6.9-22.74-9.24-46.23-17.91-68-6-15.1-27.94-73.46-15-83.45-78.28-199-105-68.92-83.87-241.2,2.68-21.77,2.78-12.85-16.36-22.13-2.76,75.41-24.56-10.6-18.31,225a90.93,90.93,0,0,1-.33,12.64c8.17,19.07,25,74.78,57.69,112.73,13.52,15.68,26.57,31.21,37.4,48.84a520.72,520.72,0,0,1,29.13,53.69v0a16,16,0,0,1-8.56-8.35,9.85,9.85,0,0,0-.91-2.59c-2.79-5.4-9.32-.57-8.09,4.34.18.73.4,1.43.63,2.11,0,1.56-1.1,2.6-2.69,3.28-1.91-3.59-3.79-7.17-5.63-10.68-6-11.5-12.25-23.37-19.34-34.5-9.27-14.57-20-27.28-31.32-40.72-16-19-34.29-44-57.44-106.05-13.75,21-37.62,53.08-70.26,124.42a8.22,8.22,0,0,1-.73,3.22c-5.44,12-10.74,24-15.11,36.35-3.41,9.66-5.52,20.68-10.44,29.89l-3-.2a70.29,70.29,0,0,1,2.46-10c2-6-5.79-7.92-8.18-2.55a20.42,20.42,0,0,1-8.88,9.54,14,14,0,0,1,.79-1.42c6.1-9.31,8-21.6,11.77-32a296.42,296.42,0,0,1,14.89-34.56c.28-.51.58-1,.91-1.53,3.59-8.39,7.48-16.91,11.81-25.85,19-39.23,40.29-74.47,52.79-91.83,33.47-46.51-8.39-136.86,20.69-212,5-12.9,13-32.4,11.84-63.23-74.55-72.55-56.73-130.18-47.62-225.94-3.32,5.09-7,10.28-11.24,15.63-.39,54.36-12.1,93.68-31.66,140.48-35.13,84.08,9.49,27.95-69.7,122.74-3.93,12.46-87.05,83.62-72.89,117.26,5.25,12.49,41,65,52,150.54,8.81,68.88-54.16,86.42-64.35-4.7-6.62,38.44-22.28,76.26-20.53,114.79a61,61,0,0,0,3,8.83,71.44,71.44,0,0,0,12.93,19.07,7.27,7.27,0,0,1,2,5.36l-5.2-.09c.7-2.61-.28-5.6-3.66-6a7.5,7.5,0,0,1-6.06-4.24c-.34-1.69-.74-3.37-1.24-5-1.73-5.91-9.12-.94-9,3.51a15.79,15.79,0,0,0,1.48,6.34,37.79,37.79,0,0,1,.5,4.36,82.83,82.83,0,0,1-11.18-23c-13.19-13.35-29.55-41.2-31.39-64.36-1.17-14.67,2.65-28.48,6.35-41.84,15.39-55.68-7.52-72,22.95-110.69,8.12-10.33,22.34-26.34,22-40.29-21,22.85-23.68-79.23-24.18-110.2a147.35,147.35,0,0,1-12.18,13.08c16.91,24-4.64,44.4-21.8,124.6q-2.79,13.08-5.38,24.93c-1.77,38.68-15.24,75.6-24.66,112.83-9.53,37.71-14.79,76.46-21.17,114.81l-1.65-.37a16,16,0,0,0,.61-7.31c-.61-4.73-7.39-4.48-8.54-.16q-.87,3.25-1.75,6.51a6,6,0,0,1-1.54,1c-.15-9.87,0-20.62.47-32.26,4.46-27.72,9.25-55.44,16.22-82.53,3.27-12.68,6.87-25.28,10.3-37.91,7.7-49.16,21.63-116.82,36.79-162.17,5.38-16.07,21.07-42.85,5.32-55.16-13.74-10.74,13.9-14.65,34.71-57.79,1.29-2.65,50.89-42.16,88.87-104.29a350.25,350.25,0,0,1,27.87-173c5.56-12.56,11.84-26.8,20.73-38.58,4.18-5.56,9.34-10.13,14.32-14.55,17.51-15.57,28.38-27,25-79.67-19.34-11.35-48-2.89-67.39-32.88-6.39,1.88-5.58-21.67-2.22-23.57,70.38-39.69,173.17,12.59,256,8.69,22.76-1-18,90.7-32,68.72-2-.43-3.94-1.08-5.89-1.69-3.46,184.35-16.8,125.49,56.35,295,35,81.05,20.53,301.43,20.27,302.4C1952.13,1303.58,1985.88,1410.42,1987.92,1461Zm-60.64-207.68c.29-303.75,18.55-153.91-68.41-377.42-13.17-33.85-12.48-39.51-7.64-190.75-32-.62-56.09,6.61-76.85,7.5,1.93,9.08,3.86,18.17,5.93,27.22,1.55,6.8,4,12.85,8.1,18.12,3.7-1.18,7.92.39,9.68,7.87-20.35,145.91-30.36,254.1,48.3,293.93,21.79,11,30.59,5.71,25.19,42.24C1853.59,1203.44,1860.44,1134,1927.28,1253.34Zm-32.54-615.91c-81.51,1.8-128.1-35.66-210.39-21.22,27.93,12,25.76,20.55,117,27.25,90.86,6.67,85.88,6,88.4,9.71A88.35,88.35,0,0,0,1894.74,637.43Zm-20.2,34.78c-.22-2-.48-3.8-.57-6.19l-15.39-1.19c-55.94-4.31-86.26-6.3-107.91-9.08-.55-.79-81-35.31-89.67-36.31,7.42,9.43,4.9,35.77,37,34,.25,2,34.47,6.75,41.08,8,44.64,30.6,41.52,3.56,115.06,7.15.93-.86,2.45-1.14,4.27-1.08C1864,667.81,1872.55,671.59,1874.54,672.21ZM1754.87,819c20.35-28.17,24.52-47.24,26-61.46-9.29-7.83-14.37-18.27-17.13-30-2.84-12-5.07-24.2-7.58-36.3a51.66,51.66,0,0,1-21-10.21c2.31,74.89-30.71,57-59.51,120.53a337.66,337.66,0,0,0-30.05,145.45c1.7-3.36,12.65-19.73,17.54-21.08C1686.46,888.9,1750.85,820,1754.87,819ZM1662,1072.67c60.56-74.12,82.85-194.25,84.57-219.12C1696.52,908.34,1635.07,947.93,1662,1072.67Zm-20.37,26.56c.49-2.46,1.74-3.61,5.41-8.14,0,0-12.74-56.29-4.57-107.08-81.86,132.61-104,54.87-83.08,215.9,5.41-1.46,9.19,3.07,12.19,7.95C1571.6,1174.7,1611.79,1126.66,1641.63,1099.23Zm-46.93,269.35c7.24,69.78,77.69,45.61-18.47-142.16-1.45,44-41,37.82-38.64,101,2.44,66.68-32.12,73.18,3.15,128.31,4.87-51.77,31.43-100.2,20-150.93C1558.22,1293.81,1584.62,1271.32,1594.7,1368.58Z"/><path class="cls-4" d="M1981.09,1485.69a92.21,92.21,0,0,1-1.47,11.69c-.61,3.31-1.3,7-3,9.94-1.45,2.47-6.91,2.39-9.35,2.76-7.07,1.07-15.9,1.41-22.63-1.55v0a520.72,520.72,0,0,0-29.13-53.69c-10.83-17.63-23.88-33.16-37.4-48.84-32.73-38-49.52-93.66-57.69-112.73a90.93,90.93,0,0,0,.33-12.64c-6.25-235.64,15.55-149.63,18.31-225,19.14,9.28,19,.36,16.36,22.13-21.13,172.28,5.59,42.24,83.87,241.2-12.9,10,9,68.35,15,83.45,8.67,21.74,11,45.23,17.91,68C1975.6,1481.49,1978.52,1485,1981.09,1485.69Z"/><path class="cls-2" d="M1944.62,1508.53a7.86,7.86,0,0,1-.54,7.65,8.57,8.57,0,0,1-1.39,1.67,24.71,24.71,0,0,1-10-5.81,10.75,10.75,0,0,1-1.53,1.32,21.08,21.08,0,0,1-2.12,1.32c-1.35-2.44-2.68-4.9-4-7.36,1.59-.68,2.73-1.72,2.69-3.28-.23-.68-.45-1.38-.63-2.11-1.23-4.91,5.3-9.74,8.09-4.34a9.85,9.85,0,0,1,.91,2.59A16,16,0,0,0,1944.62,1508.53Z"/><path class="cls-2" d="M1942.69,1517.85a8.93,8.93,0,0,1-6.06,2.49,7.62,7.62,0,0,1-6.76-4.1c-.29-.52-.58-1-.86-1.56a21.08,21.08,0,0,0,2.12-1.32,10.75,10.75,0,0,0,1.53-1.32A24.71,24.71,0,0,0,1942.69,1517.85Z"/><path class="cls-5" d="M1858.87,875.92c87,223.51,68.7,73.67,68.41,377.42-66.84-119.36-73.69-49.9-55.7-171.29,5.4-36.53-3.4-31.21-25.19-42.24-78.66-39.83-68.65-148-48.3-293.93-1.76-7.48-6-9-9.68-7.87-4.12-5.27-6.55-11.32-8.1-18.12-2.07-9-4-18.14-5.93-27.22,20.76-.89,44.9-8.12,76.85-7.5C1846.39,836.41,1845.7,842.07,1858.87,875.92Z"/><path class="cls-2" d="M1925,1507.32c1.33,2.46,2.66,4.92,4,7.36-5.72,3.11-12,3-18.56,3-14.92,0-29.86.14-44.78-.06a3.87,3.87,0,0,1-2.5.56c-51.72-5.68-103.77,4.73-155.44-.58a11.41,11.41,0,0,0,3.91-3.36,41.64,41.64,0,0,0,3.09-5c49.27,3.11,98.62-4.8,147.88-.34,11.91-.23,23.85-.17,35.76-.2,6.26,0,12.53.11,18.79,0A23.38,23.38,0,0,0,1925,1507.32Z"/><path class="cls-4" d="M1919.37,1496.64c1.84,3.51,3.72,7.09,5.63,10.68a23.38,23.38,0,0,1-7.84,1.34c-6.26.16-12.53,0-18.79,0-11.91,0-23.85,0-35.76.2-49.26-4.46-98.61,3.45-147.88.34,4.92-9.21,7-20.23,10.44-29.89,4.37-12.39,9.67-24.4,15.11-36.35a8.22,8.22,0,0,0,.73-3.22c32.64-71.34,56.51-103.43,70.26-124.42,23.15,62.1,41.39,87,57.44,106.05,11.34,13.44,22,26.15,31.32,40.72C1907.12,1473.27,1913.34,1485.14,1919.37,1496.64Z"/><path class="cls-5" d="M1684.35,616.21c82.29-14.44,128.88,23,210.39,21.22a88.35,88.35,0,0,1-5,15.74c-2.52-3.67,2.46-3-88.4-9.71C1710.11,636.76,1712.28,628.23,1684.35,616.21Z"/><path class="cls-6" d="M1874,666c.09,2.39.35,4.22.57,6.19-2-.62-10.5-4.4-16.17-4.64l.21-2.74Z"/><path class="cls-4" d="M1858.58,664.83l-.21,2.74c-1.82-.06-3.34.22-4.27,1.08-73.54-3.59-70.42,23.45-115.06-7.15-6.61-1.27-40.83-6-41.08-8-32.06,1.73-29.54-24.61-37-34,8.7,1,89.12,35.52,89.67,36.31C1772.32,658.53,1802.64,660.52,1858.58,664.83Z"/><path class="cls-7" d="M1822.63,1043.69c1.14,30.83-6.85,50.33-11.84,63.23-29.08,75.13,12.78,165.48-20.69,212-12.5,17.36-33.78,52.6-52.79,91.83-4.33,8.94-8.22,17.46-11.81,25.85-.33.5-.63,1-.91,1.53a296.42,296.42,0,0,0-14.89,34.56c-3.79,10.38-5.67,22.67-11.77,32a14,14,0,0,0-.79,1.42h0c-5.76,3.28-13,4.44-19.53,4.74-13,.58-26.14-.54-39.1-.95-21.3-.66-42.64-1.71-64-2.13a7.27,7.27,0,0,0-2-5.36,71.44,71.44,0,0,1-12.93-19.07,61,61,0,0,1-3-8.83c-1.75-38.53,13.91-76.35,20.53-114.79,10.19,91.12,73.16,73.58,64.35,4.7-10.93-85.53-46.71-138.05-52-150.54-14.16-33.64,69-104.8,72.89-117.26,79.19-94.79,34.57-38.66,69.7-122.74,19.56-46.8,31.27-86.12,31.66-140.48,4.19-5.35,7.92-10.54,11.24-15.63C1765.9,913.51,1748.08,971.14,1822.63,1043.69Z"/><path class="cls-2" d="M1780.87,757.55c-1.48,14.22-5.65,33.29-26,61.46-4,1-68.41,69.89-91.71,107-4.89,1.35-15.84,17.72-17.54,21.08a337.66,337.66,0,0,1,30.05-145.45c28.8-63.49,61.82-45.64,59.51-120.53a51.66,51.66,0,0,0,21,10.21c2.51,12.1,4.74,24.28,7.58,36.3C1766.5,739.28,1771.58,749.72,1780.87,757.55Z"/><path class="cls-4" d="M1746.57,853.55c-1.72,24.87-24,145-84.57,219.12C1635.07,947.93,1696.52,908.34,1746.57,853.55Z"/><path class="cls-2" d="M1711.74,1509.05l3,.2a41.64,41.64,0,0,1-3.09,5,11.41,11.41,0,0,1-3.91,3.36l-.68-.07a4.11,4.11,0,0,1-2.65-.28l-4.17-.51a3.76,3.76,0,0,1-2.46-1.28l-.28.12c-1.94-2.7-1.79-6.42-.35-9.47h0a20.42,20.42,0,0,0,8.88-9.54c2.39-5.37,10.21-3.48,8.18,2.55A70.29,70.29,0,0,0,1711.74,1509.05Z"/><path class="cls-2" d="M1707.05,1517.51l.68.07a8,8,0,0,1-8.44-.26,7.54,7.54,0,0,1-1.8-1.76l.28-.12a3.76,3.76,0,0,0,2.46,1.28l4.17.51A4.11,4.11,0,0,0,1707.05,1517.51Z"/><path class="cls-2" d="M1697.14,1506.09c-1.44,3.05-1.59,6.77.35,9.47-15,6.58-35.11,4.26-50.62,3.76-26.27-.83-52.63-1.13-78.88-2.44,3.57-1.68,6.42-5.39,6.55-9.13,21.33.42,42.67,1.47,64,2.13,13,.41,26.14,1.53,39.1.95C1684.15,1510.53,1691.38,1509.37,1697.14,1506.09Z"/><path class="cls-8" d="M1647,1091.09c-3.67,4.53-4.92,5.68-5.41,8.14-29.84,27.43-70,75.47-70.05,108.63-3-4.88-6.78-9.41-12.19-7.95-21-161,1.22-83.29,83.08-215.9C1634.3,1034.8,1647,1091.09,1647,1091.09Z"/><path class="cls-2" d="M1576.23,1226.42c96.16,187.77,25.71,211.94,18.47,142.16-10.08-97.26-36.48-74.77-34-63.78,11.47,50.73-15.09,99.16-20,150.93-35.27-55.13-.71-61.63-3.15-128.31C1535.28,1264.24,1574.78,1270.47,1576.23,1226.42Z"/><path class="cls-2" d="M1569.34,1507.66l5.2.09c-.13,3.74-3,7.45-6.55,9.13-2.76-.14-5.53-.28-8.3-.45h0a9,9,0,0,1-1.5-1.32,78.87,78.87,0,0,1-6.84-8.49,37.79,37.79,0,0,0-.5-4.36,15.79,15.79,0,0,1-1.48-6.34c-.11-4.45,7.28-9.42,9-3.51.5,1.67.9,3.35,1.24,5a7.5,7.5,0,0,0,6.06,4.24C1569.06,1502.06,1570,1505.05,1569.34,1507.66Z"/><path class="cls-2" d="M1559.69,1516.43c2.77.17,5.54.31,8.3.45a8.06,8.06,0,0,1-8.3-.44Z"/><path class="cls-4" d="M1560.05,1226.49c.37,14-13.85,30-22,40.29-30.47,38.72-7.56,55-22.95,110.69-3.7,13.36-7.52,27.17-6.35,41.84,1.84,23.16,18.2,51,31.39,64.36a82.83,82.83,0,0,0,11.18,23c.07.85.1,1.7.1,2.56-16.24-3.23-32.61-2.65-49.17-1.53-17.21,1.17-34.68,2.54-51.6-1.12,6.38-38.35,11.64-77.1,21.17-114.81,9.42-37.23,22.89-74.15,24.66-112.83q2.58-11.85,5.38-24.93c17.16-80.2,38.71-100.59,21.8-124.6a147.35,147.35,0,0,0,12.18-13.08C1536.37,1147.26,1539.08,1249.34,1560.05,1226.49Z"/><path class="cls-2" d="M1558.19,1515.12a9,9,0,0,0,1.5,1.32c-1,2.28-3.36,4-5.88,3.21-34.24-10.11-70.35,3.23-105-3.7a11.08,11.08,0,0,0,.69-2.39q.6-3.49,1.19-7c16.92,3.66,34.39,2.29,51.6,1.12,16.56-1.12,32.93-1.7,49.17,1.53,0-.86,0-1.71-.1-2.56A78.87,78.87,0,0,0,1558.19,1515.12Z"/><path class="cls-2" d="M1450.68,1506.54q-.59,3.53-1.19,7a11.08,11.08,0,0,1-.69,2.39c-2.54-.52-5.08-1.13-7.61-1.88a25.48,25.48,0,0,1-3.18,1.19c-.09-2.93-.15-5.94-.2-9a6,6,0,0,0,1.54-1q.89-3.26,1.75-6.51c1.15-4.32,7.93-4.57,8.54.16a16,16,0,0,1-.61,7.31Z"/><path class="cls-2" d="M1446.43,1385.4a7,7,0,0,1,1.8,6.71,548.88,548.88,0,0,0-10,81.85c-1.79,11.2-3.54,22.41-5.35,33.56a51.71,51.71,0,0,1-5.32.35l-6,.19c.2-34.61,2.19-73.93,8-103.33a8.23,8.23,0,0,1,1-11.25c0-1-15.28-66.19-9.71-131,3.12-36-65.06-111.4-80.42-150.2-23.64.76,12.33-82.86-7.89-165-16.75-68.13,2.72-82.75-.2-158.41-11,1.58-17,4.42-25.06,4-.15,0-76.35-25.49-78.75-26.74-4.44,70-46.8,104.29-60.91,207.2,42-43.25,8.19-35.17,37.24-62.71,1-.92,2-1.84,3-2.78,10.68-9.59,11.37-12.12,11.34-23.53a103.75,103.75,0,0,1,2.57-23.36c6.61-29.23,17.44-67.23,47.09-67.23,42.2,0-8,195.31,39.31,236.23,20.81,18,19.6,19,18.67,68.9-1,51.93-15.69,25.59-45.58,90.22,12.65,46.91,31.34,98.66,73.32,129.91,4.58-1.62,9,.85,9.2,6.28,1.82,62.6,35.59,74.17,18,170.25-.86,4.69-1.71,9.4-2.5,14.13-2.82-.06-5.38-.57-6.26-2.19l0,0c-.14-.33-.31-.67-.49-1-2.21-3.88-8.19.06-8.06,3.87a5.62,5.62,0,0,1-1.23.18c.77-4.69,1.61-9.35,2.43-14,13.92-77.62-1-75.32-14.29-138.29-9.47,25.27-18.41,51.71-26.63,78.8,0,14.16-.8,28.47.38,42.6,1,12.24,2.3,21.46,3.52,28.52-3.67-.51-6.73-1.28-7.26-2.43l.3-1.92c.88-5.65-6.35-5.57-8.27-1.31a11.15,11.15,0,0,0-1.15,6l-.8,0c-5.07-31.24-5-75.83-.57-81.41,8.14-26.82,17.64-54.3,28.29-81.91-45.76-20.41-97.61-46-121.94-92-4.86,20.91-8.57,44.93,5.63,85.75,8.94,25.67,11.57,42.17,11,52.32a7.56,7.56,0,0,1,.94,5.43c-1.14,5.46-2.3,10.92-3.52,16.35a17.77,17.77,0,0,1-4,7.6,88.6,88.6,0,0,1,19.34,35.64c4.32,16.05,6.54,33.31,8.21,49.84a10.77,10.77,0,0,1,0,2.35q-9-.24-18-.31c-2.47-14.74-2.81-30.21-7.2-44.51-4-12.92-10.66-23.72-19.53-33.86a8.3,8.3,0,0,1-1.2-1.8l-.06-.06c-6.15-7.6-11.23-13.66-15.55-18.86a391.32,391.32,0,0,1-21.85,40.88c-4.22,7-2.88,16.74-2.58,24.65.39,10.06,2,20,2.71,30a10.84,10.84,0,0,1-.47,4q-8.61.15-17.2.38c-2.42-10.13-2.75-21.28-3-31.67-.2-9.58-1.68-22,3-30.72s10.11-17.12,14.73-25.94c4.54-8.66,8.62-17.51,12.8-26.35-13.36-18.39-17-33.42-37.41-105.56-1.59-5.64-3.08-11.67-2.24-18,8.61-65.93,31.59-13.73-3.53-103.37-9.21,62.62-15.67,104.72-22.24,126.33a12.21,12.21,0,0,1,.09,1.95c-.76,22.73-4.18,45.7-7.23,68.23q-4.48,33.08-10.53,65.9a13.24,13.24,0,0,1-.38,1.47c10.64,29.49,18.41,54.49,24.43,76.8a15.64,15.64,0,0,1-4.91-2.86,50.38,50.38,0,0,0-.89-7.3,79.59,79.59,0,0,0-10-27.29c-2.73-4.46-9.79,1.26-7.79,5.46,3.46,7.31,6.68,14.49,8.49,22.43.06.21.14.54.24.94a5,5,0,0,0-1.33,4.81,17.5,17.5,0,0,0,2.46,5.1,2.91,2.91,0,0,1-.33.26c-.74,0-1.47.09-2.21.16-18.41-64.94-78.89-211.18-78.89-211.18-51.89-129.69-7.82-57.88-47.28-236.47a7.86,7.86,0,0,1-1.35-2.68C942.83,938.17,914.21,967.63,891.35,844c0,0-9.52-122.09-19.2-215.11C867.28,635.11,862,641,857,646.61c-10,11.31-20.41,22.37-29.15,34.69-8.57,12.05-15.54,25.39-18.93,39.88a129,129,0,0,0-2.35,43.25c25.28,40.73,5.56,52.87,6,82.67.65,45.16,64.54,114.81,49.46,138.4,103,124-36.07,263.07,43.82,433.84,2,4.26,4.06,8.68,6,13L922,1454.71l1.74,3.81c1,2.29,2.15,4.63,3.23,6.9,1.83,3.87,3.71,7.83,5.4,11.87a7.46,7.46,0,0,1,3.06,3.59c2.64,6.39,5.87,12.24,9,18.4a7.92,7.92,0,0,1-.27,7.48,34.27,34.27,0,0,0-3.94,0c-1.57-5-3.17-10.08-4.75-15.12-1.72-5.41-9.32-1.2-8.75,3.4.43,3.41.81,6.93-.36,10.23a2,2,0,0,1-.12.26,66.7,66.7,0,0,1-6.6-15.22c-6.19-11.15-11.34-23.12-16.32-34.74-2.19-5.12-4.46-10.41-6.77-15.51-37.78-83.39-25.52-57.66-30-139.82-9.36-10.13-25.14-141.51-44.76-142.38-40.32-1.79-71.08-125.24-71.48-126.21-1.4,2.52-2.94,5.3-4.54,8,8.06,205.47-13.26,65.13-54.76,235,0,0,11.78,38.13,23.74,60.26,20.33,37.6,41.59,53.08,51.33,106.39a6.12,6.12,0,0,1,3.85,4.34c3,10.2,5.6,20.54,8.3,30.82,1,3.57,1.7,7.19,2.81,10.65,1.81,1.15,2.54,3.39,2.44,5.93a23.63,23.63,0,0,0,3.61,5.07c2.88,3,2.23,7.36,0,10.72h-1.31a30.76,30.76,0,0,1-6.28-13.27c-.68-3.85-3.83-4.12-6.16-2.56a4,4,0,0,0-1.61.07c-2.66.66-4,3.12-4,5.68v5.16c-.25-.46-.47-.93-.69-1.4-5.59-5.63-11.45-19.52-15.63-47.93-10.3-69.95-40-75.08-64.21-141.67,0,53.07-9.87,132-52.58,166.91-3.59,3-7.31,6-10.65,9.2a164.16,164.16,0,0,0-17.47,19.79c-1.09-.3-2.17-.66-3.25-1.07l-.19-.1a42.84,42.84,0,0,0,7-8.69,5,5,0,0,0,.13-5.14,4.12,4.12,0,0,0-7-3.48c-2.94,3-6.66,7.59-8.46,12.38-.4.43-.8.84-1.21,1.25a3.56,3.56,0,0,0-.26.31,32.41,32.41,0,0,1-5.28,2.79,177.53,177.53,0,0,1,36.44-39.92c58.06-46.65,40.84-157.37,50.74-195.35,45.39-174.44,51.74-26.13,54.87-214.07-9.2,6.15-13.24,6.15-30.76,30.1-2,2.8-3.39,5.14-6.61,6.07-18.46,42.51-19.18,43.21-22,45.07-5.21,29.33-17.21,60.84-26.81,86.21-2.73,7.23-5.56,14.71-8.24,22.08-30.81,84.59-25.78,215-41.88,225.75-15.13,40.1-22.15,25.72-28.77,36.31a3,3,0,0,1,.23.48l-2.55,0c2.69-3.47,5.34-7,8-10.48a4.32,4.32,0,0,0-2.63-7.08,3.75,3.75,0,0,0-4.49-.28,33.79,33.79,0,0,0-14.14,15.87l-.8,0a17.58,17.58,0,0,1,2.8-7.07c3.14-4.7,7.38-7.12,11.48-9.44,1.06-.61,2.16-1.24,3.23-1.9,5.14-3.18,7.65-9.65,10.09-15.9.26-.66.51-1.31.76-2,2-5.1,3.83-10.14,5.36-15,1.31-16-.45-33.26-5.24-51.39-10.55-40-27.67-73-31.27-117.69-.67-8.33-1-17-3.24-24.86-2.6-9-6.77-17.29-11.2-26a210.22,210.22,0,0,1-9.16-19.79c-26.3-68.85-1-115.17-9.48-150.51-2.79-11.65-9.61-22.72-20.28-32.91-40.3-38.46-70.76-33.18-91.17-137.86-14.27-73.18-37.53-124.29-36.93-181.74-8.48,1.42-10.79,1.88-13.64.27-15.47,9.16-29.9,8.44-42.81,4-.39-6.4-.78-12.79-1.48-19.15a8,8,0,0,0-1-3.17c12,6.46,21.56,12.19,24.28,12.19,0,0,13.08-11.51,28.71-15.66C355.9,642.82,291,670,229.25,610a387.52,387.52,0,0,0-17.87,39.42c11.36,10,23.22,19.87,35.28,29.47a6.49,6.49,0,0,1,2.07.89C259.77,674,281,683,299,692.33c-4.51.09-9.39,3.38-9.52,8.64q-.1,4.14,0,8.3c-14.42-8.43-25.94-17.71-33.52-14.67a10.67,10.67,0,0,1-3.71,4.31c.52,19.62,1,36.12,1.28,50.14-6.28-1.42-14.05,5.59-10.81,12.81a116,116,0,0,0,11.12,19.35c-.54,59.35-10.28,52.77-51,111.17-70.16,100.64,40.53,110.07-48.68,226.11,3.11,2.22,6.28,4.39,9.15,6.9,10.15-7.17,35.37-34,40-39.53,45.8-54.94,42.07-117.07,34.64-192.8a10,10,0,0,1,5.11-9.57c52.54-30.11,60.85,99.31,30.69,150.28-.41-.81-.79-1.62-1.17-2.44-4.89-10.59-19.68-1.1-16.06,8.61.35.94.73,1.87,1.12,2.81-3.72-2.34-5.39-7.47-1.95-12.24,20.58-28.47,25.72-128.21.5-132.49,5.06,53.15,7.57,101-9,146.08-4.08,11.11-10.38,22.54-17.68,33.49-5-1.75-12.9,2.12-13.51,8.53a68.71,68.71,0,0,0-.17,10.14c-16.46,20.63-34.13,37.25-42.81,43,7.7,10.88,35,67.45,52.58,110.59-1.07,8-2.36,15.93-3.8,23.9a10.14,10.14,0,0,0-3.58,5.18c-20.84-40.86-48.45-122-64.64-134.52-4.39-1-10.57-4.89-10.46-10.68-.22-.19-.45-.39-.69-.57-96.88,116.18-59.39,103.49-56.94,198.1,2.65,101.87-41.51,130.17-55.21,170a32.2,32.2,0,0,0,1.55-7.41,4.13,4.13,0,0,0-4.37-4.73,4.2,4.2,0,0,0-1.75.16,4.59,4.59,0,0,0-.91,0,4.44,4.44,0,0,0-5,2.06l0,.06a5.79,5.79,0,0,0-2.75,1,5,5,0,0,0-1.86.81c4.33-11.58,10.57-22,16.42-31.36,14.14-22.58,42.06-63.49,35.76-141.26-15.83-195.62,57.17-146,98.92-254.6,26.37-68.62-42.46-92.35,24-184.76C243.07,807.49,238,844,235.21,692.83c-43.54-34.72-44.2-36.48-41.79-43,2.49-6.68,22.32-59.16,32.78-57.08,45.62-38.75,201.4,75.92,203.38,89.33,2.46,16.68-32.11,24.38-48.51,28.29-.68,52,20.19,101.57,31.76,153.93,1.63,7.39,3.08,15,4.48,22.36,34.56,181.67,121.85,52.22,110.2,247.18a186.59,186.59,0,0,0,3.43,50c3.11,14.58,8.55,29,17.64,46.87l.18.35c4,7.76,8,15.77,10.26,24.48a142,142,0,0,1,3.76,24.55c3.91,48.38,18.73,72.77,30.39,116.35,16.64-193.25,44.94-162.19,63.3-267.43a8.57,8.57,0,0,1,5.61-6.67c20.54-48.83,34.51-44.56,11.6-170-8.82-7.86,17-47.17,23-105.09C713,687.82,750.48,701.81,739.13,570.94c-36.66-13.71-54.86-23.81-44.74-62,13.44-50.68,14.39-65,26.34-58.23a8.43,8.43,0,0,1,3.12.17,128.36,128.36,0,0,0,31.62,4c45.79,0,61.27-23.63,91.8-19.32,22.56,3.18,40.88,21.89,43.73,44.58,10.12,24.7,9.3,58.17-11.39,76C910.85,700.6,880.06,841,946,945.49a407.63,407.63,0,0,1,46,99.59c2.07,2.61,15.71,65.26,16.44,68.57,4,18.45,8.08,40.44,7.35,63.73,0,1.79-.12,3.59-.18,5.38-.33,8.6-.67,17.49.42,26a155.45,155.45,0,0,0,7.08,29.71c3.22,9.6,7,19.24,10.63,28.57,12.59,32.19,12.16,32.59,11.48,35.3,16.49,36.8,29.84,68.71,40.79,96.86q3.06-18.75,5.62-37.59c3-22.05,4.54-44.3,7.62-66.34a9.78,9.78,0,0,1,3.56-6.41c8.18-46.33,26.94-167.77,18.67-200.73-4.1-16.31-4-20.45,3.75-35.27.61-1.18,1.22-2.36,1.8-3.53,33.55-68.29,11.73-32.25,31.73-114.8,24.39-100.71,53.89-111.83,54.36-179.17a65.11,65.11,0,0,1-12.32-15.19,71.71,71.71,0,0,1-8.07-52.72,8.39,8.39,0,0,1-1.08-5.19c2.6-22.12,121.7-4.78,216.75,57.11,6.75-.8,9.3,5.41,7.94,10.57-11.93,45.31,16.22,34.21-67.79,37.41,1.1,21.87,0,45.07-3.39,72.63l-.29,2.4c-12.63,101.65,21.54,30.59,5.49,226.23C1498.23,1385.66,1408.78,1140.24,1446.43,1385.4Zm-49.82-613.31a136,136,0,0,1,1.67-14.19c-115.58,26.86-75.62-10.11-190-43.59,3.39,29.63,19.73,28.2,20.42,31.85,9.85,7.2,80.79,30.56,85.48,29.45a165.3,165.3,0,0,1,23.53-4.09,8.24,8.24,0,0,1,5.12-.48C1374.51,768.47,1383.76,775.21,1396.61,772.09ZM1207.28,696c113.23,32.3,96.61,72.73,176.44,48.89-47.73-30.09-45.14-30.5-75.25-34.73-49.22-6.93-70.13-30.05-99.64-22.35A53.85,53.85,0,0,0,1207.28,696Zm102.58,425c.1-1,3.34-61.58-3.74-69.36-22.1-4.82-28.76-11.22-49.48-12.79-70.61-5.38-75.69,39.68-28.69-77.9,8.31-20.79,6.33-20.63-4.19-46.54-41.33,41.84,14.56,9.13-55.78,80.68.24,58.38,21.34,71.22,30.15,78.14,51.65,40.6-17.88,45.06-1.27,70.61,25.59,39.4,28.76,62.7,26,83.31a7.47,7.47,0,0,1,4.57,4.37c19.65,43.37,59.46,67,100.48,86.78-48.29-49.28-69.38-134-59.59-140C1285,1142.53,1309.86,1121,1309.86,1121Zm-27.75-94.93c-7-26.84-14.39-54.44-35.5-70.45-1.25,3.8-13.27,37.89-26.27,68.43C1243.82,1019.63,1267.62,1021.63,1282.11,1026.06Zm-18.26-78.58c1.24-26.61,16-67,1.31-137-25.53,3.23-30.62,85.12-31,86.47,5.3,12.14,14.18,30.16,15.16,39.61A72,72,0,0,1,1263.85,947.48Zm-48,457.18c.31-1.47.64-2.93,1-4.41a7.87,7.87,0,0,1,1.66-10.25c-4-55.19-34.91-50.91-14.76-148.49,20.73-100.3-63.26-61.89-3.06-142.85-13.14-17.56-35.3-14.56-45.54-69.05-37.68,83-9.32,10.64-13.28,102.87,2.06,2.34,29.93,74,30.8,76.84,7.25,23.87-19.2,50.32-13.35,71,29.24,103.29,25.56,90.47,54.15,125.75l1.7,2.07ZM868.34,1240.23c9.25-125.65,29.35-138.55,16.53-176.39-.16-.47-.32-.94-.49-1.42s-.33-1-.5-1.43c-.52-1.46-1.06-3-1.65-4.5-.77-2-1.6-4.16-2.49-6.33-1.79-4.39-3.81-9-6.06-13.68-.79-1.64-1.6-3.29-2.45-5l-.94-1.82c-.29-.58-.61-1.16-.92-1.75-.61-1.16-1.24-2.33-1.89-3.5-.32-.58-.66-1.17-1-1.75-.65-1.16-1.32-2.31-2-3.47s-1.37-2.31-2.09-3.46q-.52-.85-1.08-1.71l-1.08-1.69,0,0c-.73-1.12-1.47-2.24-2.24-3.34s-1.52-2.21-2.32-3.3a132.58,132.58,0,0,0-8.46-10.59q-.5-.58-1-1.14c-.95-1-1.92-2.06-2.89-3.06-.39-.4-.78-.79-1.18-1.17-1.3-1.3-2.64-2.53-4-3.71s-2.72-2.32-4.12-3.39c-.47-.36-.94-.72-1.41-1.06-1-.7-1.9-1.37-2.86-2-.48-.33-1-.64-1.46-.93s-1-.62-1.47-.9a55.48,55.48,0,0,0-5.67-2.94c-.63-.29-1.27-.56-1.91-.82h0a47.39,47.39,0,0,0-5.26-1.82c-8.63-2.44-7.86-20.77,11.92-14h0c.28.1.57.21.86.3L828,959c.59.24,1.19.5,1.81.78l1.05.48,1,.48q.6.3,1.2.63c.38.2.76.4,1.14.62s.77.42,1.17.66a99.81,99.81,0,0,1,9,5.91c-10.93-40.09-45.13-71.94-48.08-113.1-1.8-25.1,11.38-48.35,4.73-65.58-15.77,64-45.44,62.09-35,111.09.19.93.41,1.89.63,2.86.85,3.6,1.89,7.47,3.16,11.63.4,1.3.81,2.62,1.25,4,2.33,7.22,5.29,15.3,9,24.44a.19.19,0,0,1,0,.07c3.41,8.48,5.1,14.51,4.88,20.39,0,.36,0,.72-.06,1.07a.76.76,0,0,0,0,.15c0,.31-.06.62-.1.93a.78.78,0,0,1,0,.16c0,.31-.07.61-.12.92a35.92,35.92,0,0,1-2.19,7.73c-.06.16-.13.31-.19.48-2.28,5.63-6,12.22-11.36,21.19-.19.32-.4.65-.59,1-.81,1.34-1.64,2.73-2.51,4.19-.21.37-.44.74-.66,1.11-2,3.33-4.16,7-6.51,10.94,13,18,9,51.65,41.94,103C845.37,1184,828.25,1077.08,868.34,1240.23Zm12.79-723.48a20.2,20.2,0,0,1-6.15,2.63c-34.8,10.28-66,56-128.7,27.11-35.16-16.22-28.73-14.25-32.58-49.43-12.56,46.82-13.74,44.23,87.19,76.43,10.83,1.35,19.67-8.2,30.38-13.34C849.57,551.37,880.34,552.41,881.13,516.75Zm-9.53-13.34a36.51,36.51,0,0,0,3.3-19.49c-10.92-67.63-74-.7-148.08-14.84,1.76,15.65,3.5,31.62,5.65,51.3C807.19,562.52,818,523.41,871.6,503.41Zm-2.8,99.1c.12-.29.25-.58.4-.86-1.52-13.53-3-26-4.47-36.68-3.88,1.54-7.85,2.76-11.71,3.95-27.93,8.56-32.22,20.11-49.29,21-4.19,61.76-8,97.07-9.19,119.84a138.08,138.08,0,0,1,16.73-34.13c9-13.24,19.74-25.06,30.33-37,5.15-5.82,10.26-11.69,15-17.84C861,615.17,866,609.14,868.8,602.51Zm-80.73-15.16c-1.9-.54-3.88-1.1-6-1.72-3.07,31.82-12.93,27.18-25,68.8,18.46,108.66,15.13,113.89-44.41,197.39-3.89,31.77-17.34,74-24.11,92,11.44,46.88,13.64,99.27,12.81,115.77,87.77-91.33,64.58-100.41,57.56-125-29.23-102.41,15.36-74.84,30.29-165.76C773.83,741.89,775.2,733.38,788.07,587.35ZM766,585.05a7.12,7.12,0,0,1-1.49-4.93c-3-1-5.83-2-8.57-2.94.91,11.83,1.26,23.85,1.07,35.9C763.12,602.77,765,597.84,766,585.05ZM747.23,772.59c.08-26.39-.75-47.81-2.32-69.91-20.06,77.67-32.41,57.93-31,113.2A249.56,249.56,0,0,1,747.23,772.59ZM381.91,692.18a263.59,263.59,0,0,0,26.59-8.36c-78.61-55.33-92-78.14-155.35-76.87,61.7,48.5,123.23,22.13,122.19,79.06A7.19,7.19,0,0,1,381.91,692.18Z"/><path class="cls-2" d="M1448.8,1516a11.44,11.44,0,0,1-1.47,2.62,11.49,11.49,0,0,0-1.41-.56,81.32,81.32,0,0,0-7.89-2.09h0c0-.22,0-.43,0-.65a25.48,25.48,0,0,0,3.18-1.19C1443.72,1514.82,1446.26,1515.43,1448.8,1516Z"/><path class="cls-2" d="M1438,1515.91h0c-.45-.1-.9-.2-1.35-.28h0C1437.15,1515.72,1437.58,1515.82,1438,1515.91Z"/><path class="cls-2" d="M1438,1515.26c0,.22,0,.43,0,.65-.45-.09-.88-.19-1.33-.27C1437.15,1515.52,1437.58,1515.39,1438,1515.26Z"/><path class="cls-2" d="M1437.81,1506.22c0,3.1.11,6.11.2,9-.43.13-.86.26-1.31.38h0l-.68-.14c-.68-.14-1.36-.26-2-.37s-1.37-.23-2-.33h0a7.84,7.84,0,0,1,.11-1.52c.31-1.91.63-3.83.94-5.75A15.39,15.39,0,0,0,1437.81,1506.22Z"/><path class="cls-2" d="M1438.28,1474c-.52,11.64-.62,22.39-.47,32.26a15.39,15.39,0,0,1-4.88,1.3C1434.74,1496.37,1436.49,1485.16,1438.28,1474Z"/><path class="cls-2" d="M1436,1515.5l.68.14c-8.4,2.2-18.92,1.74-25.36,1.93l-30,.88c-3.9.11-7.75,0-11-1.47a11.69,11.69,0,0,1-4.19,2.08c-7.34,2-16.41-.15-23.92-.65-4.75-.32-15.82-.13-23.11-2.94a5.17,5.17,0,0,1-3.71,1.86c-15.6.77-31.18,1.58-46.77,2.19a3.26,3.26,0,0,1-2.42-.75q-10.83-.18-21.66-.44l0-.82a10.69,10.69,0,0,0,10.25-9c8.3.23,16.6.58,24.87,1.12a4.39,4.39,0,0,1,1.91.54c10-.6,19.92-1.13,29.89-1.67,0,.32.11.63.16.94h.23c5.69,0,11.35-.15,17-.22-.07-.37-.13-.74-.2-1.12,6,.82,13.55,1,14.84,1.07l13.42.9c1.9.13,3.86.41,5.76.38a3.64,3.64,0,0,0,.57,0l0,.19c2.91.39,5.82.87,8.73,1.48l.4.11,6.45.55c.18-1.08.35-2.14.53-3.21,3.41.06,7.2-.52,8.85-.57l18.75-.55c4.9-.16,9.78-.29,14.67-.44,0,1.91,0,3.79,0,5.66,3.45.22,6.87.56,10.28,1.08.68.11,1.37.21,2,.33Z"/><path class="cls-2" d="M1436,1515.5l-2-.37C1434.64,1515.24,1435.32,1515.36,1436,1515.5Z"/><path class="cls-2" d="M1434,1515.13c-.68-.12-1.37-.22-2-.33C1432.59,1514.9,1433.28,1515,1434,1515.13Z"/><path class="cls-2" d="M1432.93,1507.52c-.31,1.92-.63,3.84-.94,5.75a7.84,7.84,0,0,0-.11,1.52h0c-3.41-.52-6.83-.86-10.28-1.08,0-1.87,0-3.75,0-5.66l6-.19A51.71,51.71,0,0,0,1432.93,1507.52Z"/><path class="cls-5" d="M1430.61,1393.48a8.23,8.23,0,0,0-1,11.25c-5.79,29.4-7.78,68.72-8,103.33-4.89.15-9.77.28-14.67.44l-18.75.55c-1.65,0-5.44.63-8.85.57.79-4.73,1.64-9.44,2.5-14.13,17.58-96.08-16.19-107.65-18-170.25-.16-5.43-4.62-7.9-9.2-6.28-42-31.25-60.67-83-73.32-129.91,29.89-64.63,44.62-38.29,45.58-90.22.93-49.92,2.14-50.87-18.67-68.9C1260.94,989,1311.15,793.7,1269,793.7c-29.65,0-40.48,38-47.09,67.23a103.75,103.75,0,0,0-2.57,23.36c0,11.41-.66,13.94-11.34,23.53-1,.94-2.08,1.86-3,2.78-29.05,27.54,4.73,19.46-37.24,62.71,14.11-102.91,56.47-137.24,60.91-207.2,2.4,1.25,78.6,26.73,78.75,26.74,8.11.41,14.06-2.43,25.06-4,2.92,75.66-16.55,90.28.2,158.41,20.22,82.15-15.75,165.77,7.89,165,15.36,38.8,83.54,114.17,80.42,150.2C1415.33,1327.29,1430.64,1392.5,1430.61,1393.48Z"/><path class="cls-4" d="M1398.28,757.9a136,136,0,0,0-1.67,14.19c-12.85,3.12-22.1-3.62-53.83-1.05a8.24,8.24,0,0,0-5.12.48,165.3,165.3,0,0,0-23.53,4.09c-4.69,1.11-75.63-22.25-85.48-29.45-.69-3.65-17-2.22-20.42-31.85C1322.66,747.79,1282.7,784.76,1398.28,757.9Z"/><path class="cls-2" d="M1379.38,1509.62c-.18,1.07-.35,2.13-.53,3.21l-6.45-.55-.4-.11c-2.91-.61-5.82-1.09-8.73-1.48l0-.19a5.62,5.62,0,0,0,1.23-.18c-.13-3.81,5.85-7.75,8.06-3.87.18.34.35.68.49,1l0,0C1374,1509.05,1376.56,1509.56,1379.38,1509.62Z"/><path class="cls-2" d="M1351.44,1358.22c13.25,63,28.21,60.67,14.29,138.29-.82,4.64-1.66,9.3-2.43,14a3.64,3.64,0,0,1-.57,0c-1.9,0-3.86-.25-5.76-.38l-13.42-.9c-1.29-.09-8.88-.25-14.84-1.07-1.22-7.06-2.51-16.28-3.52-28.52-1.18-14.13-.38-28.44-.38-42.6C1333,1409.93,1342,1383.49,1351.44,1358.22Z"/><path class="cls-5" d="M1383.72,744.92c-79.83,23.84-63.21-16.59-176.44-48.89a53.85,53.85,0,0,1,1.55-8.19c29.51-7.7,50.42,15.42,99.64,22.35C1338.58,714.42,1336,714.83,1383.72,744.92Z"/><path class="cls-2" d="M1328.71,1508.14c.07.38.13.75.2,1.12-5.64.07-11.3.2-17,.22h-.23c0-.31-.11-.62-.16-.94l.8,0a11.15,11.15,0,0,1,1.15-6c1.92-4.26,9.15-4.34,8.27,1.31l-.3,1.92C1322,1506.86,1325,1507.63,1328.71,1508.14Z"/><path class="cls-4" d="M1339.25,1345.23c-10.65,27.61-20.15,55.09-28.29,81.91-4.41,5.58-4.5,50.17.57,81.41-10,.54-19.93,1.07-29.89,1.67a4.39,4.39,0,0,0-1.91-.54c-8.27-.54-16.57-.89-24.87-1.12a10.77,10.77,0,0,0,0-2.35c-1.67-16.53-3.89-33.79-8.21-49.84a88.6,88.6,0,0,0-19.34-35.64,17.77,17.77,0,0,0,4-7.6c1.22-5.43,2.38-10.89,3.52-16.35a7.56,7.56,0,0,0-.94-5.43c.61-10.15-2-26.65-11-52.32-14.2-40.82-10.49-64.84-5.63-85.75C1241.64,1299.19,1293.49,1324.82,1339.25,1345.23Z"/><path class="cls-4" d="M1306.12,1051.63c7.08,7.78,3.84,68.36,3.74,69.36,0,0-24.82,21.54-41.55,57.29-9.79,6,11.3,90.73,59.59,140-41-19.82-80.83-43.41-100.48-86.78a7.47,7.47,0,0,0-4.57-4.37c2.77-20.61-.4-43.91-26-83.31-16.61-25.55,52.92-30,1.27-70.61-8.81-6.92-29.91-19.76-30.15-78.14,70.34-71.55,14.45-38.84,55.78-80.68,10.52,25.91,12.5,25.75,4.19,46.54-47,117.58-41.92,72.52,28.69,77.9C1277.36,1040.41,1284,1046.81,1306.12,1051.63Z"/><path class="cls-2" d="M1246.61,955.61c21.11,16,28.47,43.61,35.5,70.45-14.49-4.43-38.29-6.43-61.77-2C1233.34,993.5,1245.36,959.41,1246.61,955.61Z"/><path class="cls-4" d="M1265.16,810.49c14.64,70-.07,110.38-1.31,137a72,72,0,0,0-14.49-10.91c-1-9.45-9.86-27.47-15.16-39.61C1234.54,895.61,1239.63,813.72,1265.16,810.49Z"/><path class="cls-2" d="M1254.86,1508.56a10.69,10.69,0,0,1-10.25,9c-3.37,0-6.48-2-7.38-6.85-.14-.8-.29-1.6-.42-2.41Q1245.84,1508.32,1254.86,1508.56Z"/><path class="cls-2" d="M1244.61,1517.51l0,.82c-20.82-.46-41.64-1-62.5-.74-6.85.08-13.69.24-20.53.43l-.06-2.13a10.49,10.49,0,0,0,9.58-7.29c7.3-.12,14.62-.21,21.92-.25,14.56-.09,29.18-.22,43.81-.1.13.81.28,1.61.42,2.41C1238.13,1515.49,1241.24,1517.51,1244.61,1517.51Z"/><path class="cls-4" d="M1229.61,1463.74c4.39,14.3,4.73,29.77,7.2,44.51-14.63-.12-29.25,0-43.81.1-7.3,0-14.62.13-21.92.25a10.84,10.84,0,0,0,.47-4c-.67-10-2.32-19.89-2.71-30-.3-7.91-1.64-17.63,2.58-24.65a391.32,391.32,0,0,0,21.85-40.88c4.32,5.2,9.4,11.26,15.55,18.86l.06.06a8.3,8.3,0,0,0,1.2,1.8C1219,1440,1225.63,1450.82,1229.61,1463.74Z"/><path class="cls-8" d="M1216.75,1400.25c-.31,1.48-.64,2.94-1,4.41l-.73,3.48-1.7-2.07c-28.59-35.28-24.91-22.46-54.15-125.75-5.85-20.68,20.6-47.13,13.35-71-.87-2.87-28.74-74.5-30.8-76.84,4-92.23-24.4-19.86,13.28-102.87,10.24,54.49,32.4,51.49,45.54,69.05-60.2,81,23.79,42.55,3.06,142.85-20.15,97.58,10.75,93.3,14.76,148.49A7.87,7.87,0,0,0,1216.75,1400.25Z"/><path class="cls-4" d="M1181.47,1394.3c-4.18,8.84-8.26,17.69-12.8,26.35-4.62,8.82-10,17.17-14.73,25.94s-3.22,21.14-3,30.72c.21,10.39.54,21.54,3,31.67l-5.2.14c-7.43.2-18.36,1.88-26.25-1.11-6-22.31-13.79-47.31-24.43-76.8a13.24,13.24,0,0,0,.38-1.47q6-32.84,10.53-65.9c3-22.53,6.47-45.5,7.23-68.23a12.21,12.21,0,0,0-.09-1.95c6.57-21.61,13-63.71,22.24-126.33,35.12,89.64,12.14,37.44,3.53,103.37-.84,6.37.65,12.4,2.24,18C1164.43,1360.88,1168.11,1375.91,1181.47,1394.3Z"/><path class="cls-2" d="M1171.08,1508.6a10.49,10.49,0,0,1-9.58,7.29c-3.32,0-6.45-2-7.6-6.81a.36.36,0,0,1,0-.1Q1162.47,1508.76,1171.08,1508.6Z"/><path class="cls-2" d="M1161.5,1515.89l.06,2.13c-9,.24-18.08.5-27.11.62-6.42.08-13.74-.73-19.43-3.84a11,11,0,0,1-5,3.46c-4.06,1.45-8.32,1.21-12.55,1.12L1080,1519l-33-.68-67.85-1.4q-16.47-.33-33-.7c-3.09-.07-7.91.1-11.61-1.07a3.15,3.15,0,0,1-.73-.25,7.93,7.93,0,0,1-3-1.85l.6-1.15c4.37,2.46,10.25-.64,12.63-5.16,2.31.09,4.55.29,5.29.31l13.57.26,27.15.56,54.28,1.11,54.28,1.12c2.11,0,7.42.9,9.66-.56a97.44,97.44,0,0,1,14.5.19c-.15-.57-.31-1.16-.46-1.74,7.89,3,18.82,1.31,26.25,1.11l5.2-.14a.36.36,0,0,0,0,.1C1155.05,1513.88,1158.18,1515.89,1161.5,1515.89Z"/><path class="cls-2" d="M1122.43,1508c.15.58.31,1.17.46,1.74a97.44,97.44,0,0,0-14.5-.19,2.91,2.91,0,0,0,.33-.26,17.5,17.5,0,0,1-2.46-5.1,5,5,0,0,1,1.33-4.81c-.1-.4-.18-.73-.24-.94-1.81-7.94-5-15.12-8.49-22.43-2-4.2,5.06-9.92,7.79-5.46a79.59,79.59,0,0,1,10,27.29,50.38,50.38,0,0,1,.89,7.3A15.64,15.64,0,0,0,1122.43,1508Z"/><path class="cls-5" d="M1106.18,1509.72c.74-.07,1.47-.11,2.21-.16-2.24,1.46-7.55.6-9.66.56l-54.28-1.12-54.28-1.11-27.15-.56-13.57-.26c-.74,0-3-.22-5.29-.31a7.92,7.92,0,0,0,.27-7.48c-3.11-6.16-6.34-12-9-18.4a7.46,7.46,0,0,0-3.06-3.59c-1.69-4-3.57-8-5.4-11.87-1.08-2.27-2.19-4.61-3.23-6.9l-1.74-3.81-10.16-22.34c-2-4.35-4.05-8.77-6-13C825.93,1248.57,965,1109.45,862,985.5c15.08-23.59-48.81-93.24-49.46-138.4-.43-29.8,19.29-41.94-6-82.67a129,129,0,0,1,2.35-43.25c3.39-14.49,10.36-27.83,18.93-39.88C836.57,669,847,657.92,857,646.61c5-5.63,10.3-11.5,15.17-17.71,9.68,93,19.2,215.11,19.2,215.11,22.86,123.62,51.48,94.16,87.31,215.38a7.86,7.86,0,0,0,1.35,2.68c39.46,178.59-4.61,106.78,47.28,236.47C1027.29,1298.54,1087.77,1444.78,1106.18,1509.72Z"/><path class="cls-2" d="M940.22,1506.77a34.27,34.27,0,0,1,3.94,0c-2.38,4.52-8.26,7.62-12.63,5.16a7.64,7.64,0,0,1-2.3-2,46.77,46.77,0,0,1-3-4.38,2,2,0,0,0,.12-.26c1.17-3.3.79-6.82.36-10.23-.57-4.6,7-8.81,8.75-3.4C937.05,1496.69,938.65,1501.73,940.22,1506.77Z"/><path class="cls-2" d="M931.53,1511.92l-.6,1.15a12.53,12.53,0,0,1-1.67,1.25c-4.45,2.75-9.56,2.44-14.61,2.46-5.83,0-11.67.09-17.5.13l-72,.59-73.91.61c-23.95.19-48,1.05-71.95.41a3.59,3.59,0,0,1-2.39-.83c-7.18-.17-14.3-.93-21.63-1.65-11.12-1.08-21.6,1.31-32.56,2.64a54.82,54.82,0,0,1-15.19.07,34.33,34.33,0,0,1-8.51-2.16c.68,0,1.35,0,2-.09,1.75-2.61,3.57-5.18,5.45-7.68a29.31,29.31,0,0,0,8.22,1.16c8.55,0,16.89-1.93,25.33-3,8.63-1.08,16.76-.12,25.33.87a138,138,0,0,0,25.79.43,3,3,0,0,1,2.78,1.19c17.57-.38,35.17-.17,52.72-.32l21.07-.18c0-1.69,0-3.37,0-5.07a25.53,25.53,0,0,0,6.75,8.43c4.25,3.4,9.71.71,12.58-3.52l25.74-.23L879,1508c11-.1,22-.17,33.08-.29,3.16,0,12.49,1.45,14.21-2.21a46.77,46.77,0,0,0,3,4.38A7.64,7.64,0,0,0,931.53,1511.92Z"/><path class="cls-4" d="M919.64,1490.32a66.7,66.7,0,0,0,6.6,15.22c-1.72,3.66-11,2.18-14.21,2.21-11,.12-22,.19-33.08.29l-66.13.56-25.74.23c2.28-3.36,2.93-7.69,0-10.72a23.63,23.63,0,0,1-3.61-5.07c.1-2.54-.63-4.78-2.44-5.93-1.11-3.46-1.86-7.08-2.81-10.65-2.7-10.28-5.26-20.62-8.3-30.82a6.12,6.12,0,0,0-3.85-4.34c-9.74-53.31-31-68.79-51.33-106.39-12-22.13-23.74-60.26-23.74-60.26,41.5-169.85,62.82-29.51,54.76-235,1.6-2.71,3.14-5.49,4.54-8,.4,1,31.16,124.42,71.48,126.21,19.62.87,35.4,132.25,44.76,142.38,4.44,82.16-7.82,56.43,30,139.82,2.31,5.1,4.58,10.39,6.77,15.51C908.3,1467.2,913.45,1479.17,919.64,1490.32Z"/><path class="cls-4" d="M884.87,1063.84c12.82,37.84-7.28,50.74-16.53,176.39-40.09-163.15-23-56.19-65.9-123-33-51.36-28.9-85-41.94-103,2.35-4,4.51-7.61,6.51-10.94l.66-1.11c.87-1.46,1.7-2.85,2.51-4.19.19-.34.39-.68.59-1,5.33-9,9.08-15.56,11.36-21.19l.19-.48a35.92,35.92,0,0,0,2.19-7.73c0-.3.08-.6.12-.92a.78.78,0,0,0,0-.16c0-.31.07-.62.1-.93a.76.76,0,0,1,0-.15c0-.36,0-.71.06-1.07,10.14,3.33,20.39,6.43,30.6,9.44a8.19,8.19,0,0,0,3.78.23h0c.64.26,1.28.53,1.91.82a58.7,58.7,0,0,1,5.67,2.94c.49.28,1,.59,1.47.9l1.46.93c1,.63,1.91,1.29,2.86,2l1.41,1.06c1.4,1.08,2.77,2.2,4.12,3.39s2.69,2.42,4,3.71c.4.39.79.77,1.18,1.17,1,1,1.94,2,2.89,3.06.35.38.69.75,1,1.14a132.58,132.58,0,0,1,8.46,10.59c.79,1.09,1.55,2.19,2.32,3.3s1.51,2.21,2.24,3.34l0,0,1.08,1.69,1.08,1.71c.71,1.15,1.4,2.3,2.09,3.46s1.35,2.31,2,3.47l1,1.75c.65,1.17,1.28,2.34,1.89,3.5l.92,1.75.94,1.82c.85,1.67,1.65,3.32,2.45,5,2.25,4.68,4.27,9.29,6.06,13.68q1.34,3.25,2.49,6.33c.59,1.54,1.13,3,1.65,4.5.17.48.34,1,.5,1.43S884.71,1063.37,884.87,1063.84Z"/><path class="cls-4" d="M875,519.38a20.2,20.2,0,0,0,6.15-2.63c-.79,35.66-31.56,34.62-49.86,43.4-10.71,5.14-19.55,14.69-30.38,13.34-100.93-32.2-99.75-29.61-87.19-76.43,3.85,35.18-2.58,33.21,32.58,49.43C809,575.38,840.18,529.66,875,519.38Z"/><path class="cls-5" d="M874.9,483.92a36.51,36.51,0,0,1-3.3,19.49c-53.65,20-64.41,59.11-139.13,17-2.15-19.68-3.89-35.65-5.65-51.3C800.9,483.22,864,416.29,874.9,483.92Z"/><path class="cls-4" d="M869.2,601.65c-.15.28-.28.57-.4.86-2.76,6.63-7.81,12.66-12.18,18.3-4.76,6.15-9.87,12-15,17.84-10.59,11.94-21.36,23.76-30.33,37a138.08,138.08,0,0,0-16.73,34.13c1.24-22.77,5-58.08,9.19-119.84,17.07-.91,21.36-12.46,49.29-21,3.86-1.19,7.83-2.41,11.71-3.95C866.17,575.69,867.68,588.12,869.2,601.65Z"/><path class="cls-2" d="M847.19,995.12c-.33-.39-.67-.76-1-1.14Q846.7,994.54,847.19,995.12Z"/><path class="cls-2" d="M844.3,968.57a99.81,99.81,0,0,0-9-5.91q-.6-.36-1.17-.66l-1.14-.62q-.6-.33-1.2-.63l-1-.48-1.05-.48c-.63-.28-1.23-.55-1.81-.78l-1.24-.49-.86-.3h0a8,8,0,0,0-3.49-2.16c-13-4.19-26.22-8.29-39.45-11.9a8.43,8.43,0,0,0-3-.27c-3.68-9.14-6.64-17.22-9-24.44-.44-1.35-.85-2.67-1.25-4-1.27-4.16-2.31-8-3.16-11.63-.22-1-.44-1.93-.63-2.86-10.4-49,19.27-47.06,35-111.09,6.65,17.23-6.53,40.48-4.73,65.58C799.17,896.63,833.37,928.48,844.3,968.57Z"/><path class="cls-2" d="M843.28,990.92c-.39-.4-.78-.78-1.18-1.17C842.5,990.13,842.89,990.52,843.28,990.92Z"/><path class="cls-2" d="M842.1,989.75c-1.3-1.29-2.64-2.52-4-3.71C839.46,987.22,840.8,988.45,842.1,989.75Z"/><path class="cls-2" d="M838.11,986c-1.35-1.19-2.72-2.31-4.12-3.39Q836.09,984.26,838.11,986Z"/><path class="cls-2" d="M835.31,962.66c-.4-.24-.79-.45-1.17-.66Q834.71,962.3,835.31,962.66Z"/><path class="cls-2" d="M834.14,962c-.38-.22-.76-.42-1.14-.62Z"/><path class="cls-2" d="M834,982.65l-1.41-1.06C833.05,981.93,833.52,982.29,834,982.65Z"/><path class="cls-2" d="M831.8,960.75l-1-.48Z"/><path class="cls-2" d="M832.58,981.59c-1-.7-1.9-1.36-2.86-2C830.68,980.22,831.63,980.89,832.58,981.59Z"/><path class="cls-2" d="M830.83,960.27l-1.05-.48Z"/><path class="cls-2" d="M829.72,979.6l-1.46-.93C828.75,979,829.24,979.27,829.72,979.6Z"/><path class="cls-2" d="M828,959c.58.23,1.18.5,1.81.78C829.16,959.51,828.56,959.25,828,959Z"/><path class="cls-2" d="M826.73,958.52c-.29-.09-.58-.2-.86-.3Z"/><path class="cls-2" d="M822.37,956.05a8,8,0,0,1,3.49,2.16c-19.78-6.79-20.55,11.54-11.92,14A47.39,47.39,0,0,1,819.2,974a8.19,8.19,0,0,1-3.78-.23c-10.21-3-20.46-6.11-30.6-9.44.22-5.88-1.47-11.91-4.88-20.39a.19.19,0,0,0,0-.07,8.43,8.43,0,0,1,3,.27C796.15,947.76,809.32,951.86,822.37,956.05Z"/><path class="cls-2" d="M826.79,977.77a58.7,58.7,0,0,0-5.67-2.94A55.48,55.48,0,0,1,826.79,977.77Z"/><path class="cls-2" d="M785.77,1508.84h1.31c-2.87,4.23-8.33,6.92-12.58,3.52a25.53,25.53,0,0,1-6.75-8.43v-5.16c0-2.56,1.3-5,4-5.68a4,4,0,0,1,1.61-.07c2.33-1.56,5.48-1.29,6.16,2.56A30.76,30.76,0,0,0,785.77,1508.84Z"/><path class="cls-4" d="M782.06,585.63c2.13.62,4.11,1.18,6,1.72-12.87,146-14.24,154.54,1.12,181.44-14.93,90.92-59.52,63.35-30.29,165.76,7,24.61,30.21,33.69-57.56,125,.83-16.5-1.37-68.89-12.81-115.77,6.77-18,20.22-60.21,24.11-92,59.54-83.5,62.87-88.73,44.41-197.39C769.13,612.81,779,617.45,782.06,585.63Z"/><path class="cls-2" d="M782.13,975.78c.06-.17.13-.32.19-.48Z"/><path class="cls-2" d="M769.7,915.47c.4,1.3.81,2.62,1.25,4C770.51,918.09,770.1,916.77,769.7,915.47Z"/><path class="cls-2" d="M767.75,1503.92c0,1.7,0,3.38,0,5.07l-21.07.18c-17.55.15-35.15-.06-52.72.32a3,3,0,0,0-2.78-1.19,138,138,0,0,1-25.79-.43c-8.57-1-16.7-1.95-25.33-.87-8.44,1-16.78,3-25.33,3a29.31,29.31,0,0,1-8.22-1.16A164.16,164.16,0,0,1,624,1489c3.34-3.22,7.06-6.25,10.65-9.2,42.71-34.94,52.57-113.84,52.58-166.91,24.25,66.59,53.91,71.72,64.21,141.67,4.18,28.41,10,42.3,15.63,47.93C767.28,1503,767.5,1503.46,767.75,1503.92Z"/><path class="cls-2" d="M767,1003.27c.22-.37.45-.74.66-1.11Z"/><path class="cls-2" d="M765.91,901c.19.93.41,1.89.63,2.86C766.32,902.87,766.1,901.91,765.91,901Z"/><path class="cls-2" d="M764.46,580.12a7.12,7.12,0,0,0,1.49,4.93c-1,12.79-2.83,17.72-9,28,.19-12.05-.16-24.07-1.07-35.9C758.63,578.15,761.47,579.13,764.46,580.12Z"/><path class="cls-8" d="M744.91,702.68c1.57,22.1,2.4,43.52,2.32,69.91a249.56,249.56,0,0,0-33.29,43.29C712.5,760.61,724.85,780.35,744.91,702.68Z"/><path class="cls-8" d="M730.07,1057.73c-3.13,187.94-9.48,39.63-54.87,214.07-9.9,38,7.32,148.7-50.74,195.35A177.53,177.53,0,0,0,588,1507.07a33.75,33.75,0,0,1-5.18,1.69c-5.73,1.38-11.64,1.13-17.56,1a3,3,0,0,0-.23-.48c6.62-10.59,13.64,3.79,28.77-36.31,16.1-10.8,11.07-141.16,41.88-225.75,2.68-7.37,5.51-14.85,8.24-22.08,9.6-25.37,21.6-56.88,26.81-86.21,2.77-1.86,3.49-2.56,22-45.07,3.22-.93,4.56-3.27,6.61-6.07C716.83,1063.88,720.87,1063.88,730.07,1057.73Z"/><path class="cls-2" d="M610.25,1493.82a5,5,0,0,1-.13,5.14,42.84,42.84,0,0,1-7,8.69l.19.1c1.08.41,2.16.77,3.25,1.07-1.88,2.5-3.7,5.07-5.45,7.68-.68,0-1.35.07-2,.09a8.82,8.82,0,0,1-3.51-2.62l-.28-.43a38.1,38.1,0,0,1-7.78,3.45c-1.75,0-3.51.09-5.27.11a9.14,9.14,0,0,1,1.06-2.54q2.31-3.82,4.76-7.49a32.41,32.41,0,0,0,5.28-2.79,3.56,3.56,0,0,1,.26-.31c.41-.41.81-.82,1.21-1.25,1.8-4.79,5.52-9.38,8.46-12.38A4.12,4.12,0,0,1,610.25,1493.82Z"/><path class="cls-2" d="M595.53,1514a8.82,8.82,0,0,0,3.51,2.62c-3.86.18-7.71.31-11.57.4a38.1,38.1,0,0,0,7.78-3.45Z"/><path class="cls-2" d="M587.47,1517c-.26.09-.52.16-.79.24-7.36,2.13-14.92,1.59-22.42,1.66v-1.64h.82a8.78,8.78,0,0,0,.2-7.45c5.92.09,11.83.34,17.56-1a33.75,33.75,0,0,0,5.18-1.69q-2.46,3.67-4.76,7.49a9.14,9.14,0,0,0-1.06,2.54C584,1517.08,585.72,1517,587.47,1517Z"/><path class="cls-5" d="M577.15,1405.19c4.79,18.13,6.55,35.41,5.24,51.39-1.53,4.84-3.33,9.88-5.36,15-.25.65-.5,1.3-.76,2-2.44,6.25-4.95,12.72-10.09,15.9-1.07.66-2.17,1.29-3.23,1.9-4.1,2.32-8.34,4.74-11.48,9.44a17.58,17.58,0,0,0-2.8,7.07c-6.15.21-12.29.71-18.44.72a18.82,18.82,0,0,1-5.55-.92,7.92,7.92,0,0,0,.71-2.89c.48-9.55.87-19.11,1.3-28.66.18-4.17,1.14-9.26-.41-13.25a10.39,10.39,0,0,0-1.48-2.63c-1.8-53.93-63.86-166.49-83.9-200.46a824.32,824.32,0,0,0,41-93.93l.45-1.24c2.7-7.38,5.48-15,3.45-23.79-3.36-14.47-22.66-65.2-100.4-135.83-62.23-56.54-46.73-151.36-61.56-183.82-1.52-6.21-3.19-12.41-4.47-18.61C317,791,315,779.3,313.22,767.6c-1.65-11.06-3-22.19-4.06-33.33-.53-5.37-.86-10.77-1.19-16.16,12.91,4.4,27.34,5.12,42.81-4,2.85,1.61,5.16,1.15,13.64-.27-.6,57.45,22.66,108.56,36.93,181.74,20.41,104.68,50.87,99.4,91.17,137.86,10.67,10.19,17.49,21.26,20.28,32.91,8.47,35.34-16.82,81.66,9.48,150.51a210.22,210.22,0,0,0,9.16,19.79c4.43,8.74,8.6,17,11.2,26,2.24,7.82,2.57,16.53,3.24,24.86C549.48,1332.18,566.6,1365.23,577.15,1405.19Z"/><path class="cls-2" d="M568.1,1492.21a4.32,4.32,0,0,1,2.63,7.08c-2.66,3.51-5.31,7-8,10.48l2.55,0a8.78,8.78,0,0,1-.2,7.45h-9.9a20.26,20.26,0,0,0-4.85.57,16.05,16.05,0,0,1-1.66-10l.8,0a33.79,33.79,0,0,1,14.14-15.87A3.75,3.75,0,0,1,568.1,1492.21Z"/><path class="cls-2" d="M564.26,1517.25v1.64a56.24,56.24,0,0,0-12.12,1.19,4.11,4.11,0,0,1-4.92-2.88c-4.65.26-9.32.38-14,.58-4.44.19-8.91.17-13.13-1.16a7.7,7.7,0,0,1-4.56.33c-1.73,1.06-4,1.21-5.36,0-22.43,3.77-45.38-1.44-67.94-.64-11.56.4-22.84,2.67-34.31,3.92-11.69,1.27-22.82.33-34.44-1.08a109.08,109.08,0,0,0-18.22-1.17c-6.29.3-12.45,1.41-18.67,2.25-5.68.76-11.52,1.57-17.25,1.06-5.48-.5-10.7-2.27-16.13-2.85-11.63-1.26-23.5-1.14-35.18-1.59-11.1-.42-22.73-1.16-33.11,3.5-2.87,1.3-5.34,0-6-3-.05-.23-.08-.45-.13-.67-41.78,2.38-83.87,2.31-125.7,2.44q-32.88.08-65.78-.33c-4.76-.06-10.47.43-15.67-.41a9.49,9.49,0,0,0,5.82-7.06c.13-.72.29-1.44.45-2.14,2.92.09,5.85.09,8.78.13q14.52.21,29,.29,29,.19,58.05,0c33.11-.26,66.21-1.55,99.32-2.05-.54.67-1.09,1.33-1.62,2a23.13,23.13,0,0,1,5.54,1.3,81,81,0,0,1,11.35,3.84l5-6.16a93.17,93.17,0,0,1,20.69-1.2c11.71.4,23.46.65,35.15,1.36,5.9.36,11.4,1.75,17.18,2.76,6.37,1.12,12.89.67,19.26-.24,11.32-1.62,22.24-3.18,33.7-2,12.14,1.3,24.05,3.27,36.31,2.09,11.42-1.11,22.7-3.57,34.18-4.14,22.57-1.11,44.94,2.8,67.48,1.12a35.48,35.48,0,0,1,.61-4.24c0,.12,0,.23,0,.35-.19,4.7,2.12,9.32,7.45,9.41a10.7,10.7,0,0,0,9.3-6.23,18.82,18.82,0,0,0,5.55.92c6.15,0,12.29-.51,18.44-.72a16.05,16.05,0,0,0,1.66,10,20.26,20.26,0,0,1,4.85-.57Z"/><path class="cls-2" d="M526.28,1462.83c1.55,4,.59,9.08.41,13.25-.43,9.55-.82,19.11-1.3,28.66a7.92,7.92,0,0,1-.71,2.89,13.78,13.78,0,0,1-5.18-2.84,7.2,7.2,0,0,1,.4-.78c1-2.38.4-4.07-.93-4.94,0-.46.07-.91.1-1.37,0-.19,0-.35,0-.53.14-1,.27-2,.38-3a4.22,4.22,0,0,0-7.92-2.51,19.73,19.73,0,0,0-2.55,8.52,39.54,39.54,0,0,0-1,3.84c.27-6.24.6-12.48.9-18.72.06-1.27.13-2.53.18-3.81a7.44,7.44,0,0,1-1.94-1.94s1.08-3.76.63-12.59v0c-1.19-23.09-12.89-80.84-81.93-197.07-.22-.38-.48-.78-.75-1.19-1.64-2.52-4.37-6.73-2.09-11.14,1.46-2.79,3.16-6.09,4.85-9.44,3.54-7,6.58-13.27,9.32-19.09,6.7-14.24,12.54-27.59,17.89-40.85,3.22-8,6-15.09,8.45-21.78.53-1.44,1.18-2.94,1.86-4.54,2.05-4.8,4.61-10.8,3.67-14.87-1.56-6.74-5-13.56-8.27-20.16-.52-1.06-1.05-2.1-1.56-3.13-3.77-7.67-7.38-14.34-11-20.39a292.87,292.87,0,0,0-27.35-38.42c-37.68-44.55-64-48.85-85.27-99.11,1,48.88-31.6,100.06-31.66,100.61,0,0,13.48,32.51,16.76,46,11.5,47.42-.42,53.56,9.65,54.77,58.38,7.1,48.2-5.11,62.94,76.66,11.52,63.48-96.86,199.85-149.81,264.71-.8.16-1.61.34-2.41.52a2.93,2.93,0,0,0-2.45-1.61l.16-.32,4.21-4a4.77,4.77,0,0,0,1-1.37l1.83-1.7c4.37-4-.49-11.13-5.26-6.86l-.94.83a3.92,3.92,0,0,0-1.81.57,34.06,34.06,0,0,0-11.88,12.87l-2.76,0c15.37-18.9,30.94-38.11,46.17-57.78-.16-.28-.31-.57-.45-.88a8.66,8.66,0,0,1,.57-7.81c-.55-5-.59-10.2-1.19-15.21-.84-7-1.92-14-3.35-20.88a309.86,309.86,0,0,0-11.44-40.3c-9.74-27.5-22.27-53.89-34.75-80.23a8,8,0,0,1-.53-5.59c9.22,18,17.1,28.22,22.11,21.14,1.43-2,.06-9-3.13-19l.07,0c14.48,29.15,28.35,58.81,37.81,90,5,16.46,9,33.33,10.93,50.43.21,1.9.42,3.79.59,5.68,33-44.3,63.37-91,85.47-141.14,7.29-16.53,7.85-19.63,3.15-44-12.41-64.43-2.44-51.54-36-55.59-56.6-6.79-9.06-24.45-47.29-100.53a50.74,50.74,0,0,1-2.57-6,7.33,7.33,0,0,1-1.08-.62c-13.27-8.92-24.38-21.65-30.61-36.44a8.54,8.54,0,0,0,4.5,1.28,9,9,0,0,0,7.19-3.71,63.41,63.41,0,0,0,4.42-6.55A77.8,77.8,0,0,0,290,1056c8.74-21.34,34.76-43.78,25.21-119.49-3.35-26.53-3.81-32.8-1.38-64.15.64-8.24-4.79-26.41-6.94-40.15-1.34-5.16-2.39-10.47-3.39-15.72a8.59,8.59,0,0,1-3-.32c-7-2-14.53-4.31-20.66-8.47a94,94,0,0,1-15-13.12,122.65,122.65,0,0,1-11-13.38c.09-9,0-19.61-.31-32.16a7.75,7.75,0,0,1,5.18,4.25,119,119,0,0,0,20.47,28.56c3.92,4,8.19,8,13.09,10.82a39.86,39.86,0,0,0,7.28,3.08q-2.19-11.81-3.95-23.71c-3-20.59-5.89-41.83-6.12-62.78A103.51,103.51,0,0,0,308,718.11c.33,5.39.66,10.79,1.19,16.16,1.09,11.14,2.41,22.27,4.06,33.33C315,779.3,317,791,319.34,802.52c1.28,6.2,3,12.4,4.47,18.61,14.83,32.46-.67,127.28,61.56,183.82,77.74,70.63,97,121.36,100.4,135.83,2,8.8-.75,16.41-3.45,23.79l-.45,1.24a824.32,824.32,0,0,1-41,93.93c20,34,82.1,146.53,83.9,200.46A10.39,10.39,0,0,1,526.28,1462.83Z"/><path class="cls-2" d="M519,1499.07c1.33.87,2,2.56.93,4.94a7.2,7.2,0,0,0-.4.78,13.78,13.78,0,0,0,5.18,2.84,10.7,10.7,0,0,1-9.3,6.23c-5.33-.09-7.64-4.71-7.45-9.41,0-.12,0-.23,0-.35v0a39.54,39.54,0,0,1,1-3.84,19.73,19.73,0,0,1,2.55-8.52,4.22,4.22,0,0,1,7.92,2.51c-.11,1-.24,2-.38,3,0,.18,0,.34,0,.53C519,1498.16,519,1498.61,519,1499.07Z"/><path class="cls-7" d="M509,1481.53c0,1.28-.12,2.54-.18,3.81-.3,6.24-.63,12.48-.9,18.72v0a35.48,35.48,0,0,0-.61,4.24c-22.54,1.68-44.91-2.23-67.48-1.12-11.48.57-22.76,3-34.18,4.14-12.26,1.18-24.17-.79-36.31-2.09-11.46-1.21-22.38.35-33.7,2-6.37.91-12.89,1.36-19.26.24-5.78-1-11.28-2.4-17.18-2.76-11.69-.71-23.44-1-35.15-1.36a93.17,93.17,0,0,0-20.69,1.2c52.95-64.86,161.33-201.23,149.81-264.71-14.74-81.77-4.56-69.56-62.94-76.66-10.07-1.21,1.85-7.35-9.65-54.77-3.28-13.5-16.76-46-16.76-46,.06-.55,32.63-51.73,31.66-100.61,21.27,50.26,47.59,54.56,85.27,99.11a292.87,292.87,0,0,1,27.35,38.42c3.65,6.05,7.26,12.72,11,20.39.51,1,1,2.07,1.56,3.13,3.3,6.6,6.71,13.42,8.27,20.16.94,4.07-1.62,10.07-3.67,14.87-.68,1.6-1.33,3.1-1.86,4.54-2.47,6.69-5.23,13.81-8.45,21.78-5.35,13.26-11.19,26.61-17.89,40.85-2.74,5.82-5.78,12.07-9.32,19.09-1.69,3.35-3.39,6.65-4.85,9.44-2.28,4.41.45,8.62,2.09,11.14.27.41.53.81.75,1.19,69,116.23,80.74,174,81.93,197.07v0c.45,8.83-.63,12.59-.63,12.59A7.44,7.44,0,0,0,509,1481.53Z"/><path class="cls-5" d="M408.5,683.82a263.59,263.59,0,0,1-26.59,8.36,7.19,7.19,0,0,0-6.57-6.17c1-56.93-60.49-30.56-122.19-79.06C316.48,605.68,329.89,628.49,408.5,683.82Z"/><path class="cls-4" d="M375.12,1241.93c4.7,24.41,4.14,27.51-3.15,44-22.1,50.17-52.47,96.84-85.47,141.14-.17-1.89-.38-3.78-.59-5.68-1.94-17.1-6-34-10.93-50.43-9.46-31.21-23.33-60.87-37.81-90a16.44,16.44,0,0,0,.8-2.33c8.14-31.73,10-65.37,8.6-98a346.65,346.65,0,0,0-5.51-47.76c-3-16.41-7.27-32.07-7.53-48.84-.06-3.59-1.78-5.64-4.12-6.46,7.3-10.95,13.6-22.38,17.68-33.49,16.61-45.13,14.1-92.93,9-146.08,25.22,4.28,20.08,104-.5,132.49-3.44,4.77-1.77,9.9,1.95,12.24,6.23,14.79,17.34,27.52,30.61,36.44a7.33,7.33,0,0,0,1.08.62,50.74,50.74,0,0,0,2.57,6c38.23,76.08-9.31,93.74,47.29,100.53C372.68,1190.39,362.71,1177.5,375.12,1241.93Z"/><path class="cls-4" d="M358.52,692.32C342.89,696.47,329.81,708,329.81,708c-2.72,0-12.33-5.73-24.28-12.19a7,7,0,0,0-6.55-3.46C281,683,259.77,674,248.73,679.8a6.49,6.49,0,0,0-2.07-.89c-12.06-9.6-23.92-19.5-35.28-29.47A387.52,387.52,0,0,1,229.25,610C291,670,355.9,642.82,358.52,692.32Z"/><path class="cls-8" d="M315.19,936.52c9.55,75.71-16.47,98.15-25.21,119.49a77.8,77.8,0,0,1-16.29-22.24c30.16-51,21.85-180.39-30.69-150.28a10,10,0,0,0-5.11,9.57c7.43,75.73,11.16,137.86-34.64,192.8-4.61,5.52-29.83,32.36-40,39.53-2.87-2.51-6-4.68-9.15-6.9,89.21-116-21.48-125.47,48.68-226.11,40.7-58.4,50.44-51.82,51-111.17a122.65,122.65,0,0,0,11,13.38,94,94,0,0,0,15,13.12c6.13,4.16,13.62,6.42,20.66,8.47a8.59,8.59,0,0,0,3,.32c1,5.25,2,10.56,3.39,15.72,2.15,13.74,7.58,31.91,6.94,40.15C311.38,903.72,311.84,910,315.19,936.52Z"/><path class="cls-2" d="M306.49,699c.7,6.36,1.09,12.75,1.48,19.15a103.51,103.51,0,0,1-18.55-8.84q-.06-4.15,0-8.3c.13-5.26,5-8.55,9.52-8.64,2.24,1.17,4.43,2.32,6.55,3.46A8,8,0,0,1,306.49,699Z"/><path class="cls-2" d="M305.53,695.79c-2.12-1.14-4.31-2.29-6.55-3.46A7,7,0,0,1,305.53,695.79Z"/><path class="cls-4" d="M295.54,772.05q1.74,11.91,3.95,23.71a39.86,39.86,0,0,1-7.28-3.08c-4.9-2.78-9.17-6.82-13.09-10.82a119,119,0,0,1-20.47-28.56,7.75,7.75,0,0,0-5.18-4.25c-.29-14-.76-30.52-1.28-50.14a10.67,10.67,0,0,0,3.71-4.31c7.58-3,19.1,6.24,33.52,14.67C289.65,730.22,292.55,751.46,295.54,772.05Z"/><path class="cls-2" d="M272.52,1031.33c.38.82.76,1.63,1.17,2.44a63.41,63.41,0,0,1-4.42,6.55,9,9,0,0,1-7.19,3.71,8.54,8.54,0,0,1-4.5-1.28c-.39-.94-.77-1.87-1.12-2.81C252.84,1030.23,267.63,1020.74,272.52,1031.33Z"/><path class="cls-4" d="M268.81,1448.92c.14.31.29.6.45.88-15.23,19.67-30.8,38.88-46.17,57.78-33.11.5-66.21,1.79-99.32,2.05q-29,.24-58,0-14.51-.08-29-.29c-2.93,0-5.86,0-8.78-.13a72.05,72.05,0,0,1,2-7.23c.09-.25.16-.51.25-.76,13.7-39.86,57.86-68.16,55.21-170-2.45-94.61-39.94-81.92,56.94-198.1.24.18.47.38.69.57-.11,5.79,6.07,9.65,10.46,10.68,16.19,12.49,43.8,93.66,64.64,134.52h0a8,8,0,0,0,.53,5.59c12.48,26.34,25,52.73,34.75,80.23a309.86,309.86,0,0,1,11.44,40.3c1.43,6.91,2.51,13.87,3.35,20.88.6,5,.64,10.16,1.19,15.21A8.66,8.66,0,0,0,268.81,1448.92Z"/><path class="cls-2" d="M253.47,749.05c.27,12.55.4,23.13.31,32.16a116,116,0,0,1-11.12-19.35C239.42,754.64,247.19,747.63,253.47,749.05Z"/><path class="cls-2" d="M246.57,1180.65c1.36,32.63-.46,66.27-8.6,98a16.44,16.44,0,0,1-.8,2.33l-.07,0c-2.73-8.58-6.8-19.38-11.6-31.19,3.06-22.62,4.46-45.29,3-68.36a356.17,356.17,0,0,0-6-47.71c-2.45-12.32-6.1-24.84-6.77-37.48,4.74-5.94,9.39-12.22,13.68-18.67,2.34.82,4.06,2.87,4.12,6.46.26,16.77,4.53,32.43,7.53,48.84A346.65,346.65,0,0,1,246.57,1180.65Z"/><path class="cls-2" d="M240.48,1493.26c4.77-4.27,9.63,2.81,5.26,6.86l-1.83,1.7a4.77,4.77,0,0,1-1,1.37l-4.21,4-.16.32a2.93,2.93,0,0,1,2.45,1.61c.8-.18,1.61-.36,2.41-.52l-5,6.16a81,81,0,0,0-11.35-3.84,23.13,23.13,0,0,0-5.54-1.3c.53-.67,1.08-1.33,1.62-2l2.76,0a34.06,34.06,0,0,1,11.88-12.87,3.92,3.92,0,0,1,1.81-.57Z"/><path class="cls-2" d="M237.1,1281c3.19,10,4.56,17,3.13,19-5,7.08-12.89-3.1-22.11-21.14h0a10.14,10.14,0,0,1,3.58-5.18c1.44-8,2.73-15.93,3.8-23.9C230.3,1261.62,234.37,1272.42,237.1,1281Z"/><path class="cls-2" d="M228.54,1181.45c1.42,23.07,0,45.74-3,68.36-17.55-43.14-44.88-99.71-52.58-110.59,8.68-5.71,26.35-22.33,42.81-43,.67,12.64,4.32,25.16,6.77,37.48A356.17,356.17,0,0,1,228.54,1181.45Z"/><path class="cls-2" d="M215.9,1086.12c.61-6.41,8.49-10.28,13.51-8.53-4.29,6.45-8.94,12.73-13.68,18.67A68.71,68.71,0,0,1,215.9,1086.12Z"/><path class="cls-2" d="M27.36,1489.11a4.13,4.13,0,0,1,4.37,4.73,32.2,32.2,0,0,1-1.55,7.41c-.09.25-.16.51-.25.76-.3.85-.64,1.7-1,2.54-.45,1.38-1,2.74-1.52,4.1-.09.2-.17.37-.27.56l.79,0c-.16.7-.32,1.42-.45,2.14a9.49,9.49,0,0,1-5.82,7.06,17.93,17.93,0,0,1-9.27-4,12.78,12.78,0,0,1-1.46-1.58,5.05,5.05,0,0,1-.53-.24,9.4,9.4,0,0,1,.1-2.66,89.33,89.33,0,0,1,4.6-16.87,5,5,0,0,1,1.86-.81,5.79,5.79,0,0,1,2.75-1l0-.06a4.44,4.44,0,0,1,5-2.06,4.59,4.59,0,0,1,.91,0A4.2,4.2,0,0,1,27.36,1489.11Z"/><path class="cls-2" d="M28.92,1504.55c.37-.84.71-1.69,1-2.54a72.05,72.05,0,0,0-2,7.23l-.79,0c.1-.19.18-.36.27-.56C28,1507.29,28.47,1505.93,28.92,1504.55Z"/><path class="cls-2" d="M21.65,1518.44a9.83,9.83,0,0,1-3.75.77,7.52,7.52,0,0,1-5.86-2.55,7.29,7.29,0,0,1-1.65-4,5.05,5.05,0,0,0,.53.24,12.78,12.78,0,0,0,1.46,1.58A17.93,17.93,0,0,0,21.65,1518.44Z"/><path class="cls-2" d="M13.27,1495.38a5.16,5.16,0,0,1,1.82-2.26,89.33,89.33,0,0,0-4.6,16.87,9.4,9.4,0,0,0-.1,2.66,4.45,4.45,0,0,1-2-5.61c0-.08.07-.17.11-.25a12,12,0,0,1,3.81-10l.48-.39C13,1496.09,13.11,1495.73,13.27,1495.38Z"/></g></g></svg>
